<?xml version="1.0" encoding="UTF-8"?>
<svg id="Layer_2" data-name="Layer 2" xmlns="http://www.w3.org/2000/svg" viewBox="0 0 566.05 566.05">
  <defs>
    <style>
      .cls-1 {
        fill: #fff;
        stroke-width: 0px;
      }
    </style>
  </defs>
  <g id="Layer_1-2" data-name="Layer 1">
    <g>
      <g>
        <circle class="cls-1" cx="283.02" cy="283.02" r="10.98"/>
        <path class="cls-1" d="m283.02,340.73c-31.82,0-57.7-25.89-57.7-57.7s25.89-57.7,57.7-57.7,57.7,25.89,57.7,57.7-25.89,57.7-57.7,57.7Zm0-110.41c-29.06,0-52.7,23.64-52.7,52.7s23.64,52.7,52.7,52.7,52.7-23.64,52.7-52.7-23.64-52.7-52.7-52.7Z"/>
        <path class="cls-1" d="m283.02,393.77c-61.06,0-110.74-49.68-110.74-110.74s49.68-110.74,110.74-110.74,110.74,49.68,110.74,110.74-49.68,110.74-110.74,110.74Zm0-216.99c-58.58,0-106.24,47.66-106.24,106.24s47.66,106.24,106.24,106.24,106.24-47.66,106.24-106.24-47.66-106.24-106.24-106.24Z"/>
        <path class="cls-1" d="m283.02,442.71c-88.05,0-159.68-71.63-159.68-159.68s71.63-159.68,159.68-159.68,159.68,71.63,159.68,159.68-71.63,159.68-159.68,159.68Zm0-315.86c-86.12,0-156.18,70.06-156.18,156.18s70.06,156.18,156.18,156.18,156.18-70.06,156.18-156.18-70.06-156.18-156.18-156.18Z"/>
        <path class="cls-1" d="m283.02,485.33c-111.55,0-202.3-90.75-202.3-202.3s90.75-202.3,202.3-202.3,202.3,90.75,202.3,202.3-90.75,202.3-202.3,202.3Zm0-402.1c-110.17,0-199.8,89.63-199.8,199.8s89.63,199.8,199.8,199.8,199.8-89.63,199.8-199.8-89.63-199.8-199.8-199.8Z"/>
        <path class="cls-1" d="m283.02,518.19c-62.82,0-121.87-24.46-166.29-68.88-44.42-44.42-68.88-103.47-68.88-166.29s24.46-121.87,68.88-166.29c44.42-44.42,103.47-68.88,166.29-68.88s121.87,24.46,166.29,68.88,68.88,103.47,68.88,166.29-24.46,121.87-68.88,166.29c-44.42,44.42-103.47,68.88-166.29,68.88Zm0-468.83c-128.84,0-233.67,104.82-233.67,233.67s104.82,233.66,233.67,233.66,233.67-104.82,233.67-233.66S411.87,49.36,283.02,49.36Z"/>
        <path class="cls-1" d="m283.02,548.98c-71.04,0-137.83-27.66-188.06-77.9-50.23-50.23-77.9-117.02-77.9-188.06s27.66-137.83,77.9-188.06c50.23-50.23,117.02-77.9,188.06-77.9s137.83,27.66,188.06,77.9c50.23,50.23,77.9,117.02,77.9,188.06s-27.66,137.83-77.9,188.06c-50.23,50.23-117.02,77.9-188.06,77.9Zm0-530.91C136.93,18.07,18.07,136.93,18.07,283.02s118.86,264.96,264.96,264.96,264.96-118.86,264.96-264.96S429.12,18.07,283.02,18.07Z"/>
        <path class="cls-1" d="m283.02,566.05c-38.21,0-75.27-7.48-110.17-22.24-33.7-14.25-63.97-34.66-89.96-60.65-25.99-25.99-46.4-56.26-60.65-89.96C7.48,358.3,0,321.23,0,283.02s7.48-75.27,22.24-110.17c14.25-33.7,34.66-63.97,60.65-89.96,25.99-25.99,56.26-46.4,89.96-60.65C207.75,7.48,244.82,0,283.02,0s75.27,7.48,110.17,22.24c33.7,14.25,63.97,34.66,89.96,60.65,25.99,25.99,46.4,56.26,60.65,89.96,14.76,34.89,22.24,71.96,22.24,110.17s-7.48,75.27-22.24,110.17c-14.25,33.7-34.66,63.97-60.65,89.96-25.99,25.99-56.26,46.4-89.96,60.65-34.89,14.76-71.96,22.24-110.17,22.24ZM283.02.5C127.24.5.5,127.24.5,283.02s126.74,282.52,282.52,282.52,282.52-126.74,282.52-282.52S438.81.5,283.02.5Z"/>
      </g>
      <g>
        <rect class="cls-1" x="282.52" y=".25" width="1" height="565.55"/>
        <rect class="cls-1" x="282.52" y=".25" width="1" height="565.55" transform="translate(-44.85 53.45) rotate(-10)"/>
        <rect class="cls-1" x="282.52" y=".25" width="1" height="565.55" transform="translate(-79.73 113.87) rotate(-20)"/>
        <rect class="cls-1" x="282.52" y=".25" width="1" height="565.55" transform="translate(-103.59 179.43) rotate(-30)"/>
        <rect class="cls-1" x="282.52" y=".25" width="1" height="565.55" transform="translate(-115.71 248.14) rotate(-40)"/>
        <rect class="cls-1" x="282.52" y=".25" width="1" height="565.55" transform="translate(-115.71 317.91) rotate(-50)"/>
        <rect class="cls-1" x="282.52" y=".25" width="1" height="565.55" transform="translate(-103.59 386.62) rotate(-60)"/>
        <rect class="cls-1" x="282.52" y=".25" width="1" height="565.55" transform="translate(-79.73 452.18) rotate(-70)"/>
        <rect class="cls-1" x="282.52" y=".25" width="1" height="565.55" transform="translate(-44.85 512.6) rotate(-80)"/>
        <rect class="cls-1" x=".25" y="282.52" width="565.55" height="1"/>
      </g>
      <g>
        <rect class="cls-1" x="282.52" y=".25" width="1" height="565.55"/>
        <rect class="cls-1" x=".25" y="282.52" width="565.55" height="1" transform="translate(-44.9 512.53) rotate(-79.99)"/>
        <rect class="cls-1" x=".25" y="282.52" width="565.55" height="1" transform="translate(-79.71 452.22) rotate(-70.01)"/>
        <rect class="cls-1" x=".25" y="282.52" width="565.55" height="1" transform="translate(-103.58 386.67) rotate(-60.01)"/>
        <rect class="cls-1" x=".25" y="282.52" width="565.55" height="1" transform="translate(-115.71 317.85) rotate(-49.99)"/>
        <rect class="cls-1" x=".25" y="282.52" width="565.55" height="1" transform="translate(-115.71 248.2) rotate(-40.01)"/>
        <rect class="cls-1" x=".25" y="282.52" width="565.55" height="1" transform="translate(-103.58 179.4) rotate(-29.99)"/>
        <rect class="cls-1" x=".25" y="282.52" width="565.55" height="1" transform="translate(-79.69 113.78) rotate(-19.99)"/>
        <rect class="cls-1" x=".25" y="282.52" width="565.55" height="1" transform="translate(-44.92 53.55) rotate(-10.02)"/>
        <rect class="cls-1" x=".25" y="282.52" width="565.55" height="1"/>
      </g>
    </g>
  </g>
</svg>