<?xml version="1.0" encoding="UTF-8" standalone="no"?>
<!DOCTYPE svg PUBLIC "-//W3C//DTD SVG 1.1//EN" "http://www.w3.org/Graphics/SVG/1.1/DTD/svg11.dtd">
<svg width="100%" height="100%" viewBox="0 0 212 212" version="1.1" xmlns="http://www.w3.org/2000/svg" xmlns:xlink="http://www.w3.org/1999/xlink" xml:space="preserve" xmlns:serif="http://www.serif.com/" style="fill-rule:evenodd;clip-rule:evenodd;stroke-linejoin:round;stroke-miterlimit:2;">
    <g transform="matrix(1,0,0,1,-310.452,-22.4521)">
        <g transform="matrix(1,0,0,1,288,0)">
            <g transform="matrix(1,0,0,1,196.048,22.4521)">
                <path d="M0,211.096L-136.096,211.096C-156.807,211.096 -173.596,194.307 -173.596,173.596L-173.596,37.5C-173.596,16.789 -156.807,0 -136.096,0L0,0C20.711,0 37.5,16.789 37.5,37.5L37.5,173.596C37.5,194.307 20.711,211.096 0,211.096ZM-66.542,44.601C-101.081,44.601 -129.002,72.728 -129.002,107.525C-129.002,135.34 -111.112,158.885 -86.293,167.218C-83.191,167.844 -82.054,165.864 -82.054,164.198C-82.054,162.739 -82.156,157.739 -82.156,152.529C-99.531,156.28 -103.149,145.028 -103.149,145.028C-105.941,137.736 -110.079,135.861 -110.079,135.861C-115.765,132.007 -109.664,132.007 -109.664,132.007C-103.356,132.424 -100.046,138.466 -100.046,138.466C-94.463,148.049 -85.466,145.341 -81.847,143.674C-81.33,139.611 -79.675,136.799 -77.917,135.236C-91.774,133.777 -106.354,128.36 -106.354,104.19C-106.354,97.315 -103.874,91.689 -99.944,87.314C-100.564,85.752 -102.736,79.292 -99.323,70.645C-99.323,70.645 -94.049,68.978 -82.158,77.104C-77.066,75.727 -71.816,75.026 -66.542,75.02C-61.268,75.02 -55.892,75.75 -50.928,77.104C-39.035,68.978 -33.761,70.645 -33.761,70.645C-30.348,79.292 -32.521,85.752 -33.141,87.314C-29.108,91.689 -26.73,97.315 -26.73,104.19C-26.73,128.36 -41.31,133.673 -55.271,135.236C-52.995,137.215 -51.031,140.965 -51.031,146.904C-51.031,155.342 -51.134,162.114 -51.134,164.197C-51.134,165.864 -49.996,167.844 -46.894,167.219C-22.076,158.883 -4.186,135.34 -4.186,107.525C-4.084,72.728 -32.107,44.601 -66.542,44.601Z" style="fill:rgb(3,140,208);"/>
            </g>
        </g>
    </g>
</svg>
