<?xml version="1.0" encoding="UTF-8" standalone="no"?>
<!DOCTYPE svg PUBLIC "-//W3C//DTD SVG 1.1//EN" "http://www.w3.org/Graphics/SVG/1.1/DTD/svg11.dtd">
<svg width="100%" height="100%" viewBox="0 0 212 212" version="1.1" xmlns="http://www.w3.org/2000/svg" xmlns:xlink="http://www.w3.org/1999/xlink" xml:space="preserve" xmlns:serif="http://www.serif.com/" style="fill-rule:evenodd;clip-rule:evenodd;stroke-linejoin:round;stroke-miterlimit:2;">
    <g transform="matrix(1,0,0,1,-22.4521,-22.4521)">
        <g transform="matrix(1,0,0,1,196.048,22.4521)">
            <path d="M0,211.096L-136.096,211.096C-156.807,211.096 -173.596,194.307 -173.596,173.596L-173.596,37.5C-173.596,16.789 -156.807,0 -136.096,0L0,0C20.711,0 37.5,16.789 37.5,37.5L37.5,173.596C37.5,194.307 20.711,211.096 0,211.096ZM-95.562,41.612C-102.457,41.938 -107.165,43.038 -111.282,44.656C-115.542,46.316 -119.152,48.544 -122.745,52.149C-126.337,55.755 -128.55,59.368 -130.198,63.634C-131.794,67.76 -132.874,72.472 -133.179,79.371C-133.484,86.269 -133.551,88.487 -133.517,106.084C-133.484,123.681 -133.406,125.887 -133.071,132.8C-132.742,139.693 -131.646,144.401 -130.028,148.518C-128.366,152.778 -126.14,156.387 -122.534,159.981C-118.927,163.575 -115.316,165.782 -111.039,167.433C-106.918,169.026 -102.204,170.112 -95.307,170.414C-88.409,170.716 -86.189,170.786 -68.597,170.752C-51.005,170.719 -48.79,170.641 -41.879,170.313C-34.967,169.985 -30.285,168.881 -26.166,167.271C-21.906,165.605 -18.294,163.383 -14.703,159.775C-11.111,156.167 -8.9,152.551 -7.253,148.282C-5.656,144.161 -4.572,139.447 -4.272,132.555C-3.97,125.638 -3.899,123.43 -3.933,105.835C-3.966,88.24 -4.046,86.035 -4.373,79.124C-4.701,72.214 -5.799,67.521 -7.415,63.401C-9.081,59.141 -11.303,55.534 -14.909,51.938C-18.514,48.341 -22.133,46.132 -26.4,44.488C-30.524,42.893 -35.235,41.806 -42.133,41.508C-49.03,41.209 -51.25,41.133 -68.849,41.167C-86.447,41.2 -88.651,41.276 -95.562,41.612ZM-94.805,158.757C-101.123,158.482 -104.554,157.432 -106.84,156.553C-109.868,155.387 -112.024,153.977 -114.303,151.72C-116.581,149.464 -117.981,147.3 -119.163,144.279C-120.05,141.993 -121.12,138.566 -121.415,132.248C-121.736,125.419 -121.804,123.369 -121.841,106.068C-121.879,88.768 -121.813,86.72 -121.514,79.889C-121.244,73.576 -120.188,70.142 -119.31,67.857C-118.144,64.825 -116.739,62.673 -114.477,60.396C-112.216,58.119 -110.058,56.716 -107.035,55.534C-104.751,54.643 -101.324,53.582 -95.009,53.282C-88.175,52.958 -86.127,52.893 -68.829,52.855C-51.531,52.818 -49.479,52.883 -42.642,53.183C-36.329,53.458 -32.893,54.504 -30.611,55.387C-27.582,56.553 -25.427,57.954 -23.15,60.219C-20.873,62.485 -19.469,64.635 -18.287,67.665C-17.394,69.942 -16.334,73.367 -16.036,79.687C-15.711,86.521 -15.637,88.57 -15.606,105.866C-15.575,123.163 -15.636,125.217 -15.935,132.046C-16.211,138.364 -17.258,141.796 -18.138,144.084C-19.305,147.111 -20.711,149.268 -22.974,151.544C-25.237,153.82 -27.392,155.222 -30.417,156.404C-32.698,157.295 -36.128,158.357 -42.439,158.658C-49.272,158.979 -51.32,159.047 -68.625,159.084C-85.929,159.122 -87.971,159.052 -94.805,158.757ZM-41.979,71.326C-41.971,75.621 -38.484,79.096 -34.189,79.089C-29.895,79.082 -26.419,75.595 -26.426,71.3C-26.434,67.006 -29.921,63.53 -34.215,63.537L-34.218,63.537C-38.512,63.546 -41.986,67.033 -41.979,71.326ZM-101.997,106.024C-101.961,124.402 -87.036,139.266 -68.662,139.231C-50.289,139.196 -35.414,124.272 -35.449,105.895C-35.484,87.517 -50.413,72.649 -68.789,72.686C-87.165,72.722 -102.032,87.649 -101.997,106.024ZM-90.325,106.001C-90.349,94.071 -80.697,84.381 -68.767,84.358C-56.837,84.334 -47.147,93.986 -47.124,105.916C-47.1,117.845 -56.752,127.535 -68.682,127.559C-80.61,127.584 -90.3,117.935 -90.325,106.006L-90.325,106.001Z" style="fill:rgb(3,140,208);"/>
        </g>
    </g>
</svg>
