<?xml version="1.0" encoding="UTF-8" standalone="no"?>
<!DOCTYPE svg PUBLIC "-//W3C//DTD SVG 1.1//EN" "http://www.w3.org/Graphics/SVG/1.1/DTD/svg11.dtd">
<svg width="100%" height="100%" viewBox="0 0 212 212" version="1.1" xmlns="http://www.w3.org/2000/svg" xmlns:xlink="http://www.w3.org/1999/xlink" xml:space="preserve" xmlns:serif="http://www.serif.com/" style="fill-rule:evenodd;clip-rule:evenodd;stroke-linejoin:round;stroke-miterlimit:2;">
    <g transform="matrix(1,0,0,1,-598.452,-22.4521)">
        <g transform="matrix(1,0,0,1,576,0)">
            <g transform="matrix(1,0,0,1,196.048,22.4521)">
                <path d="M0,211.096L-136.096,211.096C-156.807,211.096 -173.596,194.307 -173.596,173.596L-173.596,37.5C-173.596,16.789 -156.807,0 -136.096,0L0,0C20.711,0 37.5,16.789 37.5,37.5L37.5,173.596C37.5,194.307 20.711,211.096 0,211.096ZM-41.654,76.699C-50.397,76.699 -56.861,80.458 -60.781,84.728L-60.781,80.186C-60.781,79.22 -61.564,78.437 -62.53,78.437L-83.378,78.437C-84.344,78.437 -85.127,79.22 -85.127,80.186L-85.127,150.122C-85.127,151.089 -84.344,151.872 -83.378,151.872L-61.656,151.872C-60.69,151.872 -59.907,151.089 -59.907,150.122L-59.907,115.52C-59.907,103.86 -56.74,99.318 -48.612,99.318C-39.76,99.318 -39.056,106.6 -39.056,116.12L-39.056,150.123C-39.056,151.089 -38.273,151.872 -37.307,151.872L-15.577,151.872C-14.611,151.872 -13.828,151.089 -13.828,150.123L-13.828,111.762C-13.828,94.423 -17.134,76.699 -41.654,76.699ZM-97.026,78.437L-118.796,78.437C-119.762,78.437 -120.545,79.22 -120.545,80.186L-120.545,150.122C-120.545,151.088 -119.762,151.871 -118.796,151.871L-97.026,151.871C-96.06,151.871 -95.277,151.088 -95.277,150.122L-95.277,80.186C-95.277,79.22 -96.06,78.437 -97.026,78.437ZM-107.903,43.67C-115.824,43.67 -122.268,50.107 -122.268,58.019C-122.268,65.935 -115.824,72.375 -107.903,72.375C-99.988,72.375 -93.549,65.935 -93.549,58.019C-93.549,50.107 -99.988,43.67 -107.903,43.67Z" style="fill:rgb(3,140,208);"/>
            </g>
        </g>
    </g>
</svg>
