<?xml version="1.0" encoding="UTF-8" standalone="no"?>
<!DOCTYPE svg PUBLIC "-//W3C//DTD SVG 1.1//EN" "http://www.w3.org/Graphics/SVG/1.1/DTD/svg11.dtd">
<svg width="100%" height="100%" viewBox="0 0 212 212" version="1.1" xmlns="http://www.w3.org/2000/svg" xmlns:xlink="http://www.w3.org/1999/xlink" xml:space="preserve" xmlns:serif="http://www.serif.com/" style="fill-rule:evenodd;clip-rule:evenodd;stroke-linejoin:round;stroke-miterlimit:2;">
    <g transform="matrix(1,0,0,1,-22.4521,-310.452)">
        <g transform="matrix(1,0,0,1,0,288)">
            <g transform="matrix(1,0,0,1,196.048,22.4521)">
                <path d="M0,211.096L-136.096,211.096C-156.807,211.096 -173.596,194.307 -173.596,173.596L-173.596,37.5C-173.596,16.789 -156.807,0 -136.096,0L0,0C20.711,0 37.5,16.789 37.5,37.5L37.5,173.596C37.5,194.307 20.711,211.096 0,211.096ZM-68.048,41.409C-102.312,41.409 -130.087,69.184 -130.087,103.448C-130.087,137.711 -102.312,165.486 -68.048,165.486C-33.784,165.486 -6.009,137.711 -6.009,103.448C-6.009,69.19 -33.784,41.415 -68.048,41.415L-68.048,41.409ZM-31.352,96.408C-51.347,84.533 -84.333,83.44 -103.429,89.235C-106.493,90.158 -109.732,88.435 -110.662,85.363C-111.593,82.298 -109.862,79.059 -106.797,78.129C-84.879,71.474 -48.45,72.759 -25.427,86.423C-22.673,88.062 -21.767,91.625 -23.405,94.378C-25.03,97.132 -28.604,98.044 -31.352,96.408ZM-39.597,130.886C-40.714,132.71 -43.09,133.289 -44.914,132.171C-59.48,123.268 -77.819,121.26 -99.415,126.191C-101.493,126.67 -103.571,125.367 -104.043,123.28C-104.521,121.202 -103.224,119.13 -101.133,118.654C-77.503,113.25 -57.235,115.577 -40.881,125.57C-39.057,126.688 -38.48,129.063 -39.597,130.886ZM-32.004,113.995C-33.406,116.27 -36.383,116.985 -38.66,115.589C-55.33,105.341 -80.753,102.375 -100.476,108.361C-103.038,109.131 -105.736,107.692 -106.512,105.135C-107.281,102.578 -105.842,99.879 -103.286,99.104C-80.76,92.27 -52.749,95.581 -33.598,107.349C-31.321,108.746 -30.608,111.724 -32.004,113.995Z" style="fill:rgb(3,140,208);"/>
            </g>
        </g>
    </g>
</svg>
