<?xml version="1.0" encoding="utf-8"?>
<!-- Generator: Adobe Illustrator 28.0.0, SVG Export Plug-In . SVG Version: 6.00 Build 0)  -->
<svg version="1.1" id="Layer_1" xmlns="http://www.w3.org/2000/svg" xmlns:xlink="http://www.w3.org/1999/xlink" x="0px" y="0px"
	 viewBox="0 0 203.5 42" style="enable-background:new 0 0 203.5 42;" xml:space="preserve">
<style type="text/css">
	.st0{fill-rule:evenodd;clip-rule:evenodd;fill:#FFFFFF;}
	.st1{fill:#FFFFFF;}
</style>
<path class="st0" d="M5.2,0.5L35.5,18c2.3,1.3,2.3,4.7,0,6L5.2,41.5c-2.3,1.3-5.2-0.3-5.2-3v-35C0,0.8,2.9-0.9,5.2,0.5z M3.7,3.1
	C3.4,2.9,3,3.1,3,3.5v35c0,0.4,0.4,0.6,0.7,0.4L34,21.4c0.3-0.2,0.3-0.7,0-0.9L3.7,3.1z"/>
<path class="st0" d="M13.3,8.9l-10,5.8C3.1,14.8,3,15,3,15.2v11.5c0,0.2,0.1,0.4,0.3,0.5l10,5.8c0.2,0.1,0.4,0.1,0.6,0l10-5.8
	c0.2-0.1,0.3-0.3,0.3-0.5V15.2c0-0.2-0.1-0.4-0.3-0.5l-10-5.8C13.7,8.8,13.5,8.8,13.3,8.9z M11.8,6.3c1.1-0.6,2.5-0.6,3.6,0l10,5.8
	c1.1,0.6,1.8,1.8,1.8,3.1v11.5c0,1.3-0.7,2.5-1.8,3.1l-10,5.8c-1.1,0.6-2.5,0.6-3.6,0l-10-5.8C0.7,29.3,0,28.1,0,26.8V15.2
	c0-1.3,0.7-2.5,1.8-3.1L11.8,6.3z"/>
<path class="st0" d="M0,14.5c0-1.4,1.5-2.2,2.6-1.5l11.6,6.7c0.6,0.3,0.9,0.9,0.9,1.5V35c0,0.5-0.3,1-0.8,1.3c-0.5,0.3-1,0.3-1.5,0
	L0.9,29.4l0,0C0.3,29,0,28.5,0,27.8V14.5z M3,16.6l9.1,5.3v10.5L3,27.1V16.6z"/>
<path class="st0" d="M24.3,13.1c1.3-0.8,2.9,0.2,2.9,1.7v0v13c0,0.7-0.4,1.3-1,1.7l0,0L15,35.9c-1.3,0.7-2.9-0.2-2.9-1.7v-13
	c0-0.7,0.4-1.3,1-1.7l0,0L24.3,13.1z M24.2,16.6l-9.1,5.3v10.5l9.1-5.3V16.6z"/>
<path class="st1" d="M54.3,18.2v-2.8h-2v-3.3h-3.7v3.3h-1.6v2.8h1.6v5.2c0,2.6,0.8,4.1,3.5,4.1c1,0,1.6-0.1,2.3-0.3v-2.8
	c-1.6,0-2,0-2-1.3v-4.9H54.3z"/>
<path class="st1" d="M63,15c-1.9,0-3,1-3.7,2.1h0v-6.4h-3.7v16.4h3.7v-6.8c0-1.6,1-2.3,2.1-2.3c1.3,0,1.9,0.6,1.9,2.4v6.8h3.7v-8
	C67.1,16.5,65.5,15,63,15z"/>
<path class="st1" d="M75.4,15.2c-1.3,0-2.3,0.8-2.9,2.1h0v-1.9h-3.7v11.8h3.7v-5.5c0-2.5,2-3.5,3.9-3.2h0v-3.2
	C76,15.2,75.7,15.2,75.4,15.2z"/>
<path class="st1" d="M83,24.8c-1.3,0-2.5-0.9-2.5-2.5H89c0-4.3-2-7.2-6.1-7.2c-3.7,0-6.1,2.7-6.1,6.3c0,3.7,2.4,6.3,6.3,6.3
	c3.2,0,5-1.6,5.7-3.9h-3.7C84.9,24.2,84.3,24.8,83,24.8z M82.9,17.6c1.4,0,2.4,0.8,2.4,2.5h-4.8C80.5,18.4,81.5,17.6,82.9,17.6z"/>
<path class="st1" d="M95.9,24.8c-1.3,0-2.5-0.9-2.5-2.5h8.5c0-4.3-2-7.2-6.1-7.2c-3.7,0-6.1,2.7-6.1,6.3c0,3.7,2.4,6.3,6.3,6.3
	c3.2,0,5-1.6,5.7-3.9H98C97.8,24.2,97.2,24.8,95.9,24.8z M95.8,17.6c1.4,0,2.4,0.8,2.4,2.5h-4.8C93.4,18.4,94.4,17.6,95.8,17.6z"/>
<path class="st1" d="M104.8,27.4c1.1,0,2-0.8,2-2c0-1.2-0.9-2-2-2c-1.1,0-2,0.8-2,2C102.8,26.6,103.7,27.4,104.8,27.4z"/>
<path class="st1" d="M110.5,14c1,0,1.8-0.6,1.8-1.6c0-1.1-0.8-1.6-1.8-1.6c-1,0-1.8,0.6-1.8,1.6C108.7,13.5,109.5,14,110.5,14z
	 M108.7,15.4v11.5c0,1.3-0.5,1.3-2,1.3V31c0.7,0.1,1.2,0.3,2.3,0.3c2.7,0,3.4-1.4,3.4-4.1V15.4H108.7z"/>
<path class="st1" d="M119.9,19.8c-1.8-0.4-2.6-0.4-2.6-1.2c0-0.6,0.5-0.9,1.6-0.9c1.2,0,1.7,0.5,1.8,1.4h3.5c-0.1-2.1-1.6-4-5.4-4
	c-3.3,0-5.2,1.6-5.2,3.8c0,2.5,2.2,3.2,4.2,3.6c1.9,0.4,3,0.6,3,1.6c0,0.7-0.6,1-1.6,1c-1.4,0-2.2-0.6-2.3-1.7h-3.5
	c0.1,2.4,1.7,4.3,5.9,4.3c3.3,0,5.2-1.4,5.2-3.8C124.5,21,122.2,20.3,119.9,19.8z"/>
<path class="st1" d="M133,13.2c0.5,0,1.2-0.4,1.2-1.1c0-0.7-0.6-1.1-1.2-1.1c-0.5,0-1.1,0.4-1.1,1.1C131.8,12.8,132.5,13.2,133,13.2
	z M132.1,15.5v12.7c0,1.3-0.4,1.4-1.9,1.3v1.4c0.7,0.2,1.1,0.3,1.7,0.3c1.6,0,2.1-1.2,2.1-3.2V15.5H132.1z"/>
<path class="st1" d="M141.8,27.5c-3.6,0-5.8-2.5-5.8-6.2c0-3.7,2.2-6.2,5.8-6.2c3.6,0,5.7,2.5,5.7,6.2
	C147.5,25,145.3,27.5,141.8,27.5z M141.8,25.9c2.6,0,3.9-2.1,3.9-4.6c0-2.5-1.3-4.6-3.9-4.6c-2.6,0-3.9,2.1-3.9,4.6
	C137.8,23.8,139.1,25.9,141.8,25.9z"/>
<path class="st1" d="M157.1,15.5v7.3c0,1.8-1.4,3.1-3.4,3.1c-1.8,0-2.6-1.2-2.6-2.7v-7.7h-1.8v8.2c0,2.7,1.8,3.9,3.9,3.9
	c2,0,3.2-0.9,3.9-1.7h0v1.4h1.8V15.5H157.1z"/>
<path class="st1" d="M166.6,15.1c-1.7,0-2.6,1.1-3.2,2.6h0v-2.3h-1.8v11.7h1.8v-6.3c0-2.5,1.8-4.3,4.3-3.9h0v-1.8
	C167.4,15.2,167.1,15.1,166.6,15.1z"/>
<path class="st1" d="M175.1,15.1c-2,0-3.2,0.9-3.9,1.7h0v-1.4h-1.8v11.7h1.8v-7.3c0-1.8,1.4-3.1,3.5-3.1c1.8,0,2.6,1.2,2.6,2.7v7.7
	h1.8V19C179.1,16.3,177.3,15.1,175.1,15.1z"/>
<path class="st1" d="M186.5,25.9c-2.6,0-3.8-2-3.8-4.1h9.3c0-4.2-1.8-6.7-5.5-6.7c-3.4,0-5.6,2.3-5.6,6.2c0,3.7,2.2,6.2,5.7,6.2
	c2.9,0,4.6-1.7,5.2-3.9h-1.8C189.7,24.4,188.9,25.9,186.5,25.9z M186.5,16.7c2.2,0,3.6,1.6,3.6,3.4h-7.4
	C182.7,18.3,184.3,16.7,186.5,16.7z"/>
<path class="st1" d="M203.5,15.5h-2.1L198,25h0l-3.6-9.6h-2.1l4.4,10.8c0.5,1.2,0,2.1-0.5,2.7c-0.6,0.7-1.3,0.7-2.3,0.6h-0.3v1.4
	c0.3,0.1,0.8,0.2,1.6,0.2c2.2,0,2.8-1.7,3.3-3L203.5,15.5z"/>
</svg>
