<?xml version="1.0" encoding="UTF-8" standalone="no"?>
<!DOCTYPE svg PUBLIC "-//W3C//DTD SVG 1.1//EN" "http://www.w3.org/Graphics/SVG/1.1/DTD/svg11.dtd">
<svg width="100%" height="100%" viewBox="0 0 32 32" version="1.1" xmlns="http://www.w3.org/2000/svg" xmlns:xlink="http://www.w3.org/1999/xlink" xml:space="preserve" xmlns:serif="http://www.serif.com/" style="fill-rule:evenodd;clip-rule:evenodd;stroke-linejoin:round;stroke-miterlimit:2;">
    <g transform="matrix(1.06536,0,0,1.06723,-1.45149,-0.989194)">
        <path d="M31.399,3.1L31.399,28.738C31.399,29.938 30.424,30.911 29.223,30.911L3.539,30.911C2.338,30.911 1.362,29.938 1.362,28.738L1.362,3.1C1.362,1.9 2.338,0.927 3.539,0.927L29.223,0.927C30.424,0.927 31.399,1.9 31.399,3.1ZM30.461,3.1C30.461,2.418 29.906,1.864 29.223,1.864L3.539,1.864C2.856,1.864 2.301,2.418 2.301,3.1L2.301,28.738C2.301,29.42 2.856,29.974 3.539,29.974L29.223,29.974C29.906,29.974 30.461,29.42 30.461,28.738L30.461,3.1Z" style="fill:rgb(197,236,255);"/>
    </g>
    <g transform="matrix(0.583168,0,0,0.583168,-6.43731,-0.594466)">
        <g transform="matrix(12,0,0,12,61.6136,13.0867)">
        </g>
        <text x="15.174px" y="13.087px" style="font-family:'Poppins-Bold', 'Poppins';font-weight:700;font-size:12px;fill:rgb(197,236,255);">v<tspan x="22.158px 29.586px 32.694px 35.682px 40.782px 48.798px 53.502px " y="13.087px 13.087px 13.087px 13.087px 13.087px 13.087px 13.087px ">ollrath</tspan></text>
    </g>
    <g transform="matrix(0.583168,0,0,0.583168,-6.43731,5.12962)">
        <g transform="matrix(12,0,0,12,61.6136,13.0867)">
        </g>
        <text x="15.174px" y="13.087px" style="font-family:'Poppins-Bold', 'Poppins';font-weight:700;font-size:12px;fill:rgb(136,216,255);">v<tspan x="22.158px 29.586px 32.694px 35.682px 40.782px 48.798px 53.502px " y="13.087px 13.087px 13.087px 13.087px 13.087px 13.087px 13.087px ">ollrath</tspan></text>
    </g>
    <g transform="matrix(0.583168,0,0,0.583168,-6.43731,10.8537)">
        <g transform="matrix(12,0,0,12,61.6136,13.0867)">
        </g>
        <text x="15.174px" y="13.087px" style="font-family:'Poppins-Bold', 'Poppins';font-weight:700;font-size:12px;fill:rgb(255,95,246);">v<tspan x="22.158px 29.586px 32.694px 35.682px 40.782px 48.798px 53.502px " y="13.087px 13.087px 13.087px 13.087px 13.087px 13.087px 13.087px ">ollrath</tspan></text>
    </g>
    <g transform="matrix(0.583168,0,0,0.583168,-6.43731,16.5778)">
        <g transform="matrix(12,0,0,12,61.6136,13.0867)">
        </g>
        <text x="15.174px" y="13.087px" style="font-family:'Poppins-Bold', 'Poppins';font-weight:700;font-size:12px;fill:rgb(136,216,255);">v<tspan x="22.158px 29.586px 32.694px 35.682px 40.782px 48.798px 53.502px " y="13.087px 13.087px 13.087px 13.087px 13.087px 13.087px 13.087px ">ollrath</tspan></text>
    </g>
    <g transform="matrix(0.583168,0,0,0.583168,-6.43731,22.3019)">
        <g transform="matrix(12,0,0,12,61.6136,13.0867)">
        </g>
        <text x="15.174px" y="13.087px" style="font-family:'Poppins-Bold', 'Poppins';font-weight:700;font-size:12px;fill:rgb(197,236,255);">v<tspan x="22.158px 29.586px 32.694px 35.682px 40.782px 48.798px 53.502px " y="13.087px 13.087px 13.087px 13.087px 13.087px 13.087px 13.087px ">ollrath</tspan></text>
    </g>
</svg>
