<?xml version="1.0" encoding="UTF-8" standalone="no"?>
<!DOCTYPE svg PUBLIC "-//W3C//DTD SVG 1.1//EN" "http://www.w3.org/Graphics/SVG/1.1/DTD/svg11.dtd">
<svg width="100%" height="100%" viewBox="0 0 32 32" version="1.1" xmlns="http://www.w3.org/2000/svg" xmlns:xlink="http://www.w3.org/1999/xlink" xml:space="preserve" xmlns:serif="http://www.serif.com/" style="fill-rule:evenodd;clip-rule:evenodd;stroke-linejoin:round;stroke-miterlimit:2;">
    <g transform="matrix(1.06536,0,0,1.06723,-1.45149,-0.989194)">
        <path d="M31.399,3.1L31.399,28.738C31.399,29.938 30.424,30.911 29.223,30.911L3.539,30.911C2.338,30.911 1.362,29.938 1.362,28.738L1.362,3.1C1.362,1.9 2.338,0.927 3.539,0.927L29.223,0.927C30.424,0.927 31.399,1.9 31.399,3.1ZM30.461,3.1C30.461,2.418 29.906,1.864 29.223,1.864L3.539,1.864C2.856,1.864 2.301,2.418 2.301,3.1L2.301,28.738C2.301,29.42 2.856,29.974 3.539,29.974L29.223,29.974C29.906,29.974 30.461,29.42 30.461,28.738L30.461,3.1Z" style="fill:rgb(197,236,255);"/>
    </g>
    <g transform="matrix(0.583168,0,0,0.583168,-6.43731,-0.594466)">
        <path d="M18.978,11.083L20.43,6.391L22.614,6.391L20.238,13.087L17.694,13.087L15.318,6.391L17.502,6.391L18.978,11.083Z" style="fill:rgb(197,236,255);fill-rule:nonzero;"/>
        <path d="M25.998,6.307C26.662,6.307 27.256,6.445 27.78,6.721C28.304,6.997 28.716,7.395 29.016,7.915C29.316,8.435 29.466,9.043 29.466,9.739C29.466,10.435 29.316,11.043 29.016,11.563C28.716,12.083 28.304,12.481 27.78,12.757C27.256,13.033 26.662,13.171 25.998,13.171C25.334,13.171 24.738,13.033 24.21,12.757C23.682,12.481 23.268,12.083 22.968,11.563C22.668,11.043 22.518,10.435 22.518,9.739C22.518,9.043 22.668,8.435 22.968,7.915C23.268,7.395 23.682,6.997 24.21,6.721C24.738,6.445 25.334,6.307 25.998,6.307ZM25.998,8.083C25.606,8.083 25.276,8.225 25.008,8.509C24.74,8.793 24.606,9.203 24.606,9.739C24.606,10.275 24.74,10.683 25.008,10.963C25.276,11.243 25.606,11.383 25.998,11.383C26.39,11.383 26.718,11.243 26.982,10.963C27.246,10.683 27.378,10.275 27.378,9.739C27.378,9.203 27.246,8.793 26.982,8.509C26.718,8.225 26.39,8.083 25.998,8.083Z" style="fill:rgb(197,236,255);fill-rule:nonzero;"/>
        <rect x="30.294" y="4.207" width="2.052" height="8.88" style="fill:rgb(197,236,255);fill-rule:nonzero;"/>
        <rect x="33.402" y="4.207" width="2.052" height="8.88" style="fill:rgb(197,236,255);fill-rule:nonzero;"/>
        <path d="M38.442,7.651C38.698,7.243 39.028,6.919 39.432,6.679C39.836,6.439 40.274,6.319 40.746,6.319L40.746,8.515L40.158,8.515C39.614,8.515 39.192,8.631 38.892,8.863C38.592,9.095 38.442,9.487 38.442,10.039L38.442,13.087L36.39,13.087L36.39,6.391L38.442,6.391L38.442,7.651Z" style="fill:rgb(197,236,255);fill-rule:nonzero;"/>
        <path d="M44.034,6.307C44.546,6.307 44.986,6.423 45.354,6.655C45.722,6.887 45.994,7.203 46.17,7.603L46.17,6.391L48.21,6.391L48.21,13.087L46.17,13.087L46.17,11.875C45.994,12.275 45.722,12.591 45.354,12.823C44.986,13.055 44.546,13.171 44.034,13.171C43.482,13.171 42.988,13.033 42.552,12.757C42.116,12.481 41.772,12.083 41.52,11.563C41.268,11.043 41.142,10.435 41.142,9.739C41.142,9.035 41.268,8.425 41.52,7.909C41.772,7.393 42.116,6.997 42.552,6.721C42.988,6.445 43.482,6.307 44.034,6.307ZM44.694,8.107C44.254,8.107 43.9,8.251 43.632,8.539C43.364,8.827 43.23,9.227 43.23,9.739C43.23,10.251 43.364,10.651 43.632,10.939C43.9,11.227 44.254,11.371 44.694,11.371C45.126,11.371 45.48,11.223 45.756,10.927C46.032,10.631 46.17,10.235 46.17,9.739C46.17,9.235 46.032,8.837 45.756,8.545C45.48,8.253 45.126,8.107 44.694,8.107Z" style="fill:rgb(197,236,255);fill-rule:nonzero;"/>
        <path d="M53.298,11.323L53.298,13.087L52.374,13.087C51.59,13.087 50.98,12.893 50.544,12.505C50.108,12.117 49.89,11.475 49.89,10.579L49.89,8.119L48.99,8.119L48.99,6.391L49.89,6.391L49.89,4.747L51.942,4.747L51.942,6.391L53.286,6.391L53.286,8.119L51.942,8.119L51.942,10.615C51.942,10.879 51.996,11.063 52.104,11.167C52.212,11.271 52.394,11.323 52.65,11.323L53.298,11.323Z" style="fill:rgb(197,236,255);fill-rule:nonzero;"/>
        <path d="M58.458,6.319C59.226,6.319 59.836,6.575 60.288,7.087C60.74,7.599 60.966,8.303 60.966,9.199L60.966,13.087L58.914,13.087L58.914,9.439C58.914,8.991 58.796,8.641 58.56,8.389C58.324,8.137 58.01,8.011 57.618,8.011C57.202,8.011 56.872,8.143 56.628,8.407C56.384,8.671 56.262,9.047 56.262,9.535L56.262,13.087L54.21,13.087L54.21,4.207L56.262,4.207L56.262,7.615C56.454,7.215 56.74,6.899 57.12,6.667C57.5,6.435 57.946,6.319 58.458,6.319Z" style="fill:rgb(197,236,255);fill-rule:nonzero;"/>
    </g>
    <g transform="matrix(0.583168,0,0,0.583168,-6.43731,5.12962)">
        <path d="M18.978,11.083L20.43,6.391L22.614,6.391L20.238,13.087L17.694,13.087L15.318,6.391L17.502,6.391L18.978,11.083Z" style="fill:rgb(136,216,255);fill-rule:nonzero;"/>
        <path d="M25.998,6.307C26.662,6.307 27.256,6.445 27.78,6.721C28.304,6.997 28.716,7.395 29.016,7.915C29.316,8.435 29.466,9.043 29.466,9.739C29.466,10.435 29.316,11.043 29.016,11.563C28.716,12.083 28.304,12.481 27.78,12.757C27.256,13.033 26.662,13.171 25.998,13.171C25.334,13.171 24.738,13.033 24.21,12.757C23.682,12.481 23.268,12.083 22.968,11.563C22.668,11.043 22.518,10.435 22.518,9.739C22.518,9.043 22.668,8.435 22.968,7.915C23.268,7.395 23.682,6.997 24.21,6.721C24.738,6.445 25.334,6.307 25.998,6.307ZM25.998,8.083C25.606,8.083 25.276,8.225 25.008,8.509C24.74,8.793 24.606,9.203 24.606,9.739C24.606,10.275 24.74,10.683 25.008,10.963C25.276,11.243 25.606,11.383 25.998,11.383C26.39,11.383 26.718,11.243 26.982,10.963C27.246,10.683 27.378,10.275 27.378,9.739C27.378,9.203 27.246,8.793 26.982,8.509C26.718,8.225 26.39,8.083 25.998,8.083Z" style="fill:rgb(136,216,255);fill-rule:nonzero;"/>
        <rect x="30.294" y="4.207" width="2.052" height="8.88" style="fill:rgb(136,216,255);fill-rule:nonzero;"/>
        <rect x="33.402" y="4.207" width="2.052" height="8.88" style="fill:rgb(136,216,255);fill-rule:nonzero;"/>
        <path d="M38.442,7.651C38.698,7.243 39.028,6.919 39.432,6.679C39.836,6.439 40.274,6.319 40.746,6.319L40.746,8.515L40.158,8.515C39.614,8.515 39.192,8.631 38.892,8.863C38.592,9.095 38.442,9.487 38.442,10.039L38.442,13.087L36.39,13.087L36.39,6.391L38.442,6.391L38.442,7.651Z" style="fill:rgb(136,216,255);fill-rule:nonzero;"/>
        <path d="M44.034,6.307C44.546,6.307 44.986,6.423 45.354,6.655C45.722,6.887 45.994,7.203 46.17,7.603L46.17,6.391L48.21,6.391L48.21,13.087L46.17,13.087L46.17,11.875C45.994,12.275 45.722,12.591 45.354,12.823C44.986,13.055 44.546,13.171 44.034,13.171C43.482,13.171 42.988,13.033 42.552,12.757C42.116,12.481 41.772,12.083 41.52,11.563C41.268,11.043 41.142,10.435 41.142,9.739C41.142,9.035 41.268,8.425 41.52,7.909C41.772,7.393 42.116,6.997 42.552,6.721C42.988,6.445 43.482,6.307 44.034,6.307ZM44.694,8.107C44.254,8.107 43.9,8.251 43.632,8.539C43.364,8.827 43.23,9.227 43.23,9.739C43.23,10.251 43.364,10.651 43.632,10.939C43.9,11.227 44.254,11.371 44.694,11.371C45.126,11.371 45.48,11.223 45.756,10.927C46.032,10.631 46.17,10.235 46.17,9.739C46.17,9.235 46.032,8.837 45.756,8.545C45.48,8.253 45.126,8.107 44.694,8.107Z" style="fill:rgb(136,216,255);fill-rule:nonzero;"/>
        <path d="M53.298,11.323L53.298,13.087L52.374,13.087C51.59,13.087 50.98,12.893 50.544,12.505C50.108,12.117 49.89,11.475 49.89,10.579L49.89,8.119L48.99,8.119L48.99,6.391L49.89,6.391L49.89,4.747L51.942,4.747L51.942,6.391L53.286,6.391L53.286,8.119L51.942,8.119L51.942,10.615C51.942,10.879 51.996,11.063 52.104,11.167C52.212,11.271 52.394,11.323 52.65,11.323L53.298,11.323Z" style="fill:rgb(136,216,255);fill-rule:nonzero;"/>
        <path d="M58.458,6.319C59.226,6.319 59.836,6.575 60.288,7.087C60.74,7.599 60.966,8.303 60.966,9.199L60.966,13.087L58.914,13.087L58.914,9.439C58.914,8.991 58.796,8.641 58.56,8.389C58.324,8.137 58.01,8.011 57.618,8.011C57.202,8.011 56.872,8.143 56.628,8.407C56.384,8.671 56.262,9.047 56.262,9.535L56.262,13.087L54.21,13.087L54.21,4.207L56.262,4.207L56.262,7.615C56.454,7.215 56.74,6.899 57.12,6.667C57.5,6.435 57.946,6.319 58.458,6.319Z" style="fill:rgb(136,216,255);fill-rule:nonzero;"/>
    </g>
    <g transform="matrix(0.583168,0,0,0.583168,-6.43731,10.8537)">
        <path d="M18.978,11.083L20.43,6.391L22.614,6.391L20.238,13.087L17.694,13.087L15.318,6.391L17.502,6.391L18.978,11.083Z" style="fill:rgb(255,95,246);fill-rule:nonzero;"/>
        <path d="M25.998,6.307C26.662,6.307 27.256,6.445 27.78,6.721C28.304,6.997 28.716,7.395 29.016,7.915C29.316,8.435 29.466,9.043 29.466,9.739C29.466,10.435 29.316,11.043 29.016,11.563C28.716,12.083 28.304,12.481 27.78,12.757C27.256,13.033 26.662,13.171 25.998,13.171C25.334,13.171 24.738,13.033 24.21,12.757C23.682,12.481 23.268,12.083 22.968,11.563C22.668,11.043 22.518,10.435 22.518,9.739C22.518,9.043 22.668,8.435 22.968,7.915C23.268,7.395 23.682,6.997 24.21,6.721C24.738,6.445 25.334,6.307 25.998,6.307ZM25.998,8.083C25.606,8.083 25.276,8.225 25.008,8.509C24.74,8.793 24.606,9.203 24.606,9.739C24.606,10.275 24.74,10.683 25.008,10.963C25.276,11.243 25.606,11.383 25.998,11.383C26.39,11.383 26.718,11.243 26.982,10.963C27.246,10.683 27.378,10.275 27.378,9.739C27.378,9.203 27.246,8.793 26.982,8.509C26.718,8.225 26.39,8.083 25.998,8.083Z" style="fill:rgb(255,95,246);fill-rule:nonzero;"/>
        <rect x="30.294" y="4.207" width="2.052" height="8.88" style="fill:rgb(255,95,246);fill-rule:nonzero;"/>
        <rect x="33.402" y="4.207" width="2.052" height="8.88" style="fill:rgb(255,95,246);fill-rule:nonzero;"/>
        <path d="M38.442,7.651C38.698,7.243 39.028,6.919 39.432,6.679C39.836,6.439 40.274,6.319 40.746,6.319L40.746,8.515L40.158,8.515C39.614,8.515 39.192,8.631 38.892,8.863C38.592,9.095 38.442,9.487 38.442,10.039L38.442,13.087L36.39,13.087L36.39,6.391L38.442,6.391L38.442,7.651Z" style="fill:rgb(255,95,246);fill-rule:nonzero;"/>
        <path d="M44.034,6.307C44.546,6.307 44.986,6.423 45.354,6.655C45.722,6.887 45.994,7.203 46.17,7.603L46.17,6.391L48.21,6.391L48.21,13.087L46.17,13.087L46.17,11.875C45.994,12.275 45.722,12.591 45.354,12.823C44.986,13.055 44.546,13.171 44.034,13.171C43.482,13.171 42.988,13.033 42.552,12.757C42.116,12.481 41.772,12.083 41.52,11.563C41.268,11.043 41.142,10.435 41.142,9.739C41.142,9.035 41.268,8.425 41.52,7.909C41.772,7.393 42.116,6.997 42.552,6.721C42.988,6.445 43.482,6.307 44.034,6.307ZM44.694,8.107C44.254,8.107 43.9,8.251 43.632,8.539C43.364,8.827 43.23,9.227 43.23,9.739C43.23,10.251 43.364,10.651 43.632,10.939C43.9,11.227 44.254,11.371 44.694,11.371C45.126,11.371 45.48,11.223 45.756,10.927C46.032,10.631 46.17,10.235 46.17,9.739C46.17,9.235 46.032,8.837 45.756,8.545C45.48,8.253 45.126,8.107 44.694,8.107Z" style="fill:rgb(255,95,246);fill-rule:nonzero;"/>
        <path d="M53.298,11.323L53.298,13.087L52.374,13.087C51.59,13.087 50.98,12.893 50.544,12.505C50.108,12.117 49.89,11.475 49.89,10.579L49.89,8.119L48.99,8.119L48.99,6.391L49.89,6.391L49.89,4.747L51.942,4.747L51.942,6.391L53.286,6.391L53.286,8.119L51.942,8.119L51.942,10.615C51.942,10.879 51.996,11.063 52.104,11.167C52.212,11.271 52.394,11.323 52.65,11.323L53.298,11.323Z" style="fill:rgb(255,95,246);fill-rule:nonzero;"/>
        <path d="M58.458,6.319C59.226,6.319 59.836,6.575 60.288,7.087C60.74,7.599 60.966,8.303 60.966,9.199L60.966,13.087L58.914,13.087L58.914,9.439C58.914,8.991 58.796,8.641 58.56,8.389C58.324,8.137 58.01,8.011 57.618,8.011C57.202,8.011 56.872,8.143 56.628,8.407C56.384,8.671 56.262,9.047 56.262,9.535L56.262,13.087L54.21,13.087L54.21,4.207L56.262,4.207L56.262,7.615C56.454,7.215 56.74,6.899 57.12,6.667C57.5,6.435 57.946,6.319 58.458,6.319Z" style="fill:rgb(255,95,246);fill-rule:nonzero;"/>
    </g>
    <g transform="matrix(0.583168,0,0,0.583168,-6.43731,16.5778)">
        <path d="M18.978,11.083L20.43,6.391L22.614,6.391L20.238,13.087L17.694,13.087L15.318,6.391L17.502,6.391L18.978,11.083Z" style="fill:rgb(136,216,255);fill-rule:nonzero;"/>
        <path d="M25.998,6.307C26.662,6.307 27.256,6.445 27.78,6.721C28.304,6.997 28.716,7.395 29.016,7.915C29.316,8.435 29.466,9.043 29.466,9.739C29.466,10.435 29.316,11.043 29.016,11.563C28.716,12.083 28.304,12.481 27.78,12.757C27.256,13.033 26.662,13.171 25.998,13.171C25.334,13.171 24.738,13.033 24.21,12.757C23.682,12.481 23.268,12.083 22.968,11.563C22.668,11.043 22.518,10.435 22.518,9.739C22.518,9.043 22.668,8.435 22.968,7.915C23.268,7.395 23.682,6.997 24.21,6.721C24.738,6.445 25.334,6.307 25.998,6.307ZM25.998,8.083C25.606,8.083 25.276,8.225 25.008,8.509C24.74,8.793 24.606,9.203 24.606,9.739C24.606,10.275 24.74,10.683 25.008,10.963C25.276,11.243 25.606,11.383 25.998,11.383C26.39,11.383 26.718,11.243 26.982,10.963C27.246,10.683 27.378,10.275 27.378,9.739C27.378,9.203 27.246,8.793 26.982,8.509C26.718,8.225 26.39,8.083 25.998,8.083Z" style="fill:rgb(136,216,255);fill-rule:nonzero;"/>
        <rect x="30.294" y="4.207" width="2.052" height="8.88" style="fill:rgb(136,216,255);fill-rule:nonzero;"/>
        <rect x="33.402" y="4.207" width="2.052" height="8.88" style="fill:rgb(136,216,255);fill-rule:nonzero;"/>
        <path d="M38.442,7.651C38.698,7.243 39.028,6.919 39.432,6.679C39.836,6.439 40.274,6.319 40.746,6.319L40.746,8.515L40.158,8.515C39.614,8.515 39.192,8.631 38.892,8.863C38.592,9.095 38.442,9.487 38.442,10.039L38.442,13.087L36.39,13.087L36.39,6.391L38.442,6.391L38.442,7.651Z" style="fill:rgb(136,216,255);fill-rule:nonzero;"/>
        <path d="M44.034,6.307C44.546,6.307 44.986,6.423 45.354,6.655C45.722,6.887 45.994,7.203 46.17,7.603L46.17,6.391L48.21,6.391L48.21,13.087L46.17,13.087L46.17,11.875C45.994,12.275 45.722,12.591 45.354,12.823C44.986,13.055 44.546,13.171 44.034,13.171C43.482,13.171 42.988,13.033 42.552,12.757C42.116,12.481 41.772,12.083 41.52,11.563C41.268,11.043 41.142,10.435 41.142,9.739C41.142,9.035 41.268,8.425 41.52,7.909C41.772,7.393 42.116,6.997 42.552,6.721C42.988,6.445 43.482,6.307 44.034,6.307ZM44.694,8.107C44.254,8.107 43.9,8.251 43.632,8.539C43.364,8.827 43.23,9.227 43.23,9.739C43.23,10.251 43.364,10.651 43.632,10.939C43.9,11.227 44.254,11.371 44.694,11.371C45.126,11.371 45.48,11.223 45.756,10.927C46.032,10.631 46.17,10.235 46.17,9.739C46.17,9.235 46.032,8.837 45.756,8.545C45.48,8.253 45.126,8.107 44.694,8.107Z" style="fill:rgb(136,216,255);fill-rule:nonzero;"/>
        <path d="M53.298,11.323L53.298,13.087L52.374,13.087C51.59,13.087 50.98,12.893 50.544,12.505C50.108,12.117 49.89,11.475 49.89,10.579L49.89,8.119L48.99,8.119L48.99,6.391L49.89,6.391L49.89,4.747L51.942,4.747L51.942,6.391L53.286,6.391L53.286,8.119L51.942,8.119L51.942,10.615C51.942,10.879 51.996,11.063 52.104,11.167C52.212,11.271 52.394,11.323 52.65,11.323L53.298,11.323Z" style="fill:rgb(136,216,255);fill-rule:nonzero;"/>
        <path d="M58.458,6.319C59.226,6.319 59.836,6.575 60.288,7.087C60.74,7.599 60.966,8.303 60.966,9.199L60.966,13.087L58.914,13.087L58.914,9.439C58.914,8.991 58.796,8.641 58.56,8.389C58.324,8.137 58.01,8.011 57.618,8.011C57.202,8.011 56.872,8.143 56.628,8.407C56.384,8.671 56.262,9.047 56.262,9.535L56.262,13.087L54.21,13.087L54.21,4.207L56.262,4.207L56.262,7.615C56.454,7.215 56.74,6.899 57.12,6.667C57.5,6.435 57.946,6.319 58.458,6.319Z" style="fill:rgb(136,216,255);fill-rule:nonzero;"/>
    </g>
    <g transform="matrix(0.583168,0,0,0.583168,-6.43731,22.3019)">
        <path d="M18.978,11.083L20.43,6.391L22.614,6.391L20.238,13.087L17.694,13.087L15.318,6.391L17.502,6.391L18.978,11.083Z" style="fill:rgb(197,236,255);fill-rule:nonzero;"/>
        <path d="M25.998,6.307C26.662,6.307 27.256,6.445 27.78,6.721C28.304,6.997 28.716,7.395 29.016,7.915C29.316,8.435 29.466,9.043 29.466,9.739C29.466,10.435 29.316,11.043 29.016,11.563C28.716,12.083 28.304,12.481 27.78,12.757C27.256,13.033 26.662,13.171 25.998,13.171C25.334,13.171 24.738,13.033 24.21,12.757C23.682,12.481 23.268,12.083 22.968,11.563C22.668,11.043 22.518,10.435 22.518,9.739C22.518,9.043 22.668,8.435 22.968,7.915C23.268,7.395 23.682,6.997 24.21,6.721C24.738,6.445 25.334,6.307 25.998,6.307ZM25.998,8.083C25.606,8.083 25.276,8.225 25.008,8.509C24.74,8.793 24.606,9.203 24.606,9.739C24.606,10.275 24.74,10.683 25.008,10.963C25.276,11.243 25.606,11.383 25.998,11.383C26.39,11.383 26.718,11.243 26.982,10.963C27.246,10.683 27.378,10.275 27.378,9.739C27.378,9.203 27.246,8.793 26.982,8.509C26.718,8.225 26.39,8.083 25.998,8.083Z" style="fill:rgb(197,236,255);fill-rule:nonzero;"/>
        <rect x="30.294" y="4.207" width="2.052" height="8.88" style="fill:rgb(197,236,255);fill-rule:nonzero;"/>
        <rect x="33.402" y="4.207" width="2.052" height="8.88" style="fill:rgb(197,236,255);fill-rule:nonzero;"/>
        <path d="M38.442,7.651C38.698,7.243 39.028,6.919 39.432,6.679C39.836,6.439 40.274,6.319 40.746,6.319L40.746,8.515L40.158,8.515C39.614,8.515 39.192,8.631 38.892,8.863C38.592,9.095 38.442,9.487 38.442,10.039L38.442,13.087L36.39,13.087L36.39,6.391L38.442,6.391L38.442,7.651Z" style="fill:rgb(197,236,255);fill-rule:nonzero;"/>
        <path d="M44.034,6.307C44.546,6.307 44.986,6.423 45.354,6.655C45.722,6.887 45.994,7.203 46.17,7.603L46.17,6.391L48.21,6.391L48.21,13.087L46.17,13.087L46.17,11.875C45.994,12.275 45.722,12.591 45.354,12.823C44.986,13.055 44.546,13.171 44.034,13.171C43.482,13.171 42.988,13.033 42.552,12.757C42.116,12.481 41.772,12.083 41.52,11.563C41.268,11.043 41.142,10.435 41.142,9.739C41.142,9.035 41.268,8.425 41.52,7.909C41.772,7.393 42.116,6.997 42.552,6.721C42.988,6.445 43.482,6.307 44.034,6.307ZM44.694,8.107C44.254,8.107 43.9,8.251 43.632,8.539C43.364,8.827 43.23,9.227 43.23,9.739C43.23,10.251 43.364,10.651 43.632,10.939C43.9,11.227 44.254,11.371 44.694,11.371C45.126,11.371 45.48,11.223 45.756,10.927C46.032,10.631 46.17,10.235 46.17,9.739C46.17,9.235 46.032,8.837 45.756,8.545C45.48,8.253 45.126,8.107 44.694,8.107Z" style="fill:rgb(197,236,255);fill-rule:nonzero;"/>
        <path d="M53.298,11.323L53.298,13.087L52.374,13.087C51.59,13.087 50.98,12.893 50.544,12.505C50.108,12.117 49.89,11.475 49.89,10.579L49.89,8.119L48.99,8.119L48.99,6.391L49.89,6.391L49.89,4.747L51.942,4.747L51.942,6.391L53.286,6.391L53.286,8.119L51.942,8.119L51.942,10.615C51.942,10.879 51.996,11.063 52.104,11.167C52.212,11.271 52.394,11.323 52.65,11.323L53.298,11.323Z" style="fill:rgb(197,236,255);fill-rule:nonzero;"/>
        <path d="M58.458,6.319C59.226,6.319 59.836,6.575 60.288,7.087C60.74,7.599 60.966,8.303 60.966,9.199L60.966,13.087L58.914,13.087L58.914,9.439C58.914,8.991 58.796,8.641 58.56,8.389C58.324,8.137 58.01,8.011 57.618,8.011C57.202,8.011 56.872,8.143 56.628,8.407C56.384,8.671 56.262,9.047 56.262,9.535L56.262,13.087L54.21,13.087L54.21,4.207L56.262,4.207L56.262,7.615C56.454,7.215 56.74,6.899 57.12,6.667C57.5,6.435 57.946,6.319 58.458,6.319Z" style="fill:rgb(197,236,255);fill-rule:nonzero;"/>
    </g>
</svg>
