<?xml version="1.0" encoding="UTF-8"?>
<svg id="Layer_2" data-name="Layer 2" xmlns="http://www.w3.org/2000/svg" xmlns:xlink="http://www.w3.org/1999/xlink" viewBox="0 0 729.93 771.99">
  <defs>
    <style>
      .cls-1 {
        fill: none;
      }

      .cls-1, .cls-2 {
        stroke-width: 0px;
      }

      .cls-2 {
        fill: #fff;
      }

      .cls-3 {
        clip-path: url(#clippath);
      }
    </style>
    <clipPath id="clippath">
      <path class="cls-1" d="m414.57,593.45c-13.81-52.95-17.23-125.76-17.23-201.37s3.55-156.35,17.99-213.46c-16.46.56-33.27.85-50.36.85s-33.9-.29-50.36-.85c14.44,57.11,17.99,136.48,17.99,213.46s-3.42,148.42-17.23,201.37C137.57,599.41.55,636.92.55,682.31c0,49.53,163.16,89.68,364.42,89.68s364.42-40.15,364.42-89.68c0-45.39-137.02-82.9-314.82-88.86Z"/>
    </clipPath>
  </defs>
  <g id="Layer_1-2" data-name="Layer 1">
    <g>
      <g class="cls-3">
        <g>
          <g>
            <g>
              <path class="cls-2" d="m24.33,650.33c10.6,1.8,21.22,3.47,31.85,5.07,10.63,1.59,21.27,3.11,31.92,4.54,21.31,2.85,42.66,5.38,64.06,7.38,10.7,1,21.42,1.86,32.14,2.52,5.36.33,10.73.62,16.1.83,5.37.22,10.74.37,16.11.43,10.74.12,21.5-.06,32.2-1.03,5.34-.5,10.68-1.17,15.93-2.3,1.3-.31,2.62-.57,3.91-.95.64-.18,1.3-.34,1.94-.54l1.91-.62c2.52-.89,5-1.93,7.26-3.35l.21.33c-2.3,1.44-4.81,2.49-7.35,3.38l-1.92.62c-.65.19-1.3.36-1.95.54-1.29.38-2.62.64-3.93.95-5.27,1.12-10.62,1.79-15.97,2.28-10.72.96-21.49,1.12-32.23.98-5.38-.06-10.75-.23-16.12-.46-5.37-.22-10.74-.51-16.1-.85-10.73-.67-21.44-1.56-32.15-2.57-21.4-2.03-42.75-4.59-64.06-7.48-10.65-1.44-21.29-2.98-31.92-4.59-10.63-1.62-21.24-3.3-31.84-5.12Z"/>
              <path class="cls-2" d="m69.92,629.66c17.26,4.13,34.58,7.98,51.94,11.64,17.37,3.64,34.78,7.07,52.25,10.17,17.47,3.09,35,5.88,52.62,7.97,2.2.25,4.4.53,6.61.75l6.62.67,6.63.56c1.1.1,2.21.17,3.32.23l3.32.21c2.21.16,4.43.2,6.64.3,2.21.11,4.43.09,6.65.11h1.66c.55.02,1.11-.01,1.66-.03l3.32-.1c1.11-.01,2.21-.11,3.31-.2l3.31-.26.04.39-3.32.25c-1.11.08-2.22.18-3.33.19l-3.33.09c-.55.01-1.11.04-1.67.04l-1.67-.02c-2.22-.03-4.44,0-6.66-.13-2.22-.1-4.44-.14-6.65-.31l-3.32-.21c-1.11-.07-2.22-.14-3.32-.24l-6.63-.57-6.62-.68c-2.21-.23-4.41-.51-6.61-.76-17.62-2.13-35.15-4.95-52.62-8.07-17.47-3.13-34.87-6.6-52.23-10.27-17.36-3.69-34.67-7.57-51.92-11.73Z"/>
              <path class="cls-2" d="m128.77,614.06c12.57,4.33,25.21,8.46,37.88,12.49,12.67,4.03,25.39,7.91,38.16,11.6,6.38,1.88,12.79,3.62,19.2,5.4,6.43,1.68,12.84,3.43,19.31,4.96l4.84,1.18,1.21.3,1.22.27,2.43.54,4.87,1.08c1.62.35,3.24.74,4.87,1.04l9.79,1.88,9.85,1.51-.04.29-9.86-1.53-9.79-1.9c-1.64-.3-3.25-.69-4.88-1.05l-4.87-1.09-2.43-.55-1.22-.27-1.21-.3-4.84-1.19c-6.47-1.55-12.88-3.31-19.31-5-6.4-1.79-12.81-3.55-19.19-5.44-12.77-3.72-25.48-7.62-38.14-11.67-12.66-4.05-25.29-8.21-37.86-12.56Z"/>
              <path class="cls-2" d="m199.99,602.32c7.5,4.19,15.05,8.26,22.64,12.28,7.59,4.01,15.21,7.97,22.89,11.81,1.91.97,3.84,1.91,5.77,2.86,1.92.95,3.85,1.9,5.79,2.83l5.8,2.79,5.84,2.72c7.8,3.58,15.67,7.03,23.67,10.12l-.11.28c-8-3.12-15.86-6.6-23.66-10.2l-5.83-2.74-5.8-2.8c-1.94-.93-3.86-1.89-5.78-2.84-1.92-.96-3.85-1.9-5.76-2.88-7.67-3.86-15.28-7.84-22.86-11.88-7.57-4.04-15.12-8.14-22.6-12.35Z"/>
              <path class="cls-2" d="m269.06,595.77c5.51,5.72,11.1,11.35,16.75,16.92,2.82,2.79,5.67,5.55,8.54,8.3,2.86,2.75,5.76,5.46,8.67,8.16l-.13.14c-2.9-2.71-5.79-5.43-8.64-8.19-2.85-2.76-5.69-5.53-8.5-8.33-5.63-5.6-11.19-11.25-16.68-16.99Z"/>
              <polygon class="cls-2" points="364.97 592.68 365.02 651.52 364.92 651.52 364.96 592.68 364.97 592.68"/>
            </g>
            <g>
              <path class="cls-2" d="m705.6,650.33c-10.59,1.82-21.21,3.5-31.84,5.12-10.63,1.61-21.27,3.15-31.92,4.59-21.3,2.89-42.65,5.45-64.06,7.48-10.7,1.01-21.42,1.9-32.15,2.57-5.36.34-10.73.63-16.1.85-5.37.22-10.74.39-16.12.46-10.75.13-21.52-.03-32.23-.98-5.35-.49-10.7-1.16-15.97-2.28-1.31-.31-2.63-.57-3.93-.95-.65-.18-1.3-.34-1.95-.54l-1.92-.62c-2.54-.89-5.05-1.93-7.35-3.38l.21-.33c2.26,1.42,4.74,2.46,7.26,3.35l1.91.62c.64.19,1.29.36,1.94.54,1.29.38,2.6.64,3.91.95,5.25,1.13,10.58,1.8,15.93,2.3,10.7.97,21.46,1.15,32.2,1.03,5.37-.06,10.74-.21,16.11-.43,5.37-.21,10.74-.49,16.1-.83,10.73-.66,21.44-1.53,32.14-2.52,21.4-2,42.76-4.53,64.06-7.38,10.65-1.43,21.3-2.94,31.92-4.54,10.63-1.6,21.25-3.27,31.85-5.07Z"/>
              <path class="cls-2" d="m660.02,629.66c-17.25,4.17-34.57,8.04-51.92,11.73-17.36,3.67-34.76,7.14-52.23,10.27-17.47,3.12-35,5.94-52.62,8.07-2.2.25-4.4.54-6.61.76l-6.62.68-6.63.57c-1.1.1-2.21.17-3.32.24l-3.32.21c-2.21.17-4.43.21-6.65.31-2.22.12-4.44.1-6.66.13l-1.67.02c-.55,0-1.11-.03-1.67-.04l-3.33-.09c-1.11,0-2.22-.11-3.33-.19l-3.32-.25.04-.39,3.31.26c1.1.09,2.21.19,3.31.2l3.32.1c.55.01,1.11.04,1.66.04h1.66c2.22-.04,4.43-.01,6.65-.13,2.21-.1,4.43-.13,6.64-.3l3.32-.21c1.11-.07,2.21-.13,3.32-.23l6.63-.56,6.62-.67c2.21-.22,4.41-.5,6.61-.75,17.62-2.09,35.15-4.88,52.62-7.97,17.47-3.1,34.88-6.53,52.25-10.17,17.36-3.66,34.69-7.5,51.94-11.64Z"/>
              <path class="cls-2" d="m601.16,614.06c-12.56,4.35-25.19,8.51-37.86,12.56-12.66,4.05-25.37,7.96-38.14,11.67-6.37,1.89-12.79,3.65-19.19,5.44-6.43,1.69-12.84,3.45-19.31,5l-4.84,1.19-1.21.3-1.22.27-2.43.55-4.87,1.09c-1.62.36-3.24.75-4.88,1.05l-9.79,1.9-9.86,1.53-.04-.29,9.85-1.51,9.79-1.88c1.64-.29,3.25-.69,4.87-1.04l4.87-1.08,2.43-.54,1.22-.27,1.21-.3,4.84-1.18c6.47-1.53,12.88-3.28,19.31-4.96,6.4-1.78,12.82-3.52,19.2-5.4,12.77-3.69,25.49-7.57,38.16-11.6,12.67-4.03,25.31-8.16,37.88-12.49Z"/>
              <path class="cls-2" d="m529.94,602.32c-7.48,4.21-15.03,8.31-22.6,12.35-7.58,4.03-15.19,8.02-22.86,11.88-1.91.98-3.84,1.92-5.76,2.88-1.92.96-3.84,1.92-5.78,2.84l-5.8,2.8-5.83,2.74c-7.8,3.6-15.65,7.08-23.66,10.2l-.11-.28c8-3.1,15.87-6.55,23.67-10.12l5.84-2.72,5.8-2.79c1.94-.92,3.86-1.88,5.79-2.83,1.92-.95,3.85-1.89,5.77-2.86,7.68-3.84,15.3-7.8,22.89-11.81,7.59-4.02,15.14-8.1,22.64-12.28Z"/>
              <path class="cls-2" d="m460.88,595.77c-5.48,5.74-11.05,11.4-16.68,16.99-2.81,2.8-5.65,5.57-8.5,8.33-2.85,2.76-5.74,5.48-8.64,8.19l-.13-.14c2.91-2.7,5.81-5.41,8.67-8.16,2.86-2.75,5.71-5.51,8.54-8.3,5.65-5.57,11.24-11.21,16.75-16.92Z"/>
              <polygon class="cls-2" points="364.97 592.68 365.02 651.52 364.92 651.52 364.96 592.68 364.97 592.68"/>
            </g>
          </g>
          <g>
            <g>
              <path class="cls-2" d="m326.1,243.04c-1.35-11.83-2.96-23.63-5-35.36-2.04-11.73-4.5-23.4-7.64-34.9-.66-2.42-1.36-4.84-2.08-7.24h-.79c.75,2.47,1.46,4.95,2.15,7.44,3.13,11.47,5.6,23.11,7.67,34.82,2.07,11.71,3.7,23.5,5.07,35.32,2.72,23.64,4.34,47.39,5.38,71.17,1.03,23.78,1.47,47.58,1.55,71.37.08,23.8-.14,47.6-.98,71.39-.85,23.78-2.28,47.55-4.85,71.22-1.3,11.83-2.89,23.63-4.93,35.35-2.04,11.72-4.53,23.37-7.73,34.83-1.6,5.73-3.39,11.41-5.43,17-2.04,5.58-4.29,11.1-6.92,16.44l-.99,2c-.33.66-.69,1.32-1.03,1.98-.68,1.32-1.43,2.61-2.15,3.91-.37.65-.76,1.28-1.14,1.92-.38.64-.76,1.28-1.17,1.9l-1.2,1.88-1.26,1.84c-1.7,2.44-3.49,4.82-5.43,7.07-1.94,2.25-3.97,4.43-6.18,6.42-2.2,2-4.52,3.87-6.96,5.56-2.45,1.69-4.99,3.23-7.61,4.65-2.61,1.43-5.31,2.68-8.05,3.84-1.36.59-2.76,1.12-4.14,1.65-1.4.5-2.79,1.02-4.21,1.47-11.31,3.72-23.08,5.83-34.9,7.17-11.83,1.33-23.73,1.87-35.63,2.01-11.9.14-23.8-.13-35.69-.61-11.89-.48-23.77-1.17-35.65-1.97-11.87-.8-23.74-1.7-35.6-2.64l-71.17-5.83,71.16,5.86c11.86.95,23.73,1.86,35.6,2.66,11.87.8,23.76,1.5,35.65,1.99,11.89.48,23.79.76,35.69.63,11.9-.13,23.8-.67,35.64-1.99,11.82-1.33,23.6-3.44,34.92-7.16,1.42-.45,2.81-.97,4.22-1.47,1.39-.54,2.78-1.06,4.15-1.65,2.74-1.16,5.44-2.42,8.06-3.84,2.62-1.42,5.17-2.96,7.62-4.65,2.45-1.69,4.78-3.56,6.98-5.56,2.21-1.99,4.26-4.17,6.2-6.43,1.95-2.25,3.74-4.63,5.45-7.07l1.26-1.84,1.2-1.88c.41-.62.79-1.26,1.17-1.9.38-.64.77-1.27,1.14-1.92.72-1.3,1.48-2.59,2.15-3.91.34-.66.7-1.31,1.04-1.98l.99-2c2.63-5.34,4.88-10.86,6.93-16.45,2.04-5.59,3.84-11.27,5.44-17,3.21-11.47,5.7-23.12,7.75-34.85,2.04-11.73,3.65-23.53,4.95-35.36,2.58-23.67,4.03-47.44,4.88-71.23.85-23.79,1.14-47.59,1.1-71.4-.04-23.8-.43-47.61-1.42-71.39-1-23.78-2.57-47.55-5.25-71.22Z"/>
              <path class="cls-2" d="m334.48,326.41c-.63-23.49-1.63-46.98-3.36-70.42-.88-11.72-1.93-23.43-3.43-35.1-.74-5.84-1.62-11.64-2.54-17.45-.93-5.8-1.92-11.6-3.03-17.37-1.33-6.88-2.79-13.73-4.49-20.53h-1c1.72,6.85,3.2,13.77,4.54,20.72,1.1,5.76,2.11,11.55,3.05,17.34.93,5.8,1.81,11.6,2.57,17.42,1.52,11.64,2.6,23.33,3.49,35.04,1.77,23.42,2.82,46.89,3.5,70.38.35,11.74.56,23.49.72,35.23.15,11.75.18,23.49.16,35.24-.05,11.75-.17,23.49-.39,35.24-.24,11.74-.55,23.49-1,35.22-.93,23.47-2.21,46.94-4.62,70.31-.6,5.84-1.3,11.67-2.11,17.49-.81,5.82-1.7,11.62-2.63,17.42-1.89,11.59-4.04,23.15-6.87,34.54-1.42,5.7-3.02,11.35-4.89,16.91-1.87,5.56-4.02,11.03-6.59,16.31-2.57,5.27-5.58,10.34-9.19,14.97-.91,1.15-1.85,2.28-2.82,3.37-.98,1.09-2,2.14-3.06,3.15-1.05,1.02-2.17,1.97-3.3,2.91-1.11.96-2.28,1.84-3.43,2.76-9.33,7.13-19.83,12.64-30.8,16.81-10.98,4.17-22.4,7.11-33.93,9.27-11.54,2.17-23.22,3.61-34.92,4.63-11.7,1.02-23.44,1.62-35.18,2.01-23.48.76-46.98.7-70.48.57-23.5-.14-46.99-.38-70.49-.37,23.5,0,46.99.27,70.49.43,23.49.15,47,.24,70.48-.51,11.74-.38,23.48-.97,35.19-1.98,11.7-1.01,23.38-2.44,34.94-4.6,11.55-2.16,22.98-5.08,33.98-9.25,10.99-4.16,21.52-9.67,30.87-16.81,1.15-.92,2.33-1.8,3.44-2.76,1.13-.94,2.25-1.89,3.31-2.92,1.06-1.02,2.09-2.07,3.08-3.16.98-1.1,1.93-2.22,2.84-3.38,3.63-4.64,6.65-9.72,9.23-15.01,2.58-5.29,4.74-10.77,6.62-16.34,1.88-5.57,3.48-11.23,4.91-16.93,2.85-11.41,5.01-22.97,6.91-34.56.94-5.8,1.83-11.61,2.65-17.43.81-5.82,1.52-11.65,2.12-17.5,2.43-23.38,3.73-46.86,4.69-70.33.46-11.74.78-23.49,1.05-35.23.25-11.75.39-23.5.46-35.24.04-11.75.03-23.5-.09-35.25-.13-11.75-.32-23.5-.64-35.24Z"/>
              <path class="cls-2" d="m335.28,255.88l-.24-4.18-.12-2.09-.15-2.09c-.41-5.57-.78-11.14-1.21-16.71-.51-5.56-.99-11.13-1.54-16.69-.57-5.56-1.2-11.11-1.87-16.66-1.33-10.67-2.83-21.33-4.85-31.91h-1.21c2.04,10.61,3.54,21.33,4.89,32.06.68,5.54,1.32,11.08,1.9,16.63.56,5.55,1.04,11.11,1.56,16.66.44,5.56.83,11.13,1.24,16.69l.15,2.09.12,2.09.24,4.18.49,8.36c2.4,44.59,3.27,89.26,3.2,133.91v8.37s-.09,8.37-.09,8.37c-.06,5.58-.09,11.16-.18,16.75-.22,11.16-.39,22.33-.77,33.48-.28,11.16-.81,22.31-1.28,33.47l-.93,16.72c-.08,1.39-.15,2.79-.24,4.18l-.3,4.18-.6,8.35-.3,4.18-.15,2.09-.19,2.08-.77,8.34-.78,8.34-.89,8.33c-1.2,11.1-2.47,22.19-4.19,33.22l-.7,4.13-.35,2.06-.39,2.05-.79,4.11-.9,4.09-.45,2.04-.52,2.03c-.35,1.35-.67,2.71-1.05,4.05l-1.18,4.01c-.1.33-.19.67-.3,1l-.34.99-.67,1.98c-1.83,5.26-3.94,10.44-6.65,15.31-.62,1.25-1.37,2.42-2.09,3.61l-1.09,1.78c-.36.6-.78,1.15-1.17,1.73l-2.39,3.43-.6.86-.64.82-1.29,1.65-1.29,1.65c-.44.54-.84,1.11-1.32,1.62l-2.76,3.14c-.47.52-.91,1.06-1.39,1.56l-1.47,1.49-2.94,2.97-3.11,2.79-1.56,1.4c-.53.45-1.09.87-1.63,1.31l-3.27,2.61c-1.11.84-2.27,1.62-3.4,2.43-2.24,1.67-4.65,3.07-7,4.57-.58.38-1.19.72-1.8,1.06l-1.83,1.02-1.83,1.02-.91.51c-.31.17-.62.31-.93.47l-3.75,1.85c-.63.3-1.24.64-1.88.91l-1.92.84-3.83,1.68c-1.29.52-2.6,1.01-3.9,1.52-10.42,4.01-21.19,7.04-32.08,9.48-10.9,2.43-21.9,4.34-32.95,5.93-11.05,1.6-22.14,2.91-33.24,4.11-11.1,1.2-22.22,2.26-33.34,3.29-22.24,2.05-44.49,3.98-66.72,6.11,22.23-2.11,44.48-4,66.73-6.02,11.12-1.01,22.24-2.06,33.34-3.24,11.1-1.18,22.2-2.48,33.25-4.07,11.05-1.58,22.07-3.47,32.98-5.89,10.9-2.43,21.69-5.45,32.12-9.45,1.3-.51,2.61-1,3.91-1.52l3.84-1.68,1.92-.84c.64-.27,1.26-.61,1.89-.91l3.76-1.85c.31-.16.63-.3.94-.47l.92-.51,1.83-1.02,1.83-1.02c.61-.34,1.22-.67,1.81-1.06,2.36-1.5,4.78-2.91,7.02-4.58,1.14-.81,2.3-1.6,3.41-2.44l3.28-2.61c.54-.44,1.1-.86,1.63-1.31l1.56-1.4,3.12-2.8,2.95-2.98,1.48-1.49c.49-.5.93-1.04,1.4-1.56l2.77-3.15c.48-.51.88-1.08,1.32-1.63l1.29-1.65,1.29-1.65.65-.82.6-.86,2.4-3.44c.39-.58.82-1.13,1.18-1.73l1.1-1.79c.73-1.19,1.49-2.37,2.11-3.63,2.73-4.89,4.86-10.09,6.7-15.36l.68-1.98.34-.99c.11-.33.2-.67.3-1l1.19-4.02c.39-1.34.7-2.7,1.06-4.06l.52-2.03.46-2.04.91-4.09.8-4.11.39-2.06.35-2.07.7-4.13c1.74-11.04,3.02-22.14,4.23-33.24l.9-8.33.8-8.34.79-8.34.19-2.09.15-2.09.31-4.18.61-8.35.31-4.18c.1-1.39.16-2.79.25-4.18l.95-16.73c.48-11.16,1.03-22.31,1.32-33.48.4-11.16.58-22.33.83-33.49.1-5.58.14-11.17.22-16.75l.1-8.38.03-8.38c.17-44.67-.59-89.35-2.89-133.97l-.47-8.36Z"/>
              <path class="cls-2" d="m341.19,281c-.24-10.05-.47-20.1-.78-30.14l-.44-15.07-.49-15.07c-.31-10.04-.75-20.11-1.63-30.14-.42-5.02-.96-10.02-1.6-15.02-.43-3.35-.92-6.69-1.48-10.02h-1.5c.57,3.39,1.07,6.8,1.5,10.21.63,4.97,1.17,9.96,1.58,14.96.88,9.99,1.32,20.02,1.64,30.06.69,20.08,1.25,40.17,1.75,60.26.46,20.09.83,40.18,1.04,60.28.19,20.09.28,40.19.21,60.28-.09,20.1-.29,40.19-.61,60.28-.34,20.09-.75,40.19-1.29,60.28l-.41,15.07c-.15,5.02-.27,10.05-.44,15.06-.37,10.03-.9,20.07-1.84,30.06-.44,5-1.03,9.98-1.69,14.96-.68,4.97-1.48,9.93-2.42,14.85-.95,4.93-2.08,9.82-3.38,14.66-1.3,4.84-2.81,9.63-4.59,14.31-3.53,9.37-8.1,18.38-13.9,26.56-5.77,8.19-12.76,15.5-20.56,21.81-7.8,6.3-16.37,11.61-25.26,16.26-4.46,2.31-9,4.44-13.6,6.45-4.6,2.02-9.27,3.85-13.97,5.63-9.41,3.51-18.96,6.65-28.59,9.5-9.63,2.86-19.33,5.49-29.07,7.97-19.48,4.94-39.1,9.32-58.75,13.54,19.66-4.15,39.3-8.47,58.8-13.34,9.75-2.44,19.46-5.03,29.11-7.87,9.65-2.82,19.22-5.92,28.65-9.41,4.7-1.77,9.39-3.6,14-5.61,4.61-2.01,9.17-4.13,13.65-6.43,8.92-4.64,17.54-9.94,25.39-16.26,7.84-6.31,14.89-13.65,20.72-21.88,5.85-8.22,10.46-17.27,14.04-26.68,1.8-4.71,3.33-9.51,4.65-14.37,1.32-4.86,2.46-9.76,3.43-14.7.95-4.94,1.77-9.91,2.46-14.89.66-4.99,1.27-9.98,1.72-14.99.97-10.01,1.52-20.06,1.92-30.11.18-5.02.31-10.05.47-15.07l.44-15.07c.58-20.09,1.04-40.19,1.43-60.28.38-20.1.6-40.2.73-60.3.11-20.1.06-40.2-.1-60.3-.17-20.1-.51-40.2-.93-60.3Z"/>
              <path class="cls-2" d="m346.42,191.04c-.32-8.51-.82-17.02-1.69-25.5h-1.72c.85,8.49,1.34,17.03,1.64,25.57.32,9.16.41,18.33.41,27.51v27.55s.02,55.09.02,55.09l.1,110.18.15,110.18.04,27.55c.01,4.59.01,9.18,0,13.77l-.08,6.88c-.05,2.29-.08,4.59-.15,6.88-.26,9.17-.71,18.34-1.52,27.47-.4,4.57-.91,9.12-1.5,13.67-.62,4.54-1.33,9.07-2.19,13.57-.88,4.5-1.89,8.97-3.08,13.39-1.19,4.42-2.6,8.78-4.22,13.06-3.23,8.56-7.41,16.78-12.68,24.26-5.26,7.49-11.57,14.22-18.59,20.1-7.02,5.89-14.7,10.96-22.65,15.52-7.97,4.53-16.22,8.57-24.61,12.3-8.38,3.74-16.9,7.17-25.46,10.47-17.14,6.58-34.49,12.62-51.84,18.62,17.38-5.92,34.76-11.87,51.94-18.37,8.59-3.26,17.12-6.65,25.53-10.35,8.41-3.69,16.7-7.69,24.71-12.21,7.99-4.54,15.71-9.61,22.79-15.51,7.08-5.89,13.46-12.64,18.77-20.17,5.33-7.52,9.57-15.79,12.85-24.39,1.64-4.3,3.07-8.69,4.28-13.13,1.21-4.44,2.24-8.93,3.14-13.44.89-4.52,1.6-9.06,2.24-13.61.61-4.56,1.13-9.13,1.54-13.71.84-9.16,1.32-18.34,1.61-27.53.08-2.3.11-4.59.18-6.89l.1-6.89c.03-4.6.05-9.19.05-13.78l.04-27.55.15-110.18.1-110.18.02-55.09v-27.55c0-9.19-.08-18.38-.43-27.57Z"/>
              <path class="cls-2" d="m351.51,165.54h-1.83c.11,2.73.2,5.46.29,8.19.49,16.44.54,32.89.55,49.35l.32,197.51.15,98.76.04,24.69c0,8.23.06,16.46-.05,24.68-.2,16.45-.8,32.9-1.9,49.32-.14,2.05-.28,4.1-.45,6.15l-.55,6.14-.7,6.13-.86,6.1c-1.27,8.12-2.98,16.18-5.34,24.05-2.36,7.87-5.36,15.55-9.08,22.89-3.72,7.33-8.12,14.32-13.22,20.76-5.1,6.45-10.82,12.4-16.98,17.85-6.16,5.45-12.75,10.41-19.6,14.96-13.72,9.1-28.42,16.62-43.41,23.41,15-6.75,29.73-14.23,43.49-23.29,6.87-4.53,13.48-9.47,19.67-14.91,6.18-5.44,11.93-11.38,17.06-17.83,5.13-6.45,9.57-13.44,13.32-20.78,3.75-7.34,6.78-15.04,9.17-22.92,4.77-15.8,7.01-32.24,8.07-48.66,1.16-16.43,1.8-32.88,2.05-49.35.13-8.23.1-16.47.12-24.69l.04-24.69.15-98.76.32-197.51c.04-16.46-.02-32.93-.54-49.4-.09-2.71-.18-5.42-.3-8.13Z"/>
              <path class="cls-2" d="m331.63,165.54c-1.32,4.46-2.58,8.94-3.72,13.45,1.48-4.49,3-8.98,4.54-13.45h-.82Z"/>
              <path class="cls-2" d="m358.74,165.54h-2.11c.03,3.73.06,7.46.08,11.19.13,42.22.02,84.45.11,126.68l.19,126.69.13,63.34.07,31.67.03,15.84.02,7.92v3.96s.01,1.98.01,1.98v.99s0,.49,0,.49v.19c-.42,0-.29.03,0,.05h0s-.02.02,0,.03c.02,9.52.03,19.05,0,28.57-.04,9.59-.11,19.18-.36,28.76-.24,9.58-.76,19.15-1.29,28.73-.14,2.39-.25,4.79-.4,7.18l-.23,3.58-.29,3.58c-.43,4.77-.94,9.53-1.65,14.27-.71,4.73-1.55,9.45-2.55,14.13-1.03,4.68-2.22,9.31-3.59,13.9-1.36,4.59-2.93,9.12-4.7,13.57-1.77,4.45-3.73,8.82-5.9,13.09-4.35,8.53-9.57,16.62-15.53,24.12-5.97,7.5-12.73,14.35-20.02,20.58,7.33-6.18,14.15-12.99,20.18-20.46,6.02-7.47,11.31-15.54,15.73-24.07,2.21-4.27,4.21-8.64,6.01-13.09,1.81-4.45,3.41-8.98,4.81-13.58,1.4-4.59,2.61-9.24,3.67-13.93,1.03-4.69,1.9-9.42,2.62-14.16.73-4.75,1.27-9.52,1.72-14.3l.31-3.59.25-3.59c.17-2.4.29-4.79.44-7.18.57-9.57,1.13-19.15,1.41-28.75.29-9.59.4-19.19.48-28.78.07-9.52.1-19.05.13-28.57.02,0,.03,0,0-.02h0c.29-.03.42-.05,0-.06v-.19s0-.49,0-.49v-.99s0-1.98,0-1.98v-3.96s.03-7.92.03-7.92l.03-15.84.07-31.67.13-63.34.19-126.69.04-63.34v-31.67c0-10.56-.05-21.12-.13-31.68-.03-3.73-.07-7.45-.11-11.18Z"/>
              <polygon class="cls-2" points="365.72 280.57 365.45 198.67 365.27 165.54 364.66 165.54 364.49 198.67 364.21 280.57 364.04 362.48 363.98 444.38 364.04 526.28 364.21 608.18 364.49 690.09 364.71 731.04 364.97 771.99 365.23 731.04 365.45 690.09 365.72 608.18 365.9 526.28 365.95 444.38 365.9 362.48 365.72 280.57"/>
            </g>
            <g>
              <path class="cls-2" d="m621.74,684.53c-11.87.8-23.76,1.49-35.65,1.97-11.89.48-23.79.75-35.69.61-11.9-.14-23.8-.68-35.63-2.01-11.81-1.34-23.59-3.45-34.9-7.17-1.42-.45-2.81-.97-4.21-1.47-1.39-.54-2.78-1.06-4.14-1.65-2.74-1.16-5.44-2.41-8.05-3.84-2.61-1.42-5.16-2.96-7.61-4.65-2.45-1.69-4.77-3.56-6.96-5.56-2.21-1.99-4.25-4.16-6.18-6.42-1.95-2.25-3.73-4.63-5.43-7.07l-1.26-1.84-1.2-1.88c-.41-.62-.79-1.26-1.17-1.9-.38-.64-.77-1.27-1.14-1.92-.72-1.3-1.47-2.58-2.15-3.91-.34-.66-.7-1.31-1.03-1.98l-.99-2c-2.63-5.34-4.87-10.85-6.92-16.44-2.04-5.59-3.83-11.27-5.43-17-3.2-11.46-5.68-23.11-7.73-34.83-2.04-11.72-3.63-23.52-4.93-35.35-2.57-23.66-4-47.43-4.85-71.22-.84-23.79-1.06-47.59-.98-71.39.09-23.8.52-47.6,1.55-71.37,1.04-23.77,2.66-47.53,5.38-71.17,1.37-11.82,3-23.6,5.07-35.32,2.07-11.71,4.54-23.35,7.67-34.82.68-2.49,1.4-4.97,2.15-7.44h-.79c-.73,2.4-1.42,4.82-2.08,7.24-3.14,11.5-5.59,23.17-7.64,34.9-2.05,11.73-3.66,23.54-5,35.36-2.67,23.66-4.25,47.43-5.25,71.22-.99,23.79-1.38,47.59-1.42,71.39-.04,23.8.25,47.61,1.1,71.4.86,23.79,2.3,47.56,4.88,71.23,1.3,11.83,2.9,23.63,4.95,35.36,2.05,11.72,4.54,23.38,7.75,34.85,1.6,5.73,3.4,11.41,5.44,17,2.05,5.59,4.3,11.11,6.93,16.45l.99,2c.33.66.69,1.32,1.04,1.98.68,1.33,1.43,2.61,2.15,3.91.37.65.76,1.28,1.14,1.92.38.64.76,1.28,1.17,1.9l1.2,1.88,1.26,1.84c1.71,2.44,3.49,4.83,5.45,7.07,1.94,2.25,3.98,4.43,6.2,6.43,2.2,2,4.53,3.88,6.98,5.56,2.45,1.69,5,3.24,7.62,4.65,2.61,1.43,5.32,2.68,8.06,3.84,1.37.59,2.76,1.12,4.15,1.65,1.4.5,2.8,1.02,4.22,1.47,11.32,3.72,23.1,5.83,34.92,7.16,11.83,1.32,23.74,1.86,35.64,1.99,11.9.13,23.8-.14,35.69-.63,11.89-.48,23.77-1.18,35.65-1.99,11.87-.8,23.74-1.71,35.6-2.66l71.16-5.86-71.17,5.83c-11.86.94-23.73,1.85-35.6,2.64Z"/>
              <path class="cls-2" d="m651.48,700.79c-23.49.13-47,.19-70.48-.57-11.74-.39-23.48-.99-35.18-2.01-11.7-1.02-23.37-2.46-34.91-4.63-11.54-2.17-22.96-5.1-33.93-9.27-10.97-4.16-21.47-9.67-30.8-16.81-1.14-.92-2.32-1.8-3.43-2.76-1.13-.94-2.24-1.89-3.3-2.91-1.06-1.01-2.08-2.07-3.06-3.15-.98-1.09-1.92-2.22-2.82-3.37-3.61-4.62-6.62-9.7-9.19-14.97-2.57-5.27-4.72-10.75-6.59-16.31-1.87-5.56-3.47-11.22-4.89-16.91-2.83-11.4-4.98-22.95-6.87-34.54-.94-5.8-1.82-11.6-2.63-17.42-.8-5.82-1.51-11.65-2.11-17.49-2.41-23.37-3.69-46.84-4.62-70.31-.45-11.74-.77-23.48-1-35.22-.22-11.74-.34-23.49-.39-35.24-.02-11.75.02-23.49.16-35.24.16-11.75.37-23.49.72-35.23.68-23.48,1.73-46.96,3.5-70.38.9-11.71,1.97-23.4,3.49-35.04.75-5.82,1.64-11.62,2.57-17.42.93-5.79,1.94-11.58,3.05-17.34,1.34-6.94,2.82-13.86,4.54-20.72h-1c-1.7,6.8-3.16,13.66-4.49,20.53-1.11,5.77-2.1,11.57-3.03,17.37-.92,5.81-1.79,11.62-2.54,17.45-1.5,11.66-2.56,23.38-3.43,35.1-1.73,23.44-2.72,46.93-3.36,70.42-.32,11.75-.51,23.49-.64,35.24-.12,11.75-.14,23.5-.09,35.25.08,11.75.21,23.5.46,35.24.27,11.75.58,23.49,1.05,35.23.95,23.48,2.25,46.95,4.69,70.33.61,5.84,1.31,11.68,2.12,17.5.81,5.82,1.71,11.63,2.65,17.43,1.9,11.59,4.06,23.16,6.91,34.56,1.43,5.7,3.03,11.36,4.91,16.93,1.88,5.57,4.04,11.05,6.62,16.34,2.58,5.28,5.6,10.37,9.23,15.01.91,1.16,1.86,2.28,2.84,3.38.99,1.09,2.01,2.15,3.08,3.16,1.06,1.02,2.18,1.98,3.31,2.92,1.11.96,2.29,1.85,3.44,2.76,9.36,7.14,19.89,12.65,30.87,16.81,11,4.17,22.43,7.09,33.98,9.25,11.55,2.16,23.23,3.59,34.94,4.6,11.71,1.01,23.45,1.6,35.19,1.98,23.49.74,46.99.65,70.48.51,23.5-.17,46.99-.42,70.49-.43-23.5-.01-46.99.22-70.49.37Z"/>
              <path class="cls-2" d="m612.59,721.61c-11.12-1.03-22.23-2.08-33.34-3.29-11.1-1.2-22.19-2.51-33.24-4.11-11.05-1.6-22.06-3.5-32.95-5.93-10.89-2.44-21.66-5.48-32.08-9.48-1.3-.51-2.6-1-3.9-1.52l-3.83-1.68-1.92-.84c-.64-.27-1.25-.61-1.88-.91l-3.75-1.85c-.31-.16-.63-.3-.93-.47l-.91-.51-1.83-1.02-1.83-1.02c-.61-.34-1.22-.67-1.8-1.06-2.35-1.5-4.76-2.9-7-4.57-1.13-.81-2.29-1.6-3.4-2.43l-3.27-2.61c-.54-.44-1.1-.86-1.63-1.31l-1.56-1.4-3.11-2.79-2.94-2.97-1.47-1.49c-.48-.5-.93-1.04-1.39-1.56l-2.76-3.14c-.47-.51-.88-1.08-1.32-1.62l-1.29-1.65-1.29-1.65-.64-.82-.6-.86-2.39-3.43c-.39-.58-.82-1.13-1.17-1.73l-1.09-1.78c-.72-1.19-1.48-2.36-2.1-3.61-2.71-4.87-4.83-10.05-6.65-15.31l-.67-1.98-.34-.99c-.11-.33-.2-.67-.3-1l-1.18-4.01c-.38-1.34-.7-2.7-1.05-4.05l-.52-2.03-.45-2.04-.9-4.09-.79-4.11-.39-2.05-.35-2.06-.7-4.13c-1.72-11.03-2.99-22.12-4.19-33.22l-.89-8.33-.78-8.34-.77-8.34-.19-2.08-.15-2.09-.3-4.18-.6-8.35-.3-4.18c-.09-1.39-.16-2.79-.24-4.18l-.93-16.72c-.46-11.15-1-22.31-1.28-33.47-.39-11.16-.56-22.32-.77-33.48-.09-5.58-.12-11.16-.18-16.75l-.08-8.37v-8.37c-.08-44.66.79-89.33,3.19-133.91l.49-8.36.24-4.18.12-2.09.15-2.09c.42-5.56.8-11.13,1.24-16.69.52-5.55,1-11.11,1.56-16.66.58-5.55,1.22-11.09,1.9-16.63,1.35-10.73,2.85-21.45,4.89-32.06h-1.21c-2.02,10.58-3.53,21.24-4.85,31.91-.67,5.55-1.3,11.1-1.87,16.66-.55,5.56-1.02,11.13-1.54,16.69-.43,5.57-.81,11.14-1.21,16.71l-.15,2.09-.12,2.09-.24,4.18-.47,8.36c-2.3,44.62-3.07,89.3-2.89,133.97l.03,8.38.1,8.38c.07,5.58.12,11.17.22,16.75.25,11.17.43,22.33.83,33.49.29,11.16.84,22.32,1.32,33.48l.95,16.73c.08,1.39.15,2.79.25,4.18l.31,4.18.61,8.35.31,4.18.15,2.09.19,2.09.79,8.34.8,8.34.9,8.33c1.22,11.1,2.5,22.2,4.23,33.24l.7,4.13.35,2.07.39,2.06.8,4.11.91,4.09.46,2.04.52,2.03c.36,1.35.67,2.71,1.06,4.06l1.19,4.02c.1.33.19.67.3,1l.34.99.68,1.98c1.84,5.28,3.97,10.47,6.7,15.36.62,1.25,1.38,2.43,2.11,3.63l1.1,1.79c.36.6.79,1.15,1.18,1.73l2.4,3.44.6.86.65.82,1.29,1.65,1.29,1.65c.44.54.84,1.11,1.32,1.63l2.77,3.15c.47.52.91,1.06,1.4,1.56l1.48,1.49,2.95,2.98,3.12,2.8,1.56,1.4c.53.45,1.09.87,1.63,1.31l3.28,2.61c1.12.84,2.28,1.62,3.41,2.44,2.24,1.67,4.67,3.07,7.02,4.58.58.38,1.2.72,1.81,1.06l1.83,1.02,2.75,1.53c.31.17.62.31.94.47l3.76,1.85c.63.3,1.24.64,1.89.91l1.92.84,3.84,1.68c1.3.52,2.6,1.01,3.91,1.52,10.44,4,21.22,7.02,32.12,9.45,10.91,2.42,21.92,4.31,32.98,5.89,11.06,1.58,22.15,2.88,33.25,4.07,11.1,1.19,22.22,2.23,33.34,3.24,22.24,2.02,44.49,3.92,66.73,6.02-22.23-2.13-44.48-4.06-66.72-6.11Z"/>
              <path class="cls-2" d="m550.58,735.3c-9.74-2.47-19.44-5.1-29.07-7.97-9.63-2.85-19.18-5.99-28.59-9.5-4.69-1.78-9.37-3.62-13.97-5.63-4.6-2.01-9.15-4.14-13.6-6.45-8.89-4.65-17.46-9.96-25.26-16.26-7.79-6.3-14.78-13.61-20.56-21.81-5.79-8.18-10.36-17.19-13.9-26.56-1.78-4.69-3.29-9.47-4.59-14.31-1.3-4.84-2.43-9.73-3.38-14.66-.94-4.93-1.74-9.88-2.42-14.85-.65-4.98-1.24-9.96-1.69-14.96-.94-9.99-1.47-20.03-1.84-30.06-.17-5.02-.29-10.04-.44-15.06l-.41-15.07c-.54-20.09-.94-40.18-1.29-60.28-.32-20.09-.52-40.19-.61-60.28-.07-20.1.01-40.19.21-60.28.21-20.09.58-40.19,1.04-60.28.5-20.09,1.05-40.18,1.75-60.26.32-10.04.76-20.06,1.64-30.06.41-5,.94-9.99,1.58-14.96.43-3.41.93-6.82,1.5-10.21h-1.5c-.56,3.33-1.05,6.67-1.48,10.02-.64,5-1.19,10-1.6,15.02-.88,10.03-1.32,20.09-1.63,30.14l-.49,15.07-.44,15.07c-.31,10.05-.53,20.09-.78,30.14-.42,20.1-.76,40.2-.93,60.3-.16,20.1-.21,40.2-.1,60.3.13,20.1.35,40.2.73,60.3.39,20.1.84,40.19,1.43,60.28l.44,15.07c.16,5.02.29,10.04.47,15.07.39,10.05.95,20.09,1.92,30.11.45,5.01,1.06,10,1.72,14.99.69,4.98,1.51,9.95,2.46,14.89.97,4.94,2.11,9.85,3.43,14.7,1.32,4.86,2.85,9.66,4.65,14.37,3.57,9.41,8.19,18.46,14.04,26.68,5.83,8.23,12.88,15.56,20.72,21.88,7.86,6.31,16.47,11.62,25.39,16.26,4.47,2.3,9.04,4.43,13.65,6.43,4.61,2.01,9.3,3.84,14,5.61,9.43,3.49,19,6.59,28.65,9.41,9.64,2.83,19.36,5.43,29.11,7.87,19.5,4.87,39.14,9.19,58.8,13.34-19.65-4.22-39.27-8.61-58.75-13.54Z"/>
              <path class="cls-2" d="m475.83,730.03c-8.39-3.73-16.63-7.77-24.61-12.3-7.95-4.56-15.63-9.63-22.65-15.52-7.02-5.88-13.34-12.6-18.59-20.1-5.27-7.48-9.45-15.7-12.68-24.26-1.62-4.28-3.02-8.64-4.22-13.06-1.19-4.42-2.2-8.89-3.08-13.39-.87-4.5-1.57-9.03-2.19-13.57-.59-4.55-1.1-9.1-1.5-13.67-.81-9.13-1.26-18.3-1.52-27.47-.08-2.29-.1-4.59-.15-6.88l-.08-6.88c-.02-4.59-.02-9.18,0-13.77l.04-27.55.15-110.18.1-110.18.02-55.09v-27.55c0-9.18.09-18.35.41-27.51.31-8.54.79-17.07,1.64-25.57h-1.72c-.87,8.48-1.36,16.99-1.69,25.5-.35,9.19-.42,18.39-.43,27.57v27.55s.02,55.09.02,55.09l.1,110.18.15,110.18.04,27.55c0,4.59.01,9.18.05,13.78l.1,6.89c.06,2.3.09,4.59.18,6.89.29,9.19.77,18.37,1.61,27.53.42,4.58.94,9.15,1.54,13.71.64,4.55,1.36,9.1,2.24,13.61.9,4.51,1.93,9,3.14,13.44,1.21,4.44,2.64,8.82,4.28,13.13,3.28,8.6,7.51,16.87,12.85,24.39,5.32,7.53,11.7,14.28,18.77,20.17,7.08,5.9,14.8,10.96,22.79,15.51,8.01,4.52,16.3,8.52,24.71,12.21,8.41,3.7,16.95,7.09,25.53,10.35,17.18,6.49,34.56,12.45,51.94,18.37-17.35-6.01-34.7-12.05-51.84-18.62-8.57-3.3-17.08-6.73-25.46-10.47Z"/>
              <path class="cls-2" d="m428.03,728.11c-6.16-5.45-11.88-11.4-16.98-17.85-5.1-6.45-9.5-13.44-13.22-20.76-3.71-7.33-6.71-15.02-9.08-22.89-2.36-7.87-4.08-15.93-5.34-24.05l-.86-6.1-.7-6.13-.55-6.14c-.17-2.05-.31-4.1-.45-6.15-1.11-16.42-1.7-32.87-1.9-49.32-.11-8.23-.05-16.45-.05-24.68l.04-24.69.15-98.76.32-197.51c.02-16.46.06-32.91.55-49.35.09-2.73.18-5.46.29-8.19h-1.83c-.11,2.71-.21,5.42-.3,8.13-.51,16.47-.58,32.94-.54,49.4l.32,197.51.15,98.76.04,24.69c.02,8.23,0,16.46.12,24.69.25,16.46.89,32.92,2.05,49.35,1.06,16.42,3.3,32.87,8.07,48.66,2.39,7.89,5.42,15.58,9.17,22.92,3.75,7.34,8.18,14.33,13.32,20.78,5.13,6.45,10.88,12.39,17.06,17.83,6.18,5.44,12.8,10.38,19.67,14.91,13.76,9.06,28.48,16.54,43.49,23.29-14.98-6.79-29.69-14.31-43.41-23.41-6.85-4.55-13.44-9.5-19.6-14.96Z"/>
              <path class="cls-2" d="m402.03,178.99c-1.14-4.51-2.41-8.99-3.72-13.45h-.82c1.54,4.47,3.06,8.95,4.54,13.45Z"/>
              <path class="cls-2" d="m409.16,750.02c-5.96-7.5-11.18-15.59-15.53-24.12-2.17-4.27-4.13-8.64-5.9-13.09-1.77-4.45-3.34-8.98-4.7-13.57-1.37-4.59-2.56-9.23-3.59-13.9-1.01-4.68-1.85-9.39-2.55-14.13-.71-4.73-1.22-9.5-1.65-14.27l-.29-3.58-.23-3.58c-.16-2.39-.27-4.79-.4-7.18-.53-9.58-1.05-19.15-1.29-28.73-.25-9.58-.32-19.17-.36-28.76-.03-9.52-.02-19.04,0-28.57.02,0,.03,0,0-.02h0c.29-.03.42-.05,0-.06v-.19s0-.49,0-.49v-.99s0-1.98,0-1.98v-3.96s.03-7.92.03-7.92l.03-15.84.07-31.67.13-63.34.19-126.69c.09-42.23-.02-84.46.11-126.68.02-3.73.05-7.46.08-11.19h-2.11c-.04,3.73-.08,7.45-.11,11.18-.08,10.56-.13,21.12-.14,31.68v31.67s.05,63.34.05,63.34l.19,126.69.13,63.34.07,31.67.03,15.84.02,7.92v3.96s.01,1.98.01,1.98v.99s0,.49,0,.49v.19c-.42,0-.29.03,0,.05h0s-.02.02,0,.03c.02,9.52.05,19.05.13,28.57.08,9.59.19,19.18.48,28.78.28,9.59.85,19.18,1.41,28.75.15,2.39.27,4.79.44,7.18l.25,3.59.31,3.59c.45,4.78.99,9.56,1.72,14.3.73,4.75,1.59,9.47,2.62,14.16,1.05,4.69,2.27,9.34,3.67,13.93,1.39,4.6,3,9.13,4.81,13.58,1.8,4.45,3.8,8.82,6.01,13.09,4.42,8.53,9.71,16.6,15.73,24.07,6.03,7.47,12.85,14.28,20.18,20.46-7.29-6.23-14.05-13.08-20.02-20.58Z"/>
              <polygon class="cls-2" points="366.01 165.54 363.93 165.54 363.88 198.67 363.86 280.57 363.98 444.38 364.34 608.18 364.6 690.09 364.97 771.99 365.33 690.09 365.59 608.18 365.95 444.38 366.08 280.57 366.06 198.67 366.01 165.54"/>
            </g>
          </g>
          <g>
            <path class="cls-2" d="m331.66,464.09c.01.65.31,1.28.75,1.82.44.54,1,1.02,1.61,1.42,1.22.82,2.6,1.43,4.01,1.96,2.83,1.04,5.8,1.71,8.78,2.23,2.99.53,6.01.86,9.04,1.09,3.03.24,6.07.34,9.11.35,6.08.02,12.18-.37,18.16-1.42,2.98-.53,5.96-1.2,8.78-2.24,1.4-.53,2.79-1.14,4.01-1.96.61-.4,1.17-.88,1.61-1.42.44-.54.74-1.17.75-1.82,0-.65-.28-1.29-.71-1.84-.44-.55-.99-1.05-1.6-1.46-1.22-.85-2.59-1.49-3.99-2.05-2.82-1.1-5.79-1.84-8.78-2.41-6-1.12-12.11-1.57-18.22-1.61-3.05.01-6.11.12-9.15.37-3.04.26-6.07.66-9.07,1.23-2.99.58-5.96,1.32-8.78,2.42-1.4.56-2.78,1.21-3.99,2.05-.61.42-1.16.91-1.6,1.47-.43.55-.72,1.2-.71,1.84Zm-.86,0c.01-.9.42-1.71.93-2.34.52-.64,1.14-1.16,1.8-1.59,1.31-.88,2.74-1.51,4.19-2.05,2.9-1.07,5.91-1.75,8.93-2.28,3.02-.53,6.07-.87,9.13-1.1,3.05-.25,6.12-.34,9.18-.35,6.12-.02,12.26.37,18.31,1.43,3.02.54,6.03,1.21,8.93,2.29,1.45.55,2.87,1.18,4.19,2.06.66.43,1.28.96,1.8,1.59.51.63.92,1.45.93,2.35,0,.9-.39,1.73-.9,2.37-.51.65-1.13,1.19-1.78,1.64-1.31.91-2.73,1.57-4.18,2.15-2.9,1.13-5.91,1.88-8.93,2.45-6.06,1.13-12.22,1.58-18.37,1.63-3.08-.01-6.15-.12-9.22-.37-3.07-.26-6.13-.66-9.15-1.24-3.03-.59-6.04-1.33-8.93-2.46-1.44-.58-2.87-1.24-4.17-2.15-.65-.45-1.27-.99-1.78-1.64-.51-.65-.9-1.48-.9-2.37Z"/>
            <path class="cls-2" d="m332.36,444.25c.01.62.29,1.23.71,1.76.42.53.96,1,1.55,1.4,1.18.81,2.53,1.42,3.9,1.95,2.76,1.04,5.68,1.71,8.61,2.23,2.93.52,5.9.86,8.88,1.08,2.98.24,5.96.34,8.95.35,5.97.02,11.97-.36,17.84-1.41,2.93-.53,5.85-1.2,8.61-2.24,1.37-.53,2.72-1.14,3.9-1.95.59-.4,1.13-.87,1.55-1.4.42-.53.69-1.14.71-1.76,0-.62-.26-1.24-.67-1.79-.41-.55-.94-1.03-1.53-1.45-1.17-.85-2.52-1.49-3.89-2.06-2.76-1.11-5.67-1.86-8.61-2.43-5.89-1.12-11.9-1.58-17.91-1.63-3,.01-6.01.12-9,.37-1.5.12-2.99.3-4.47.5-1.49.2-2.97.45-4.44.74-2.93.59-5.85,1.33-8.61,2.44-1.37.56-2.72,1.21-3.89,2.06-.59.42-1.12.91-1.53,1.45-.41.55-.67,1.17-.67,1.79Zm-.98,0c.01-.89.41-1.71.91-2.35.51-.64,1.12-1.17,1.76-1.6,1.29-.89,2.69-1.51,4.11-2.06,2.85-1.07,5.81-1.75,8.79-2.28,2.97-.53,5.97-.87,8.98-1.1,3-.25,6.02-.35,9.03-.35,6.02-.02,12.07.37,18.02,1.43,2.97.54,5.93,1.21,8.78,2.29,1.42.55,2.83,1.18,4.11,2.07.65.44,1.25.96,1.76,1.6.5.64.9,1.46.91,2.35,0,.89-.37,1.73-.87,2.38-.5.66-1.1,1.2-1.74,1.65-1.28.92-2.68,1.59-4.1,2.17-2.85,1.14-5.81,1.9-8.79,2.48-5.97,1.14-12.03,1.6-18.09,1.65-3.03-.01-6.06-.12-9.08-.38-1.51-.12-3.02-.3-4.52-.51-1.5-.2-3-.45-4.49-.75-2.98-.6-5.94-1.35-8.79-2.49-1.42-.58-2.82-1.25-4.1-2.17-.64-.45-1.24-1-1.74-1.66-.49-.65-.87-1.49-.87-2.38Z"/>
            <path class="cls-2" d="m333.15,424.42c.01.6.27,1.18.67,1.7.4.52.91.98,1.49,1.38,1.14.81,2.45,1.41,3.79,1.94,2.69,1.04,5.55,1.71,8.41,2.22,2.87.52,5.78.85,8.7,1.08,2.91.24,5.84.34,8.77.35,5.85.03,11.72-.36,17.47-1.4,2.86-.53,5.72-1.19,8.41-2.24,1.34-.53,2.65-1.13,3.79-1.94.57-.4,1.09-.86,1.49-1.38.4-.52.65-1.1.67-1.7,0-.6-.23-1.2-.62-1.73-.38-.54-.9-1.02-1.46-1.44-1.13-.85-2.44-1.49-3.77-2.06-2.69-1.11-5.54-1.87-8.41-2.45-5.77-1.13-11.66-1.6-17.55-1.65-2.95.01-5.89.12-8.82.38-1.47.12-2.93.3-4.38.51-1.46.21-2.91.45-4.35.75-2.87.6-5.73,1.35-8.41,2.47-1.33.57-2.65,1.21-3.77,2.06-.57.42-1.08.9-1.46,1.44-.39.54-.62,1.14-.62,1.73Zm-1.1,0c.01-.89.39-1.71.88-2.35.49-.65,1.09-1.17,1.72-1.61,1.26-.9,2.64-1.52,4.03-2.07,2.8-1.08,5.7-1.76,8.62-2.28,2.92-.53,5.86-.87,8.81-1.09,2.95-.25,5.91-.35,8.86-.35,5.91-.03,11.84.36,17.68,1.42,2.91.54,5.82,1.21,8.62,2.3,1.39.55,2.77,1.18,4.03,2.08.63.44,1.23.96,1.72,1.61.49.64.87,1.46.88,2.35,0,.89-.35,1.73-.83,2.38-.48.67-1.07,1.21-1.7,1.67-1.25.94-2.62,1.6-4.01,2.19-2.79,1.15-5.69,1.92-8.62,2.51-5.86,1.15-11.81,1.62-17.76,1.67-2.97-.01-5.95-.12-8.92-.38-1.48-.12-2.96-.31-4.44-.52-1.48-.21-2.95-.46-4.41-.76-2.92-.61-5.83-1.37-8.62-2.53-1.39-.59-2.76-1.26-4.01-2.2-.62-.46-1.22-1-1.7-1.67-.48-.66-.84-1.5-.83-2.39Z"/>
            <path class="cls-2" d="m333.21,404.58c.03,1.17,1,2.25,2.13,3.03,1.13.8,2.44,1.41,3.78,1.93,2.69,1.03,5.54,1.69,8.41,2.2,2.87.52,5.77.84,8.69,1.07,2.91.24,5.84.34,8.76.35,5.85.03,11.71-.35,17.45-1.39,2.86-.53,5.71-1.19,8.4-2.22,1.33-.52,2.65-1.13,3.78-1.93,1.13-.78,2.1-1.85,2.13-3.02,0-.58-.23-1.17-.61-1.7-.38-.53-.89-1.01-1.45-1.43-1.12-.85-2.43-1.49-3.76-2.06-2.68-1.12-5.53-1.88-8.4-2.46-5.76-1.14-11.66-1.61-17.54-1.67-2.94.01-5.89.12-8.82.38-1.47.12-2.93.31-4.38.52-1.46.21-2.91.45-4.34.75-2.87.61-5.72,1.37-8.4,2.49-1.33.57-2.64,1.21-3.76,2.06-.56.42-1.07.89-1.45,1.42-.38.53-.61,1.12-.61,1.7Zm-1.22,0c.01-.91.4-1.74.89-2.39.5-.66,1.1-1.18,1.73-1.62,1.26-.9,2.65-1.53,4.04-2.08,2.8-1.07,5.71-1.74,8.63-2.26,2.92-.53,5.87-.86,8.82-1.08,2.95-.25,5.91-.35,8.86-.35,5.91-.03,11.84.35,17.68,1.41,2.92.54,5.82,1.21,8.63,2.29,1.39.55,2.78,1.18,4.04,2.08.63.44,1.24.97,1.73,1.62.5.65.88,1.48.89,2.39,0,.91-.36,1.76-.84,2.42-.49.68-1.08,1.22-1.71,1.69-1.25.94-2.63,1.61-4.02,2.21-2.8,1.16-5.7,1.93-8.63,2.53-5.86,1.16-11.82,1.63-17.77,1.69-2.98-.01-5.95-.12-8.92-.38-1.48-.12-2.96-.31-4.44-.52-1.48-.21-2.95-.46-4.41-.76-2.92-.62-5.83-1.39-8.62-2.55-1.39-.59-2.77-1.26-4.02-2.21-.63-.46-1.22-1.01-1.71-1.68-.48-.67-.85-1.52-.84-2.42Z"/>
            <path class="cls-2" d="m333.15,386.06c.01.6.27,1.18.67,1.7.4.52.91.98,1.49,1.38,1.14.81,2.45,1.41,3.79,1.94,2.69,1.04,5.55,1.71,8.41,2.22,2.87.52,5.78.85,8.7,1.08,2.91.24,5.84.34,8.77.35,5.85.03,11.72-.36,17.47-1.4,2.86-.53,5.72-1.19,8.41-2.24,1.34-.53,2.65-1.13,3.79-1.94.57-.4,1.09-.86,1.49-1.38.4-.52.65-1.1.67-1.7,0-.6-.23-1.2-.62-1.73-.38-.54-.9-1.02-1.46-1.44-1.13-.85-2.44-1.49-3.77-2.06-2.69-1.11-5.54-1.87-8.41-2.45-5.77-1.13-11.66-1.6-17.55-1.65-2.95.01-5.89.12-8.82.38-1.47.12-2.93.3-4.38.51-1.46.21-2.91.45-4.35.75-2.87.6-5.73,1.35-8.41,2.47-1.33.57-2.65,1.21-3.77,2.06-.57.42-1.08.9-1.46,1.44-.39.54-.62,1.14-.62,1.73Zm-1.1,0c.01-.89.39-1.71.88-2.35.49-.65,1.09-1.17,1.72-1.61,1.26-.9,2.64-1.52,4.03-2.07,2.8-1.08,5.7-1.76,8.62-2.28,2.92-.53,5.86-.87,8.81-1.09,2.95-.25,5.91-.35,8.86-.35,5.91-.03,11.84.36,17.68,1.42,2.91.54,5.82,1.21,8.62,2.3,1.39.55,2.77,1.18,4.03,2.08.63.44,1.23.96,1.72,1.61.49.64.87,1.46.88,2.35,0,.89-.35,1.73-.83,2.38-.48.67-1.07,1.21-1.7,1.67-1.25.94-2.62,1.6-4.01,2.19-2.79,1.15-5.69,1.92-8.62,2.51-5.86,1.15-11.81,1.62-17.76,1.67-2.97-.01-5.95-.12-8.92-.38-1.48-.12-2.96-.31-4.44-.52-1.48-.21-2.95-.46-4.41-.76-2.92-.61-5.83-1.37-8.62-2.53-1.39-.59-2.76-1.26-4.01-2.2-.62-.46-1.22-1-1.7-1.67-.48-.66-.84-1.5-.83-2.39Z"/>
            <path class="cls-2" d="m193.37,682.31c.02,1.84.51,3.67,1.34,5.33.85,1.66,2,3.16,3.3,4.53,2.61,2.73,5.77,4.93,9.06,6.87,3.3,1.93,6.76,3.58,10.29,5.07,3.53,1.49,7.14,2.8,10.78,4.01,7.29,2.4,14.73,4.35,22.22,6.04,7.5,1.69,15.06,3.08,22.65,4.29,15.19,2.41,30.5,4.01,45.84,5.08,15.34,1.08,30.73,1.57,46.11,1.57,15.38,0,30.77-.47,46.11-1.53,15.34-1.07,30.65-2.69,45.84-5.11,7.59-1.22,15.15-2.61,22.65-4.3,7.5-1.69,14.93-3.64,22.22-6.04,3.64-1.2,7.25-2.52,10.78-4.01,3.53-1.49,6.99-3.14,10.29-5.07,3.28-1.93,6.44-4.13,9.06-6.87,1.3-1.37,2.45-2.87,3.3-4.53.83-1.66,1.32-3.49,1.34-5.33-.01-1.84-.5-3.67-1.32-5.34-.85-1.66-1.99-3.18-3.29-4.55-2.61-2.75-5.76-4.97-9.04-6.92-3.29-1.95-6.75-3.62-10.28-5.12-3.53-1.51-7.13-2.84-10.78-4.06-7.29-2.44-14.73-4.42-22.22-6.14-7.5-1.72-15.06-3.16-22.66-4.39-15.19-2.45-30.51-4.11-45.87-5.22-15.35-1.1-30.75-1.61-46.15-1.64-30.78.04-61.62,1.95-92.02,6.84-7.59,1.24-15.16,2.67-22.65,4.4-7.5,1.72-14.93,3.71-22.22,6.15-3.64,1.22-7.25,2.55-10.77,4.06-3.53,1.51-6.99,3.17-10.28,5.12-3.28,1.95-6.44,4.17-9.04,6.92-1.3,1.37-2.44,2.89-3.29,4.55-.83,1.67-1.31,3.5-1.32,5.34Zm-.98,0c.02-2.01.56-3.99,1.45-5.77.91-1.77,2.12-3.35,3.47-4.76,2.71-2.84,5.94-5.07,9.27-7.04,3.35-1.96,6.84-3.63,10.4-5.13,3.56-1.51,7.19-2.82,10.85-4.04,7.33-2.41,14.8-4.37,22.32-6.07,7.52-1.69,15.1-3.09,22.71-4.3,15.22-2.41,30.56-4.02,45.93-5.09,15.37-1.08,30.77-1.57,46.18-1.58,15.4,0,30.81.47,46.18,1.53,15.37,1.07,30.7,2.7,45.93,5.12,7.61,1.22,15.19,2.62,22.71,4.31,7.52,1.69,14.99,3.65,22.32,6.07,3.66,1.21,7.29,2.53,10.85,4.04,3.56,1.5,7.06,3.17,10.4,5.13,3.33,1.96,6.56,4.2,9.27,7.04,1.35,1.42,2.56,2.99,3.47,4.76.89,1.77,1.43,3.76,1.45,5.77-.01,2.01-.54,4-1.43,5.78-.9,1.78-2.11,3.36-3.45,4.79-2.71,2.85-5.93,5.11-9.26,7.09-3.34,1.98-6.84,3.66-10.4,5.18-3.56,1.52-7.19,2.86-10.85,4.09-7.33,2.45-14.79,4.44-22.31,6.17-7.52,1.73-15.1,3.16-22.72,4.4-15.23,2.46-30.57,4.12-45.95,5.23-15.38,1.11-30.8,1.61-46.22,1.64-30.83-.04-61.7-1.95-92.17-6.85-7.61-1.25-15.19-2.68-22.72-4.41-7.52-1.73-14.99-3.72-22.31-6.17-3.66-1.23-7.29-2.57-10.85-4.09-3.56-1.52-7.05-3.2-10.39-5.18-3.33-1.98-6.55-4.24-9.26-7.09-1.35-1.43-2.55-3.01-3.45-4.79-.88-1.78-1.41-3.77-1.43-5.78Z"/>
            <path class="cls-2" d="m257.6,680.58c.02,2.26,1.12,4.41,2.66,6.16,1.54,1.77,3.46,3.22,5.47,4.51,4.05,2.55,8.53,4.44,13.07,6.06,9.13,3.2,18.63,5.29,28.18,6.91,9.56,1.61,19.22,2.68,28.9,3.39,9.68.73,19.39,1.05,29.09,1.06,9.71.02,19.42-.3,29.1-1,9.68-.71,19.33-1.8,28.9-3.42,9.55-1.64,19.06-3.72,28.18-6.92,4.54-1.62,9.02-3.51,13.07-6.06,2.01-1.29,3.92-2.74,5.46-4.51,1.54-1.75,2.64-3.9,2.66-6.16,0-1.12-.26-2.24-.73-3.29-.46-1.05-1.12-2.02-1.88-2.91-1.53-1.79-3.44-3.26-5.44-4.57-4.04-2.59-8.51-4.53-13.05-6.19-4.55-1.65-9.22-3-13.93-4.17-4.71-1.17-9.47-2.15-14.26-2.99-9.57-1.67-19.24-2.8-28.93-3.56-9.69-.75-19.42-1.11-29.14-1.14-9.72.01-19.45.35-29.15,1.09-9.69.76-19.36,1.91-28.93,3.59-9.56,1.71-19.06,3.89-28.18,7.18-4.54,1.67-9.01,3.6-13.05,6.2-2,1.31-3.91,2.79-5.44,4.57-.76.89-1.42,1.87-1.88,2.91-.46,1.05-.72,2.16-.73,3.29Zm-1.22,0c.01-1.31.33-2.61.86-3.78.53-1.18,1.26-2.23,2.09-3.18,1.66-1.9,3.66-3.41,5.73-4.74,4.18-2.63,8.72-4.54,13.32-6.18,9.23-3.23,18.79-5.33,28.39-6.96,9.61-1.62,19.3-2.69,29.01-3.4,9.71-.73,19.45-1.06,29.18-1.06,9.74-.02,19.47.3,29.19,1.01,9.71.71,19.4,1.81,29.01,3.43,9.6,1.65,19.16,3.74,28.39,6.98,4.6,1.64,9.14,3.56,13.32,6.19,2.07,1.33,4.07,2.84,5.73,4.74.82.95,1.56,2.01,2.09,3.18.53,1.17.85,2.47.86,3.78,0,1.31-.31,2.61-.84,3.79-.52,1.18-1.25,2.25-2.07,3.21-1.65,1.92-3.64,3.45-5.71,4.8-4.17,2.67-8.71,4.63-13.3,6.31-4.61,1.67-9.31,3.03-14.05,4.21-4.74,1.18-9.53,2.16-14.34,3-9.62,1.67-19.32,2.81-29.05,3.57-9.73.76-19.48,1.11-29.23,1.14-9.75-.01-19.51-.35-29.24-1.09-9.73-.76-19.43-1.92-29.05-3.6-9.61-1.72-19.16-3.91-28.39-7.23-4.59-1.69-9.13-3.65-13.3-6.32-2.07-1.35-4.06-2.88-5.71-4.81-.82-.96-1.55-2.03-2.07-3.21-.52-1.18-.83-2.48-.83-3.79Z"/>
            <path class="cls-2" d="m129.14,682.31c.03,2.58.72,5.12,1.91,7.42,1.2,2.3,2.83,4.37,4.64,6.23,3.66,3.74,8.03,6.73,12.57,9.35,4.55,2.62,9.33,4.85,14.18,6.88,4.86,2.03,9.82,3.79,14.83,5.43,10.02,3.25,20.23,5.9,30.52,8.18,10.29,2.29,20.67,4.18,31.08,5.82,20.83,3.27,41.83,5.48,62.86,6.93,21.04,1.45,42.13,2.1,63.23,2.11,21.09,0,42.19-.64,63.23-2.08,21.04-1.45,42.04-3.64,62.87-6.91,10.41-1.64,20.79-3.54,31.08-5.83,10.29-2.29,20.5-4.94,30.52-8.2,5.01-1.64,9.97-3.41,14.83-5.43,4.86-2.02,9.63-4.26,14.18-6.88,4.54-2.62,8.91-5.62,12.57-9.36,1.82-1.87,3.44-3.94,4.64-6.24,1.19-2.3,1.88-4.85,1.91-7.42-.03-2.58-.71-5.13-1.9-7.43-1.2-2.3-2.82-4.38-4.63-6.25-3.65-3.75-8.02-6.76-12.56-9.39-4.55-2.64-9.32-4.88-14.18-6.91-4.86-2.04-9.82-3.82-14.82-5.46-10.02-3.28-20.23-5.95-30.52-8.25-10.29-2.31-20.67-4.23-31.08-5.89-20.84-3.3-41.84-5.54-62.88-7.02-21.05-1.48-42.15-2.16-63.25-2.2-21.1.03-42.2.7-63.25,2.17-21.05,1.48-42.05,3.71-62.89,7-10.42,1.66-20.79,3.59-31.08,5.9-10.29,2.31-20.5,4.98-30.52,8.27-5,1.65-9.97,3.43-14.82,5.47-4.86,2.04-9.63,4.28-14.18,6.92-4.54,2.63-8.91,5.64-12.56,9.39-1.81,1.88-3.43,3.95-4.63,6.25-1.19,2.3-1.87,4.86-1.9,7.43Zm-.73,0c.03-2.71.76-5.38,2-7.76,1.25-2.38,2.92-4.5,4.77-6.41,3.73-3.81,8.15-6.83,12.73-9.48,4.59-2.65,9.39-4.89,14.27-6.92,4.88-2.03,9.86-3.81,14.88-5.45,10.05-3.26,20.28-5.91,30.59-8.2,10.31-2.29,20.7-4.19,31.12-5.83,20.86-3.27,41.87-5.48,62.93-6.94,21.06-1.45,42.17-2.1,63.28-2.11,21.11,0,42.22.64,63.28,2.09,21.06,1.45,42.07,3.65,62.93,6.91,10.43,1.64,20.82,3.54,31.13,5.84,10.31,2.29,20.54,4.95,30.59,8.22,5.02,1.64,10,3.42,14.88,5.45,4.88,2.03,9.68,4.28,14.27,6.92,4.58,2.64,9,5.67,12.73,9.48,1.85,1.91,3.52,4.03,4.77,6.41,1.23,2.38,1.96,5.05,1.99,7.76-.03,2.71-.75,5.38-1.98,7.77-1.24,2.38-2.91,4.51-4.76,6.42-3.73,3.82-8.15,6.86-12.72,9.51-4.59,2.66-9.39,4.91-14.26,6.95-4.88,2.05-9.86,3.83-14.88,5.48-10.05,3.29-20.28,5.96-30.59,8.27-10.31,2.31-20.7,4.23-31.13,5.9-20.86,3.3-41.88,5.54-62.95,7.03-21.07,1.48-42.18,2.16-63.3,2.2-21.12-.03-42.24-.7-63.3-2.18-21.06-1.48-42.09-3.71-62.95-7.01-10.43-1.67-20.82-3.59-31.13-5.91-10.31-2.32-20.54-4.99-30.59-8.28-5.02-1.65-10-3.44-14.88-5.49-4.88-2.04-9.68-4.3-14.26-6.96-4.58-2.66-8.99-5.69-12.72-9.52-1.85-1.91-3.51-4.04-4.76-6.43-1.23-2.39-1.95-5.06-1.98-7.77Z"/>
            <path class="cls-2" d="m64.9,682.31c.04,3.31.94,6.59,2.49,9.52,1.56,2.93,3.65,5.57,5.98,7.94,4.7,4.74,10.29,8.53,16.08,11.84,5.81,3.32,11.9,6.13,18.08,8.68,6.19,2.55,12.5,4.79,18.87,6.85,12.75,4.11,25.74,7.45,38.82,10.33,13.08,2.89,26.27,5.28,39.51,7.35,26.48,4.12,53.16,6.91,79.89,8.74,26.74,1.83,53.54,2.66,80.34,2.67,26.8,0,53.6-.83,80.34-2.66,26.73-1.83,53.41-4.61,79.9-8.73,13.24-2.07,26.43-4.47,39.51-7.36,13.08-2.89,26.07-6.23,38.82-10.34,6.37-2.06,12.69-4.3,18.87-6.85,6.18-2.56,12.27-5.37,18.08-8.69,5.8-3.31,11.38-7.1,16.08-11.84,2.33-2.37,4.42-5,5.98-7.94,1.55-2.93,2.44-6.21,2.49-9.52-.04-3.31-.93-6.59-2.48-9.52-1.56-2.94-3.65-5.57-5.98-7.95-4.7-4.75-10.28-8.55-16.08-11.86-5.81-3.33-11.89-6.14-18.08-8.71-6.19-2.56-12.5-4.8-18.87-6.87-12.75-4.12-25.74-7.48-38.82-10.38-13.08-2.9-26.27-5.31-39.51-7.39-26.48-4.14-53.16-6.95-79.9-8.8-26.74-1.85-53.55-2.7-80.36-2.73-26.81.03-53.61.87-80.36,2.72-26.74,1.85-53.42,4.65-79.91,8.79-13.24,2.08-26.43,4.5-39.51,7.4-13.08,2.9-26.07,6.26-38.81,10.38-6.37,2.07-12.68,4.31-18.87,6.88-6.18,2.57-12.27,5.38-18.08,8.71-5.8,3.32-11.38,7.12-16.08,11.86-2.33,2.38-4.42,5.01-5.98,7.95-1.55,2.94-2.44,6.21-2.48,9.52Zm-.49,0c.04-3.4.96-6.76,2.54-9.75,1.59-2.99,3.71-5.66,6.07-8.05,4.75-4.79,10.37-8.6,16.19-11.92,5.83-3.33,11.94-6.15,18.14-8.71,6.2-2.56,12.53-4.8,18.91-6.86,12.77-4.11,25.77-7.45,38.86-10.34,13.09-2.89,26.29-5.29,39.54-7.35,26.5-4.13,53.19-6.91,79.93-8.75,26.75-1.84,53.56-2.66,80.37-2.67,26.81,0,53.62.83,80.37,2.66,26.75,1.83,53.44,4.61,79.94,8.73,13.25,2.07,26.44,4.47,39.54,7.36,13.09,2.89,26.09,6.23,38.86,10.35,6.38,2.07,12.71,4.31,18.91,6.87,6.2,2.56,12.3,5.38,18.14,8.71,5.82,3.32,11.44,7.13,16.19,11.92,2.36,2.4,4.48,5.07,6.07,8.06,1.58,2.99,2.5,6.35,2.54,9.75-.04,3.4-.95,6.76-2.53,9.75-1.59,2.99-3.71,5.66-6.06,8.06-4.75,4.8-10.36,8.61-16.18,11.94-5.83,3.34-11.94,6.16-18.13,8.73-6.2,2.57-12.53,4.81-18.91,6.89-12.77,4.13-25.77,7.49-38.86,10.39-13.09,2.9-26.29,5.32-39.54,7.4-26.5,4.15-53.19,6.95-79.95,8.81-26.75,1.86-53.57,2.7-80.39,2.73-26.82-.03-53.64-.87-80.39-2.72-26.75-1.85-53.45-4.65-79.95-8.79-13.25-2.09-26.44-4.5-39.54-7.41-13.09-2.91-26.09-6.26-38.86-10.4-6.38-2.07-12.71-4.32-18.91-6.89-6.2-2.57-12.3-5.4-18.13-8.74-5.82-3.33-11.43-7.15-16.18-11.95-2.36-2.4-4.48-5.07-6.06-8.07-1.58-2.99-2.49-6.35-2.53-9.75Z"/>
            <path class="cls-2" d="m.79,682.31c.02,2.01.27,4.02.81,5.96.53,1.94,1.28,3.82,2.23,5.6,1.9,3.56,4.45,6.75,7.3,9.62,2.85,2.87,6.01,5.43,9.3,7.79,3.29,2.36,6.75,4.5,10.27,6.5,7.07,3.99,14.45,7.4,21.97,10.47,7.52,3.07,15.18,5.78,22.91,8.27,15.47,4.95,31.23,8.98,47.1,12.46,15.87,3.47,31.87,6.37,47.93,8.86,32.12,4.98,64.48,8.33,96.91,10.54,32.43,2.2,64.94,3.22,97.44,3.22,32.5,0,65.01-1.01,97.44-3.21,32.43-2.21,64.79-5.56,96.91-10.53,16.06-2.49,32.05-5.4,47.93-8.87,15.87-3.48,31.63-7.51,47.1-12.46,7.73-2.49,15.39-5.2,22.91-8.27,7.51-3.07,14.9-6.48,21.97-10.47,3.53-2,6.98-4.14,10.27-6.5,3.29-2.36,6.45-4.92,9.3-7.79,2.85-2.87,5.4-6.06,7.29-9.62.95-1.78,1.7-3.66,2.23-5.6.54-1.94.79-3.95.81-5.96-.02-2.01-.27-4.02-.8-5.96-.53-1.94-1.28-3.82-2.23-5.6-1.89-3.57-4.44-6.76-7.29-9.63-2.85-2.87-6.01-5.44-9.3-7.8-3.29-2.36-6.75-4.51-10.27-6.51-7.07-4-14.45-7.42-21.96-10.49-7.52-3.08-15.18-5.8-22.91-8.29-15.47-4.96-31.23-9.01-47.1-12.5-15.87-3.48-31.87-6.4-47.93-8.91-32.12-5-64.49-8.37-96.92-10.6-32.43-2.22-64.95-3.26-97.46-3.28-32.51.01-65.02,1.05-97.46,3.27-32.43,2.23-64.8,5.6-96.92,10.59-16.06,2.51-32.06,5.43-47.93,8.91-15.87,3.49-31.63,7.54-47.1,12.51-7.73,2.5-15.39,5.22-22.91,8.29-7.51,3.08-14.9,6.5-21.96,10.5-3.53,2.01-6.98,4.15-10.27,6.51-3.29,2.36-6.45,4.93-9.3,7.8-2.85,2.87-5.4,6.07-7.29,9.63-.95,1.78-1.7,3.66-2.23,5.6-.53,1.94-.79,3.95-.8,5.96Zm-.49,0c.02-2.05.28-4.11.83-6.09.54-1.98,1.3-3.9,2.27-5.7,1.93-3.62,4.51-6.85,7.38-9.74,2.88-2.9,6.06-5.47,9.37-7.84,3.31-2.37,6.78-4.52,10.32-6.53,7.09-4,14.49-7.42,22.02-10.5,7.53-3.07,15.2-5.79,22.95-8.28,15.49-4.96,31.27-8.99,47.15-12.47,15.89-3.47,31.89-6.38,47.96-8.87,32.14-4.98,64.51-8.34,96.95-10.55,32.44-2.2,64.96-3.22,97.47-3.22,32.51,0,65.03,1.01,97.48,3.21,32.44,2.21,64.81,5.56,96.95,10.53,16.07,2.49,32.07,5.4,47.96,8.87,15.88,3.48,31.65,7.52,47.15,12.48,7.74,2.49,15.41,5.21,22.95,8.28,7.53,3.08,14.93,6.5,22.02,10.5,3.54,2.01,7.01,4.16,10.32,6.53,3.31,2.37,6.49,4.95,9.37,7.84,2.87,2.89,5.45,6.12,7.38,9.74.97,1.8,1.73,3.72,2.27,5.7.55,1.98.81,4.03.82,6.09-.02,2.05-.28,4.11-.82,6.09-.54,1.98-1.3,3.9-2.27,5.7-1.92,3.62-4.5,6.85-7.37,9.75-2.88,2.9-6.05,5.48-9.36,7.85-3.31,2.38-6.78,4.53-10.32,6.54-7.09,4.01-14.49,7.44-22.02,10.52-7.53,3.08-15.2,5.81-22.94,8.3-15.49,4.97-31.26,9.02-47.15,12.51-15.89,3.49-31.89,6.41-47.96,8.91-32.14,5-64.52,8.38-96.96,10.61-32.45,2.22-64.97,3.26-97.49,3.28-32.52-.01-65.04-1.05-97.49-3.27-32.44-2.23-64.82-5.6-96.96-10.59-16.07-2.51-32.07-5.43-47.96-8.92-15.88-3.5-31.65-7.55-47.15-12.52-7.74-2.5-15.41-5.22-22.94-8.31-7.53-3.08-14.93-6.51-22.02-10.52-3.54-2.01-7-4.17-10.31-6.54-3.31-2.38-6.49-4.96-9.36-7.86-2.87-2.9-5.45-6.12-7.37-9.75-.97-1.81-1.73-3.73-2.27-5.7-.54-1.98-.8-4.04-.82-6.09Z"/>
            <path class="cls-2" d="m280.26,662.47c.01,1.81.81,3.55,1.96,5,1.16,1.46,2.61,2.7,4.17,3.77,3.13,2.16,6.65,3.77,10.22,5.14,3.59,1.37,7.28,2.49,11,3.44,3.73.96,7.5,1.76,11.29,2.44,7.59,1.38,15.26,2.28,22.94,2.89,7.69.62,15.41.9,23.12.9,7.72.01,15.44-.26,23.13-.86,7.69-.61,15.36-1.53,22.94-2.92,7.57-1.4,15.11-3.17,22.29-5.9,3.58-1.38,7.09-2.99,10.22-5.15,1.56-1.08,3.01-2.32,4.17-3.77,1.15-1.45,1.95-3.19,1.95-5,0-1.81-.77-3.57-1.92-5.03-1.15-1.47-2.6-2.73-4.15-3.83-3.12-2.19-6.63-3.84-10.21-5.25-3.58-1.41-7.27-2.56-11-3.55-3.73-.99-7.5-1.83-11.3-2.54-7.59-1.42-15.27-2.38-22.97-3.03-7.7-.64-15.44-.94-23.17-.97-7.73,0-15.46.3-23.17.93-7.7.64-15.38,1.62-22.97,3.05-3.79.72-7.57,1.56-11.3,2.55-3.73,1-7.42,2.15-11,3.55-3.57,1.41-7.08,3.06-10.21,5.25-1.56,1.09-3,2.35-4.15,3.83-1.14,1.47-1.92,3.22-1.91,5.03Zm-.98,0c0-1.03.23-2.06.62-3,.39-.95.92-1.81,1.54-2.6,1.25-1.57,2.77-2.86,4.38-3.97,3.24-2.23,6.81-3.86,10.43-5.25,3.63-1.39,7.35-2.51,11.11-3.48,3.76-.96,7.55-1.77,11.36-2.46,7.63-1.38,15.33-2.29,23.04-2.91,7.72-.62,15.46-.9,23.2-.9,7.74-.01,15.49.26,23.21.86,7.72.61,15.42,1.54,23.04,2.93,7.61,1.41,15.2,3.19,22.47,5.95,3.62,1.4,7.19,3.03,10.43,5.26,1.61,1.11,3.14,2.4,4.38,3.98.62.79,1.16,1.65,1.54,2.6.39.94.61,1.97.62,3,0,1.03-.22,2.06-.6,3.01-.38.95-.91,1.83-1.52,2.62-1.24,1.59-2.75,2.89-4.36,4.03-3.23,2.26-6.79,3.93-10.41,5.36-3.63,1.42-7.35,2.58-11.1,3.58-3.76,1-7.55,1.85-11.37,2.56-7.63,1.43-15.34,2.39-23.07,3.04-7.73.64-15.49.95-23.25.97-7.76,0-15.51-.3-23.25-.93-7.73-.65-15.44-1.63-23.07-3.07-3.81-.72-7.61-1.57-11.37-2.57-3.76-1-7.47-2.16-11.1-3.59-3.62-1.43-7.18-3.1-10.41-5.36-1.61-1.13-3.13-2.44-4.36-4.03-.61-.8-1.15-1.67-1.52-2.62-.38-.95-.6-1.98-.6-3.01Z"/>
            <path class="cls-2" d="m296.79,642.63c0,1.48.6,2.92,1.49,4.13.88,1.23,2.03,2.27,3.26,3.19,2.48,1.83,5.29,3.21,8.16,4.39,2.88,1.17,5.85,2.13,8.86,2.95,3.01.82,6.05,1.51,9.12,2.1,6.13,1.19,12.34,1.99,18.56,2.51,6.23.52,12.48.75,18.73.75,6.25.01,12.5-.21,18.73-.73,6.23-.52,12.44-1.31,18.57-2.49,3.07-.59,6.11-1.29,9.12-2.11,3.01-.83,5.98-1.79,8.86-2.97,2.87-1.18,5.68-2.56,8.16-4.4,1.23-.92,2.38-1.96,3.26-3.19.89-1.22,1.48-2.65,1.48-4.14,0-1.48-.58-2.93-1.46-4.15-.88-1.24-2.02-2.29-3.25-3.22-2.47-1.86-5.28-3.26-8.15-4.46-2.88-1.2-5.85-2.18-8.86-3.02-3.01-.84-6.05-1.56-9.12-2.17-6.14-1.22-12.35-2.05-18.58-2.61-6.24-.55-12.5-.82-18.76-.84-6.26.02-12.52.27-18.76.82-6.24.55-12.45,1.37-18.59,2.58-3.07.61-6.11,1.33-9.12,2.18-3.01.85-5.98,1.84-8.85,3.04-2.87,1.21-5.68,2.61-8.15,4.47-1.23.93-2.37,1.99-3.25,3.23-.88,1.23-1.46,2.67-1.46,4.16Zm-.73,0c0-1.67.68-3.26,1.62-4.56.95-1.31,2.15-2.4,3.42-3.35,2.56-1.89,5.41-3.29,8.32-4.48,2.92-1.19,5.91-2.15,8.94-2.98,3.03-.83,6.09-1.52,9.17-2.11,6.16-1.2,12.39-2,18.64-2.52,6.25-.52,12.52-.76,18.79-.75,6.27-.01,12.54.21,18.79.73,6.25.52,12.48,1.31,18.65,2.5,3.08.59,6.15,1.29,9.18,2.12,3.03.83,6.03,1.8,8.94,2.99,2.91,1.2,5.76,2.6,8.32,4.5,1.27.95,2.47,2.04,3.42,3.35.95,1.3,1.62,2.89,1.62,4.56,0,1.67-.66,3.27-1.6,4.58-.94,1.33-2.14,2.42-3.4,3.38-2.55,1.92-5.41,3.34-8.31,4.55-2.91,1.21-5.91,2.2-8.94,3.05-3.03.85-6.09,1.57-9.18,2.18-6.17,1.23-12.4,2.06-18.66,2.62-6.26.55-12.54.82-18.82.84-6.28-.02-12.56-.27-18.82-.82-6.26-.55-12.5-1.37-18.67-2.59-3.08-.62-6.15-1.34-9.18-2.19-3.03-.86-6.02-1.85-8.94-3.06-2.91-1.22-5.76-2.65-8.31-4.57-1.27-.97-2.46-2.06-3.4-3.39-.94-1.31-1.6-2.91-1.59-4.58Z"/>
            <path class="cls-2" d="m306.26,622.79c0,1.28.56,2.51,1.37,3.52.81,1.02,1.82,1.89,2.9,2.64,2.18,1.5,4.61,2.62,7.09,3.58,4.98,1.9,10.2,3.14,15.44,4.1,10.51,1.91,21.22,2.64,31.9,2.65,10.68,0,21.39-.72,31.91-2.62,5.25-.97,10.47-2.22,15.44-4.12,2.48-.96,4.91-2.08,7.09-3.59,1.08-.75,2.1-1.62,2.9-2.64.8-1.02,1.36-2.24,1.37-3.53,0-1.28-.55-2.51-1.35-3.54-.8-1.03-1.81-1.9-2.9-2.66-2.17-1.52-4.61-2.65-7.08-3.63-4.98-1.93-10.2-3.2-15.44-4.2-10.52-1.95-21.24-2.73-31.94-2.77-10.7.03-21.42.8-31.94,2.74-5.25,1-10.47,2.28-15.44,4.21-2.48.98-4.91,2.11-7.08,3.64-1.08.76-2.09,1.63-2.89,2.66-.8,1.02-1.35,2.26-1.35,3.54Zm-.49,0c0-1.42.63-2.75,1.47-3.82.85-1.08,1.9-1.97,3.01-2.74,2.23-1.54,4.69-2.67,7.19-3.64,5.02-1.91,10.27-3.16,15.53-4.13,10.55-1.92,21.28-2.65,31.99-2.65,10.71,0,21.44.72,32,2.62,5.27.98,10.51,2.22,15.53,4.14,2.5.97,4.97,2.1,7.19,3.65,1.11.77,2.16,1.66,3.01,2.74.85,1.07,1.46,2.41,1.47,3.82,0,1.42-.61,2.76-1.45,3.84-.85,1.09-1.89,1.98-3,2.76-2.23,1.56-4.69,2.7-7.19,3.68-5.02,1.95-10.26,3.22-15.53,4.22-10.56,1.96-21.3,2.73-32.03,2.78-10.72-.03-21.47-.8-32.03-2.75-5.27-1.01-10.51-2.29-15.53-4.24-2.5-.99-4.96-2.13-7.19-3.69-1.11-.78-2.15-1.68-3-2.76-.84-1.08-1.45-2.42-1.45-3.84Z"/>
            <path class="cls-2" d="m312.74,602.96c0,.56.16,1.12.42,1.63.26.51.62.96,1.02,1.38.8.83,1.77,1.49,2.77,2.08,2.02,1.16,4.2,2.01,6.42,2.74,4.44,1.44,9.04,2.39,13.65,3.12,9.24,1.45,18.6,2.01,27.95,2.01,9.35,0,18.72-.56,27.96-2,4.61-.74,9.21-1.68,13.65-3.13,2.21-.73,4.4-1.58,6.42-2.74,1-.58,1.97-1.25,2.77-2.08.4-.41.75-.87,1.02-1.38.26-.51.41-1.07.42-1.63,0-.56-.15-1.12-.41-1.63-.26-.51-.62-.97-1.01-1.38-.8-.83-1.76-1.5-2.77-2.09-2.02-1.17-4.2-2.03-6.42-2.76-4.44-1.46-9.04-2.42-13.65-3.16-9.24-1.47-18.61-2.05-27.97-2.07-9.36.02-18.73.6-27.97,2.06-4.61.75-9.21,1.71-13.65,3.17-2.21.74-4.4,1.6-6.41,2.77-1,.59-1.97,1.26-2.77,2.09-.4.42-.75.88-1.01,1.38-.26.51-.41,1.07-.41,1.63Zm-.24,0c0-.61.17-1.21.44-1.74.28-.53.65-1.01,1.06-1.44.83-.85,1.81-1.53,2.82-2.12,2.04-1.17,4.24-2.03,6.46-2.76,4.46-1.45,9.07-2.39,13.69-3.13,9.26-1.45,18.63-2.01,27.99-2.01,9.36,0,18.74.56,27.99,2,4.62.74,9.23,1.69,13.69,3.14,2.22.74,4.42,1.59,6.46,2.77,1.01.59,2,1.27,2.82,2.12.41.43.78.9,1.06,1.44.27.53.44,1.13.44,1.74,0,.61-.17,1.21-.44,1.74-.28.53-.64,1.01-1.05,1.44-.83.86-1.81,1.54-2.82,2.13-2.04,1.18-4.24,2.04-6.46,2.79-4.46,1.46-9.06,2.42-13.69,3.17-9.26,1.47-18.64,2.05-28.01,2.07-9.37-.02-18.75-.6-28.01-2.06-4.62-.75-9.23-1.72-13.69-3.18-2.22-.74-4.42-1.61-6.46-2.79-1.01-.6-1.99-1.28-2.82-2.13-.41-.43-.78-.91-1.05-1.44-.27-.54-.43-1.14-.44-1.74Z"/>
            <path class="cls-2" d="m317.94,583.12c0,.52.14,1.03.38,1.49.24.46.56.87.93,1.25.73.75,1.6,1.34,2.51,1.87,1.82,1.04,3.79,1.8,5.79,2.46,4,1.29,8.13,2.14,12.28,2.8,8.31,1.29,16.73,1.79,25.14,1.79,8.41,0,16.83-.51,25.14-1.79,4.15-.66,8.28-1.51,12.28-2.8,1.99-.65,3.96-1.41,5.79-2.46.91-.52,1.78-1.12,2.51-1.87.36-.37.69-.79.93-1.25.24-.46.38-.97.38-1.49,0-.52-.14-1.03-.38-1.49-.24-.46-.56-.87-.93-1.25-.73-.75-1.6-1.35-2.51-1.87-1.82-1.04-3.79-1.81-5.79-2.47-4-1.3-8.13-2.15-12.28-2.82-8.31-1.3-16.74-1.81-25.15-1.83-8.41.02-16.83.53-25.15,1.83-4.15.66-8.28,1.52-12.28,2.82-1.99.66-3.96,1.42-5.79,2.47-.91.52-1.78,1.12-2.51,1.87-.36.37-.69.79-.93,1.25-.24.46-.38.97-.38,1.49Zm-.12,0c0-.54.15-1.07.4-1.54.25-.47.58-.9.95-1.27.74-.76,1.62-1.36,2.54-1.89,1.83-1.05,3.81-1.81,5.81-2.47,4.01-1.29,8.15-2.14,12.3-2.8,8.32-1.29,16.75-1.79,25.16-1.8,8.41,0,16.84.51,25.16,1.8,4.15.66,8.29,1.51,12.3,2.8,2,.66,3.98,1.42,5.81,2.47.91.53,1.79,1.13,2.54,1.89.37.38.7.8.95,1.27.25.47.39,1,.4,1.54,0,.54-.15,1.07-.39,1.54-.25.47-.58.9-.95,1.28-.74.76-1.62,1.36-2.53,1.89-1.83,1.05-3.81,1.82-5.81,2.48-4.01,1.3-8.15,2.15-12.3,2.82-8.32,1.3-16.75,1.82-25.17,1.83-8.42-.02-16.84-.53-25.17-1.83-4.15-.67-8.29-1.52-12.3-2.82-2-.66-3.97-1.42-5.81-2.48-.91-.53-1.79-1.13-2.53-1.89-.37-.38-.7-.8-.95-1.28-.24-.47-.39-1.01-.39-1.54Z"/>
            <path class="cls-2" d="m321.93,563.28c.02.93.53,1.79,1.18,2.46.66.68,1.46,1.22,2.28,1.71,1.67.95,3.46,1.66,5.29,2.25,3.66,1.18,7.45,1.97,11.25,2.56,7.61,1.19,15.33,1.65,23.04,1.66,7.71,0,15.42-.45,23.04-1.64,3.8-.6,7.59-1.39,11.25-2.57,1.83-.59,3.62-1.31,5.29-2.26.82-.49,1.62-1.03,2.28-1.71.65-.67,1.16-1.53,1.18-2.46-.02-.93-.52-1.79-1.17-2.47-.66-.68-1.45-1.23-2.27-1.72-1.66-.95-3.46-1.68-5.28-2.28-3.66-1.2-7.44-2-11.25-2.61-7.62-1.21-15.34-1.69-23.05-1.72-7.71.02-15.44.49-23.05,1.7-3.8.61-7.59,1.42-11.25,2.62-1.83.6-3.62,1.33-5.28,2.28-.82.49-1.61,1.04-2.27,1.72-.65.68-1.16,1.54-1.17,2.47Zm-.24,0c.02-1.02.57-1.93,1.25-2.63.68-.7,1.5-1.26,2.33-1.75,1.69-.96,3.5-1.68,5.33-2.27,3.68-1.19,7.47-1.97,11.29-2.57,7.63-1.19,15.36-1.65,23.08-1.66,7.72,0,15.45.45,23.08,1.64,3.81.6,7.61,1.39,11.29,2.58,1.84.6,3.64,1.32,5.33,2.28.83.49,1.65,1.05,2.33,1.75.68.69,1.23,1.61,1.25,2.63-.02,1.02-.57,1.94-1.24,2.64-.68.71-1.49,1.27-2.33,1.76-1.69.97-3.49,1.69-5.33,2.3-3.68,1.2-7.47,2-11.29,2.62-7.63,1.22-15.37,1.69-23.09,1.72-7.72-.02-15.46-.49-23.09-1.7-3.81-.62-7.61-1.42-11.29-2.63-1.84-.61-3.64-1.33-5.33-2.3-.83-.5-1.64-1.06-2.33-1.77-.67-.7-1.23-1.61-1.24-2.64Z"/>
            <path class="cls-2" d="m325,543.44c.02.83.52,1.59,1.14,2.18.63.59,1.38,1.06,2.15,1.48,1.56.83,3.23,1.44,4.93,1.95,3.4,1.02,6.91,1.7,10.43,2.21,7.05,1.03,14.18,1.42,21.31,1.43,7.12,0,14.26-.38,21.31-1.4,3.52-.52,7.03-1.2,10.43-2.23,1.7-.52,3.37-1.13,4.93-1.96.77-.42,1.52-.89,2.15-1.49.63-.59,1.12-1.35,1.14-2.18-.02-.83-.51-1.6-1.13-2.19-.63-.6-1.38-1.08-2.15-1.5-1.56-.84-3.23-1.46-4.93-1.99-3.4-1.04-6.91-1.75-10.43-2.28-7.05-1.06-14.19-1.48-21.33-1.52-7.13.03-14.28.44-21.33,1.5-3.52.54-7.03,1.25-10.43,2.29-1.7.53-3.37,1.15-4.93,1.99-.77.43-1.52.9-2.15,1.5-.62.59-1.11,1.36-1.13,2.19Zm-.37,0c.03-.98.6-1.82,1.26-2.44.67-.63,1.44-1.11,2.23-1.54,1.59-.85,3.29-1.46,5-1.98,3.43-1.03,6.95-1.71,10.48-2.23,7.07-1.04,14.22-1.43,21.36-1.43,7.14,0,14.29.38,21.37,1.41,3.53.52,7.05,1.2,10.48,2.24,1.71.52,3.4,1.14,5,1.99.79.43,1.56.91,2.23,1.54.66.62,1.23,1.46,1.26,2.44-.02.98-.59,1.83-1.25,2.45-.67.64-1.44,1.12-2.23,1.56-1.59.86-3.28,1.48-4.99,2.02-3.43,1.05-6.95,1.76-10.48,2.3-7.08,1.07-14.23,1.49-21.38,1.52-7.15-.03-14.31-.44-21.39-1.5-3.54-.54-7.05-1.25-10.48-2.31-1.71-.53-3.4-1.16-4.99-2.02-.79-.44-1.56-.93-2.23-1.56-.66-.62-1.22-1.47-1.24-2.45Z"/>
            <path class="cls-2" d="m327.84,523.6c.02.76.43,1.47.97,2.05.55.58,1.23,1.05,1.93,1.48,1.42.82,2.97,1.45,4.55,1.96,3.16,1.03,6.43,1.71,9.73,2.23,6.59,1.04,13.28,1.44,19.95,1.44,6.67.01,13.36-.37,19.96-1.41,3.29-.52,6.57-1.21,9.73-2.25,1.58-.52,3.12-1.15,4.55-1.97.7-.42,1.38-.9,1.93-1.48.55-.58.95-1.29.97-2.05-.01-.76-.41-1.48-.96-2.06-.55-.59-1.22-1.07-1.92-1.5-1.42-.84-2.96-1.48-4.54-2.01-3.16-1.06-6.43-1.78-9.73-2.32-6.6-1.09-13.29-1.52-19.98-1.56-6.69.03-13.39.45-19.99,1.53-3.29.55-6.57,1.27-9.73,2.34-1.58.54-3.12,1.18-4.54,2.02-.7.43-1.37.91-1.92,1.5-.54.58-.95,1.31-.95,2.07Zm-.49,0c.02-.94.51-1.76,1.1-2.38.6-.63,1.31-1.12,2.03-1.56,1.47-.85,3.04-1.48,4.64-2.01,3.2-1.04,6.49-1.73,9.8-2.25,6.62-1.05,13.33-1.44,20.03-1.44,6.7-.01,13.41.37,20.04,1.41,3.31.53,6.61,1.22,9.8,2.27,1.6.53,3.17,1.16,4.64,2.02.73.44,1.43.93,2.03,1.57.59.62,1.08,1.45,1.1,2.38-.01.93-.5,1.77-1.09,2.4-.6.64-1.3,1.14-2.03,1.59-1.47.86-3.04,1.51-4.64,2.05-3.2,1.08-6.49,1.79-9.8,2.34-6.63,1.09-13.35,1.52-20.06,1.56-6.71-.03-13.43-.45-20.07-1.54-3.31-.56-6.61-1.28-9.8-2.36-1.6-.54-3.16-1.2-4.63-2.06-.73-.45-1.43-.95-2.03-1.59-.59-.63-1.08-1.46-1.09-2.4Z"/>
            <path class="cls-2" d="m329.45,503.77c.02.72.37,1.4.88,1.96.51.57,1.13,1.04,1.79,1.46,1.34.82,2.82,1.44,4.32,1.97,3.02,1.04,6.17,1.72,9.33,2.23,3.16.52,6.36.86,9.56,1.09,3.2.24,6.42.34,9.63.35,6.42,0,12.86-.38,19.19-1.43,3.16-.53,6.31-1.2,9.33-2.24,1.51-.52,2.98-1.15,4.32-1.97.66-.42,1.29-.89,1.79-1.46.5-.56.86-1.24.88-1.96,0-.72-.36-1.41-.85-1.98-.5-.58-1.13-1.06-1.78-1.49-1.34-.84-2.81-1.49-4.31-2.03-3.02-1.08-6.16-1.81-9.33-2.36-6.34-1.09-12.79-1.53-19.23-1.57-6.44.01-12.9.44-19.24,1.55-3.17.56-6.31,1.29-9.33,2.37-1.5.55-2.97,1.19-4.31,2.03-.66.43-1.28.92-1.78,1.49-.5.57-.85,1.26-.85,1.98Zm-.61,0c.02-.92.47-1.73,1.03-2.36.56-.63,1.24-1.13,1.93-1.58,1.41-.85,2.91-1.49,4.45-2.02,3.07-1.05,6.24-1.74,9.43-2.26,3.19-.53,6.4-.87,9.62-1.1,3.22-.24,6.45-.34,9.67-.35,6.45,0,12.92.38,19.3,1.44,3.19.53,6.36,1.21,9.43,2.27,1.53.53,3.04,1.17,4.45,2.03.69.44,1.36.94,1.93,1.58.56.63,1.01,1.45,1.03,2.36,0,.92-.45,1.75-1,2.38-.56.64-1.23,1.16-1.92,1.61-1.4.88-2.91,1.54-4.44,2.09-3.07,1.09-6.24,1.83-9.43,2.39-6.39,1.1-12.87,1.54-19.34,1.57-6.47-.01-12.95-.44-19.34-1.56-3.19-.57-6.36-1.3-9.43-2.4-1.53-.56-3.04-1.22-4.44-2.09-.69-.45-1.36-.96-1.92-1.61-.55-.64-1-1.47-1-2.38Z"/>
            <path class="cls-2" d="m330.7,483.93c.01.68.34,1.33.81,1.88.47.55,1.06,1.03,1.69,1.44,1.28.82,2.7,1.44,4.14,1.96,2.91,1.04,5.96,1.72,9.02,2.23,3.06.53,6.16.86,9.27,1.09,3.1.24,6.22.34,9.34.35,6.23.01,12.47-.38,18.61-1.42,3.06-.53,6.11-1.2,9.02-2.24,1.45-.53,2.87-1.15,4.14-1.97.63-.41,1.22-.89,1.69-1.44.47-.55.79-1.2.8-1.88,0-.68-.31-1.34-.78-1.91-.46-.57-1.05-1.06-1.68-1.48-1.27-.85-2.69-1.49-4.13-2.04-2.91-1.09-5.95-1.83-9.02-2.39-6.15-1.1-12.41-1.55-18.66-1.59-3.13.01-6.25.12-9.37.37-3.11.25-6.22.65-9.29,1.21-3.07.57-6.11,1.3-9.02,2.4-1.45.56-2.86,1.2-4.13,2.05-.63.42-1.22.91-1.68,1.48-.46.56-.77,1.23-.77,1.91Zm-.73,0c.01-.9.44-1.72.97-2.35.54-.64,1.18-1.15,1.85-1.58,1.35-.87,2.81-1.5,4.3-2.04,2.98-1.06,6.05-1.74,9.15-2.27,3.09-.53,6.21-.87,9.34-1.1,3.12-.25,6.26-.34,9.39-.35,6.26-.01,12.54.38,18.73,1.44,3.09.54,6.17,1.21,9.14,2.28,1.48.54,2.94,1.17,4.3,2.04.67.44,1.31.95,1.85,1.59.53.63.96,1.45.97,2.35,0,.9-.42,1.73-.94,2.37-.53.65-1.17,1.17-1.84,1.62-1.35.89-2.81,1.55-4.29,2.12-2.97,1.11-6.05,1.85-9.15,2.42-6.2,1.11-12.5,1.56-18.78,1.6-3.14-.01-6.29-.12-9.43-.37-3.14-.26-6.26-.65-9.36-1.22-3.1-.58-6.17-1.32-9.15-2.43-1.48-.57-2.94-1.23-4.29-2.12-.67-.45-1.31-.98-1.84-1.63-.53-.64-.94-1.47-.94-2.37Z"/>
            <path class="cls-2" d="m333.09,366.31c.01.61.27,1.21.68,1.74.4.53.92.99,1.5,1.39,1.14.82,2.46,1.42,3.8,1.95,2.7,1.04,5.55,1.72,8.42,2.24,2.87.53,5.79.86,8.7,1.09,2.92.25,5.85.34,8.78.35,5.86.02,11.73-.37,17.49-1.42,2.87-.54,5.73-1.2,8.42-2.25,1.34-.53,2.66-1.14,3.8-1.96.57-.4,1.1-.87,1.5-1.39.4-.53.66-1.12.67-1.74,0-.61-.24-1.23-.63-1.77-.39-.54-.91-1.03-1.48-1.44-1.13-.85-2.45-1.5-3.79-2.06-2.69-1.11-5.55-1.87-8.42-2.44-5.77-1.13-11.67-1.59-17.56-1.64-2.95.01-5.89.12-8.83.38-1.47.12-2.93.3-4.39.51-1.46.2-2.91.45-4.35.74-2.87.59-5.73,1.34-8.42,2.46-1.34.57-2.65,1.21-3.79,2.06-.57.42-1.09.9-1.48,1.45-.39.54-.64,1.15-.63,1.77Zm-.98,0c.01-.87.38-1.68.87-2.32.49-.64,1.08-1.16,1.71-1.6,1.25-.89,2.63-1.52,4.01-2.07,2.79-1.08,5.69-1.76,8.61-2.29,2.92-.54,5.86-.87,8.81-1.1,2.95-.25,5.9-.35,8.86-.35,5.91-.02,11.84.37,17.67,1.44,2.91.55,5.81,1.22,8.6,2.31,1.39.55,2.76,1.18,4.01,2.08.63.44,1.22.96,1.71,1.6.48.64.85,1.44.86,2.32,0,.87-.35,1.7-.82,2.35-.48.66-1.07,1.2-1.69,1.65-1.24.93-2.61,1.59-4,2.18-2.79,1.15-5.69,1.91-8.61,2.5-5.85,1.14-11.8,1.61-17.74,1.66-2.97-.01-5.94-.12-8.91-.38-1.48-.12-2.96-.3-4.43-.51-1.47-.21-2.94-.45-4.4-.75-2.92-.6-5.82-1.36-8.61-2.51-1.39-.59-2.76-1.25-4-2.18-.62-.46-1.21-.99-1.69-1.65-.47-.65-.83-1.47-.82-2.35Z"/>
            <path class="cls-2" d="m333.02,346.56c.01.63.28,1.24.68,1.77.4.54.93,1,1.51,1.41,1.15.82,2.47,1.43,3.81,1.97,2.7,1.05,5.56,1.73,8.44,2.26,2.88.53,5.79.87,8.71,1.1,2.92.25,5.85.35,8.79.35,5.86.02,11.74-.38,17.5-1.43,2.87-.54,5.73-1.21,8.43-2.27,1.34-.54,2.67-1.15,3.81-1.97.58-.41,1.1-.87,1.51-1.41.41-.53.67-1.15.68-1.78,0-.63-.25-1.25-.65-1.8-.4-.55-.92-1.03-1.49-1.45-1.14-.86-2.46-1.5-3.8-2.06-2.7-1.11-5.56-1.86-8.44-2.44-5.77-1.13-11.67-1.58-17.56-1.63-2.95.01-5.89.12-8.83.37-1.47.12-2.93.3-4.39.5-1.46.2-2.91.44-4.35.74-2.88.59-5.74,1.33-8.44,2.45-1.34.57-2.66,1.21-3.8,2.07-.57.42-1.1.91-1.49,1.46-.4.55-.65,1.17-.65,1.8Zm-.86,0c.01-.86.37-1.65.85-2.28.48-.64,1.07-1.15,1.69-1.59,1.24-.89,2.62-1.52,4-2.07,2.78-1.08,5.68-1.77,8.59-2.3,2.91-.54,5.86-.88,8.8-1.11,2.95-.25,5.9-.35,8.86-.35,5.91-.02,11.83.38,17.66,1.45,2.91.55,5.81,1.23,8.59,2.31,1.38.55,2.76,1.18,4,2.08.62.44,1.21.96,1.69,1.59.48.63.84,1.43.85,2.28,0,.86-.35,1.67-.82,2.31-.47.65-1.06,1.18-1.68,1.64-1.24.92-2.6,1.58-3.99,2.17-2.78,1.14-5.68,1.9-8.59,2.48-5.85,1.14-11.79,1.6-17.73,1.64-2.97-.01-5.94-.12-8.9-.38-1.48-.12-2.96-.3-4.43-.51-1.47-.2-2.94-.45-4.4-.74-2.91-.6-5.81-1.35-8.59-2.49-1.38-.59-2.75-1.25-3.99-2.17-.62-.45-1.2-.99-1.68-1.64-.47-.64-.82-1.45-.81-2.31Z"/>
            <path class="cls-2" d="m332.24,326.81c.01.66.3,1.29.73,1.84.43.55.98,1.02,1.58,1.43,1.19.83,2.55,1.44,3.93,1.98,2.77,1.05,5.7,1.73,8.63,2.26,2.94.53,5.91.87,8.9,1.1,2.98.25,5.98.34,8.97.35,5.98.01,11.98-.38,17.87-1.44,2.93-.54,5.86-1.21,8.63-2.27,1.38-.54,2.74-1.15,3.93-1.98.6-.41,1.15-.89,1.58-1.43.43-.55.72-1.18.73-1.84,0-.66-.28-1.3-.7-1.86-.42-.56-.97-1.05-1.56-1.47-1.19-.85-2.54-1.5-3.92-2.06-2.77-1.1-5.69-1.84-8.63-2.41-5.9-1.12-11.91-1.57-17.92-1.61-3,.01-6.01.12-9,.37-1.5.12-2.99.29-4.48.5-1.49.2-2.97.44-4.44.73-2.94.58-5.86,1.32-8.63,2.42-1.38.56-2.73,1.2-3.92,2.06-.6.42-1.14.91-1.56,1.47-.42.56-.7,1.2-.7,1.86Zm-.73,0c.01-.86.39-1.66.88-2.28.5-.63,1.1-1.15,1.73-1.58,1.27-.88,2.67-1.51,4.09-2.06,2.84-1.08,5.8-1.76,8.76-2.3,2.97-.54,5.97-.88,8.97-1.11,3-.25,6.02-.35,9.03-.35,6.02-.01,12.06.38,18,1.45,2.97.55,5.92,1.23,8.76,2.31,1.41.55,2.81,1.18,4.09,2.06.64.43,1.24.95,1.73,1.58.49.63.87,1.42.88,2.28,0,.86-.36,1.67-.85,2.3-.49.64-1.09,1.18-1.72,1.62-1.27.91-2.66,1.57-4.07,2.14-2.84,1.13-5.79,1.87-8.76,2.45-5.96,1.13-12.01,1.58-18.05,1.62-3.02-.01-6.05-.12-9.06-.37-1.51-.12-3.01-.3-4.51-.5-1.5-.2-3-.44-4.48-.73-2.97-.59-5.93-1.33-8.76-2.46-1.41-.58-2.81-1.23-4.07-2.14-.63-.45-1.23-.98-1.72-1.62-.49-.64-.85-1.44-.85-2.3Z"/>
            <path class="cls-2" d="m331.08,307.06c.01.69.33,1.35.79,1.91.46.56,1.04,1.04,1.67,1.45,1.26.83,2.66,1.45,4.1,1.98,2.88,1.05,5.89,1.73,8.92,2.26,3.03.53,6.1.87,9.17,1.11,3.07.25,6.16.34,9.24.35,6.16,0,12.34-.39,18.41-1.44,3.03-.54,6.04-1.21,8.92-2.27,1.43-.53,2.84-1.16,4.09-1.98.63-.41,1.21-.9,1.67-1.45.46-.56.78-1.22.79-1.91,0-.69-.31-1.36-.77-1.93-.46-.57-1.03-1.06-1.66-1.49-1.25-.85-2.66-1.49-4.09-2.05-2.87-1.09-5.89-1.82-8.92-2.39-6.08-1.1-12.27-1.55-18.45-1.58-6.18.01-12.38.44-18.45,1.57-3.03.57-6.05,1.3-8.92,2.39-1.43.56-2.83,1.2-4.09,2.05-.63.42-1.2.92-1.66,1.49-.46.57-.77,1.24-.77,1.93Zm-.61,0c.01-.87.41-1.67.93-2.29.52-.63,1.14-1.14,1.8-1.58,1.32-.87,2.76-1.5,4.22-2.05,2.93-1.07,5.97-1.76,9.03-2.29,3.06-.53,6.14-.88,9.23-1.11,3.09-.25,6.19-.35,9.29-.35,6.19,0,12.4.39,18.52,1.45,3.05.54,6.09,1.22,9.03,2.3,1.46.55,2.9,1.18,4.22,2.05.66.43,1.28.95,1.8,1.58.52.62.92,1.42.93,2.29,0,.87-.39,1.68-.9,2.31-.52.64-1.14,1.16-1.79,1.61-1.32.89-2.76,1.55-4.21,2.11-2.93,1.11-5.97,1.85-9.03,2.42-6.13,1.11-12.35,1.55-18.56,1.59-6.21-.01-12.44-.45-18.56-1.58-3.06-.58-6.1-1.31-9.03-2.42-1.46-.57-2.9-1.22-4.21-2.12-.66-.45-1.28-.97-1.79-1.61-.51-.63-.9-1.44-.9-2.31Z"/>
            <path class="cls-2" d="m329.91,287.3c.01.73.37,1.42.86,1.98.5.57,1.11,1.05,1.77,1.47,1.32.83,2.78,1.45,4.26,1.98,2.98,1.04,6.09,1.73,9.21,2.26,6.25,1.06,12.61,1.46,18.95,1.46,6.34.01,12.7-.38,18.96-1.43,3.12-.53,6.23-1.22,9.21-2.27,1.48-.53,2.94-1.16,4.26-1.99.65-.42,1.27-.9,1.77-1.48.49-.57.85-1.26.86-1.99,0-.73-.35-1.42-.85-2-.49-.58-1.11-1.07-1.76-1.5-1.32-.84-2.77-1.48-4.26-2.03-2.98-1.08-6.08-1.79-9.21-2.35-6.26-1.1-12.63-1.54-18.99-1.58-6.36.03-12.73.46-18.99,1.55-3.12.56-6.23,1.28-9.21,2.37-1.48.55-2.94,1.19-4.25,2.04-.65.43-1.27.92-1.76,1.5-.49.58-.84,1.27-.84,2Zm-.49,0c.01-.88.44-1.68.98-2.3.54-.63,1.2-1.13,1.88-1.57,1.37-.86,2.86-1.49,4.36-2.03,3.02-1.06,6.15-1.75,9.29-2.28,6.29-1.06,12.67-1.46,19.04-1.46,6.37-.01,12.75.38,19.04,1.43,3.14.53,6.27,1.23,9.29,2.29,1.51.54,2.99,1.18,4.36,2.04.68.44,1.33.94,1.87,1.57.54.62.96,1.42.98,2.3,0,.88-.43,1.69-.96,2.32-.54.63-1.19,1.14-1.87,1.59-1.37.87-2.85,1.53-4.35,2.08-3.02,1.09-6.15,1.81-9.29,2.37-6.3,1.1-12.69,1.55-19.07,1.59-6.38-.03-12.77-.46-19.07-1.56-3.14-.57-6.27-1.29-9.29-2.39-1.5-.56-2.98-1.21-4.35-2.09-.68-.45-1.33-.96-1.87-1.59-.53-.63-.95-1.44-.96-2.32Z"/>
            <path class="cls-2" d="m328.39,267.55c.02.77.42,1.49.95,2.07.54.59,1.2,1.06,1.89,1.49,1.4.83,2.92,1.46,4.47,1.98,3.11,1.04,6.34,1.73,9.59,2.25,6.5,1.05,13.09,1.45,19.67,1.45,6.58,0,13.18-.39,19.68-1.43,3.25-.53,6.47-1.22,9.58-2.27,1.55-.52,3.07-1.16,4.47-1.99.69-.43,1.35-.91,1.89-1.49.54-.58.94-1.3.95-2.08,0-.77-.41-1.5-.94-2.08-.54-.59-1.2-1.08-1.89-1.51-1.4-.84-2.92-1.48-4.47-2.02-3.11-1.06-6.34-1.78-9.58-2.32-6.5-1.08-13.1-1.51-19.7-1.55-6.59.03-13.2.45-19.7,1.52-3.25.55-6.47,1.27-9.58,2.33-1.55.54-3.07,1.18-4.47,2.02-.69.43-1.35.92-1.89,1.51-.54.59-.93,1.31-.94,2.09Zm-.37,0c.02-.9.48-1.7,1.05-2.32.58-.63,1.26-1.12,1.97-1.56,1.44-.85,2.98-1.49,4.55-2.02,3.14-1.05,6.39-1.74,9.64-2.27,6.52-1.06,13.13-1.46,19.73-1.46,6.6,0,13.21.39,19.74,1.44,3.26.53,6.5,1.23,9.64,2.28,1.57.53,3.11,1.17,4.55,2.02.71.44,1.4.93,1.97,1.56.57.62,1.03,1.42,1.05,2.32-.01.9-.47,1.71-1.04,2.33-.57.63-1.26,1.13-1.97,1.57-1.44.86-2.97,1.51-4.54,2.05-3.14,1.07-6.38,1.79-9.64,2.34-6.53,1.09-13.15,1.52-19.76,1.55-6.61-.03-13.23-.45-19.76-1.53-3.26-.55-6.5-1.27-9.64-2.35-1.57-.54-3.11-1.2-4.54-2.06-.71-.45-1.39-.95-1.97-1.58-.57-.62-1.03-1.43-1.03-2.33Z"/>
            <path class="cls-2" d="m326.48,247.8c.02.83.48,1.58,1.07,2.18.6.6,1.31,1.08,2.05,1.5,1.49.83,3.1,1.46,4.73,1.98,3.28,1.04,6.66,1.73,10.06,2.25,6.8,1.05,13.7,1.44,20.58,1.45,6.88,0,13.78-.39,20.58-1.44,3.4-.52,6.78-1.22,10.06-2.25,1.63-.52,3.24-1.15,4.73-1.98.74-.43,1.45-.9,2.05-1.5.59-.59,1.05-1.35,1.07-2.18-.02-.83-.47-1.59-1.06-2.18-.59-.6-1.31-1.08-2.04-1.51-1.49-.84-3.1-1.47-4.73-2-3.27-1.05-6.66-1.76-10.06-2.29-6.81-1.07-13.7-1.48-20.59-1.51-6.89.02-13.79.44-20.59,1.5-3.4.54-6.78,1.25-10.06,2.3-1.63.53-3.24,1.16-4.73,2-.74.43-1.45.91-2.04,1.52-.59.59-1.05,1.36-1.06,2.18Zm-.24,0c.02-.92.53-1.73,1.14-2.35.62-.62,1.35-1.11,2.1-1.54,1.52-.85,3.14-1.47,4.78-2,3.29-1.04,6.69-1.73,10.09-2.26,6.82-1.05,13.72-1.45,20.62-1.45,6.89,0,13.8.4,20.62,1.44,3.41.53,6.8,1.22,10.09,2.26,1.64.53,3.26,1.15,4.78,2,.75.43,1.48.92,2.1,1.54.61.61,1.12,1.43,1.14,2.35-.02.92-.52,1.74-1.13,2.35-.62.63-1.35,1.12-2.1,1.55-1.51.85-3.13,1.49-4.78,2.02-3.29,1.06-6.68,1.76-10.09,2.3-6.82,1.07-13.73,1.49-20.63,1.51-6.9-.02-13.81-.44-20.63-1.5-3.41-.54-6.8-1.25-10.09-2.31-1.64-.53-3.26-1.17-4.78-2.03-.75-.44-1.48-.93-2.1-1.56-.61-.62-1.12-1.43-1.13-2.36Z"/>
            <path class="cls-2" d="m323.97,228.05c.02.9.57,1.7,1.23,2.3.67.61,1.45,1.08,2.25,1.51,1.61.84,3.33,1.45,5.07,1.97,3.49,1.03,7.07,1.72,10.67,2.24,7.21,1.03,14.5,1.43,21.78,1.44,7.28,0,14.57-.4,21.78-1.44,3.6-.52,7.19-1.21,10.67-2.24,1.74-.52,3.46-1.13,5.07-1.97.8-.42,1.58-.9,2.25-1.51.66-.6,1.21-1.4,1.23-2.3-.02-.9-.57-1.7-1.23-2.3-.67-.61-1.45-1.09-2.25-1.51-1.61-.84-3.33-1.45-5.07-1.98-3.49-1.04-7.07-1.73-10.67-2.26-7.21-1.05-14.5-1.45-21.78-1.47-7.28.02-14.57.43-21.78,1.47-3.6.53-7.19,1.22-10.67,2.26-1.74.53-3.46,1.14-5.07,1.98-.8.43-1.58.9-2.25,1.51-.66.6-1.21,1.4-1.23,2.3Zm-.12,0c.03-.95.6-1.78,1.27-2.39.68-.62,1.47-1.1,2.27-1.53,1.62-.85,3.35-1.46,5.09-1.98,3.5-1.03,7.09-1.72,10.69-2.24,7.22-1.04,14.51-1.43,21.79-1.44,7.28,0,14.58.4,21.79,1.44,3.6.52,7.19,1.21,10.69,2.24,1.74.52,3.47,1.13,5.09,1.98.81.43,1.59.91,2.27,1.53.67.61,1.24,1.43,1.27,2.39-.02.95-.6,1.78-1.27,2.39-.68.62-1.47,1.1-2.27,1.53-1.62.85-3.35,1.46-5.09,1.99-3.5,1.04-7.09,1.73-10.69,2.26-7.22,1.05-14.51,1.45-21.8,1.48-7.29-.02-14.58-.43-21.8-1.48-3.6-.53-7.19-1.22-10.69-2.26-1.74-.53-3.47-1.14-5.09-1.99-.8-.43-1.59-.91-2.27-1.53-.67-.61-1.24-1.44-1.27-2.39Z"/>
            <path class="cls-2" d="m320.97,208.3c.02.97.57,1.85,1.26,2.52.69.68,1.52,1.22,2.37,1.71,1.71.95,3.55,1.65,5.42,2.24,3.74,1.17,7.6,1.95,11.48,2.55,7.76,1.18,15.62,1.63,23.47,1.64,7.85-.01,15.71-.46,23.47-1.64,3.88-.59,7.73-1.37,11.48-2.55,1.87-.59,3.71-1.29,5.42-2.24.85-.48,1.67-1.02,2.37-1.71.69-.67,1.24-1.55,1.26-2.52-.02-.97-.57-1.85-1.26-2.53-.69-.69-1.52-1.23-2.37-1.71-1.71-.95-3.55-1.65-5.42-2.25-3.74-1.18-7.6-1.97-11.48-2.57-7.76-1.19-15.62-1.65-23.47-1.67-7.85.02-15.71.48-23.47,1.67-3.88.6-7.73,1.39-11.48,2.57-1.87.59-3.71,1.3-5.42,2.25-.85.48-1.67,1.03-2.37,1.71-.69.68-1.24,1.55-1.26,2.53Zm-.12,0c.02-1.02.6-1.93,1.3-2.61.71-.7,1.54-1.24,2.39-1.73,1.73-.95,3.57-1.66,5.45-2.25,3.75-1.17,7.62-1.96,11.5-2.55,7.77-1.18,15.63-1.63,23.49-1.64,7.85.01,15.72.46,23.49,1.64,3.88.59,7.74,1.38,11.5,2.55,1.87.59,3.72,1.3,5.45,2.25.85.49,1.69,1.03,2.39,1.73.7.69,1.27,1.59,1.3,2.61-.02,1.02-.6,1.93-1.29,2.61-.71.7-1.54,1.24-2.39,1.73-1.73.96-3.57,1.66-5.44,2.26-3.75,1.18-7.61,1.97-11.5,2.57-7.77,1.19-15.64,1.65-23.49,1.68-7.85-.02-15.72-.48-23.49-1.68-3.88-.6-7.74-1.39-11.5-2.57-1.87-.6-3.72-1.3-5.44-2.26-.85-.49-1.69-1.03-2.39-1.73-.7-.69-1.27-1.59-1.29-2.61Z"/>
            <path class="cls-2" d="m317.08,188.55c0,.53.15,1.04.39,1.51.25.47.58.89.95,1.27.74.76,1.63,1.37,2.56,1.9,1.86,1.06,3.86,1.83,5.89,2.5,4.07,1.31,8.28,2.18,12.51,2.85,8.46,1.31,17.04,1.82,25.6,1.83,8.56,0,17.13-.51,25.6-1.83,4.23-.67,8.43-1.53,12.51-2.85,2.03-.67,4.04-1.44,5.89-2.5.92-.53,1.81-1.14,2.56-1.9.37-.38.7-.8.95-1.27.24-.47.38-.99.39-1.51,0-.53-.15-1.05-.39-1.51-.24-.47-.57-.89-.94-1.27-.74-.76-1.63-1.37-2.55-1.91-1.85-1.06-3.86-1.84-5.89-2.51-4.07-1.32-8.28-2.19-12.51-2.86-8.46-1.33-17.04-1.85-25.6-1.86-8.56.02-17.14.54-25.6,1.86-4.23.68-8.43,1.55-12.51,2.86-2.03.67-4.04,1.45-5.89,2.51-.92.53-1.81,1.14-2.55,1.91-.37.38-.7.8-.94,1.27-.24.47-.38.99-.39,1.51Zm-.12,0c0-.55.15-1.09.4-1.57.25-.48.59-.91.97-1.3.76-.77,1.65-1.39,2.58-1.92,1.87-1.07,3.88-1.84,5.92-2.51,4.08-1.32,8.3-2.18,12.53-2.85,8.47-1.31,17.05-1.82,25.62-1.83,8.57,0,17.15.51,25.62,1.83,4.23.67,8.44,1.53,12.53,2.85,2.04.67,4.05,1.44,5.92,2.51.93.54,1.83,1.15,2.58,1.92.38.39.71.82.97,1.3.25.48.4,1.02.4,1.57,0,.55-.15,1.09-.4,1.57-.25.48-.59.91-.97,1.3-.76.77-1.65,1.39-2.58,1.93-1.87,1.07-3.88,1.85-5.91,2.52-4.08,1.32-8.29,2.19-12.53,2.87-8.47,1.33-17.05,1.85-25.62,1.87-8.57-.02-17.15-.54-25.62-1.87-4.23-.68-8.44-1.55-12.53-2.87-2.03-.67-4.05-1.45-5.91-2.52-.93-.54-1.82-1.15-2.58-1.93-.38-.39-.71-.82-.97-1.3-.25-.48-.4-1.02-.4-1.57Z"/>
          </g>
        </g>
      </g>
      <g>
        <g>
          <g>
            <g>
              <path class="cls-2" d="m354.68,116.7c-5.6-55.81-19.78-85.87-54.18-114.88l.51-.6c34.58,29.16,48.83,59.36,54.46,115.4l-.78.08Z"/>
              <path class="cls-2" d="m343.86,116.37c-11.59-50.7-41.06-81.65-105.13-110.37l.32-.72c32.17,14.42,54.86,29.09,71.42,46.16,17.28,17.81,28.13,38.39,34.16,64.76l-.77.18Z"/>
              <path class="cls-2" d="m331.29,115.64c-19.99-49.02-63.85-71.17-154.62-102.27l.26-.75c43.29,14.84,77.38,27.98,103.07,43.94,25.98,16.14,42.02,34.26,52.02,58.78l-.73.3Z"/>
              <path class="cls-2" d="m316.31,114.25c-13.16-23.42-33.36-40.09-65.51-54.06-34.61-15.04-83.08-26.4-130.29-36.43l.2-.96c47.26,10.04,95.78,21.41,130.48,36.49,32.36,14.06,52.71,30.87,65.98,54.48l-.86.48Z"/>
              <path class="cls-2" d="m302.73,112.42c-37.21-48.17-101.71-53.92-208.57-63.45-13.92-1.24-28.31-2.52-43.59-3.98l.11-1.18c15.27,1.46,29.66,2.74,43.58,3.98,54.12,4.83,96.86,8.64,131,17.32,36.5,9.28,60.68,23.65,78.4,46.58l-.94.72Z"/>
              <path class="cls-2" d="m287.75,109.46c-44.49-38.64-122.77-38.11-231.11-37.36-15.65.11-31.83.22-48.68.22v-1.18c16.85,0,33.03-.11,48.67-.22,108.6-.74,187.07-1.28,231.9,37.65l-.78.89Z"/>
            </g>
            <rect class="cls-2" x="364.57" y=".14" width=".79" height="116.64"/>
          </g>
          <g>
            <g>
              <path class="cls-2" d="m375.31,116.7l-.78-.08c5.63-56.04,19.88-86.24,54.45-115.4l.51.6c-34.4,29.01-48.58,59.07-54.18,114.88Z"/>
              <path class="cls-2" d="m386.13,116.37l-.77-.18c6.03-26.37,16.88-46.95,34.16-64.76,16.56-17.07,39.25-31.74,71.42-46.16l.32.72c-64.07,28.72-93.54,59.67-105.13,110.37Z"/>
              <path class="cls-2" d="m398.7,115.64l-.73-.3c10-24.52,26.04-42.65,52.02-58.78,25.69-15.96,59.79-29.11,103.07-43.94l.26.75c-90.77,31.11-134.63,53.25-154.62,102.27Z"/>
              <path class="cls-2" d="m413.68,114.25l-.86-.48c13.27-23.62,33.62-40.42,65.98-54.48,34.69-15.08,83.21-26.45,130.48-36.49l.2.96c-47.21,10.03-95.68,21.39-130.29,36.43-32.15,13.97-52.35,30.65-65.51,54.06Z"/>
              <path class="cls-2" d="m427.26,112.42l-.94-.72c17.72-22.94,41.9-37.3,78.4-46.58,34.14-8.68,76.89-12.49,131-17.32,13.92-1.24,28.31-2.52,43.58-3.98l.11,1.18c-15.27,1.46-29.67,2.74-43.59,3.98-106.86,9.53-171.36,15.28-208.57,63.45Z"/>
              <path class="cls-2" d="m442.24,109.46l-.78-.89c44.83-38.93,123.29-38.4,231.9-37.65,15.65.11,31.82.22,48.67.22v1.18c-16.85,0-33.03-.11-48.68-.22-108.34-.74-186.63-1.28-231.11,37.36Z"/>
            </g>
            <rect class="cls-2" x="364.63" y=".14" width=".79" height="116.64"/>
          </g>
        </g>
        <g>
          <g>
            <path class="cls-2" d="m275.63,106.22c-18.22-13.54-45.78-20.28-86.71-21.21-38.03-.86-85.39,3.19-140.22,7.88-15.17,1.3-30.86,2.64-47.21,3.95l-.13-1.57c16.35-1.31,32.04-2.66,47.21-3.95,54.88-4.69,102.27-8.75,140.39-7.89,20.12.45,36.67,2.25,50.57,5.49,15.16,3.53,27.28,8.78,37.05,16.03l-.94,1.27Z"/>
            <path class="cls-2" d="m24.47,122.57l-.27-1.55c.56-.1,56.39-9.84,116.35-16.35,35.23-3.83,64.97-5.8,88.41-5.88,29.41-.09,48.97,2.83,58.15,8.7.35.22.69.45,1.03.68l-.9,1.3c-.32-.22-.65-.44-.98-.65-16.06-10.28-66.38-11.17-145.53-2.58-59.91,6.51-115.7,16.23-116.25,16.33Z"/>
            <path class="cls-2" d="m61.65,140.2l-.35-1.54c.5-.11,51.1-11.56,105.19-20.74,72.76-12.35,116.87-14.93,131.12-7.67l-.72,1.4c-33.33-17-233.23,28.09-235.24,28.54Z"/>
            <path class="cls-2" d="m129.04,158.81l-.54-1.48c.38-.14,38.18-13.86,78.93-26.23,54.84-16.66,88.64-23.07,100.45-19.07l-.51,1.49c-27.53-9.33-176.83,44.74-178.34,45.29Z"/>
            <path class="cls-2" d="m197.34,170.05l-.8-1.36c10-5.91,98.38-57.66,121.94-55.26l-.16,1.57c-23.06-2.35-111.02,49.17-120.98,55.05Z"/>
            <path class="cls-2" d="m276.74,177.23l-1.27-.94c19-25.68,52.32-61.04,64-61.04.1,0,.2,0,.29,0l-.08,1.57c-4.67-.26-15.01,7.2-28.36,20.45-11.68,11.59-24.93,26.9-34.59,39.95Z"/>
            <path class="cls-2" d="m328.66,179.21l-1.51-.44c2.7-9.31,7.51-24.72,12.18-37.51,9.3-25.44,12.48-25.44,13.68-25.44v1.58c-.77,0-3.93,1.76-12.2,24.4-4.66,12.75-9.45,28.11-12.15,37.4Z"/>
            <rect class="cls-2" x="364.18" y="116.77" width="1.58" height="62.7"/>
          </g>
          <g>
            <path class="cls-2" d="m454.35,106.22l-.94-1.27c9.76-7.26,21.88-12.5,37.05-16.03,13.9-3.24,30.44-5.03,50.57-5.49,38.12-.86,85.51,3.19,140.39,7.89,15.17,1.3,30.85,2.64,47.21,3.95l-.13,1.57c-16.36-1.31-32.04-2.66-47.21-3.95-54.83-4.69-102.19-8.74-140.22-7.88-40.93.93-68.49,7.66-86.71,21.21Z"/>
            <path class="cls-2" d="m705.52,122.57c-.56-.1-56.35-9.83-116.26-16.33-79.14-8.59-129.47-7.7-145.52,2.58-.33.21-.66.43-.98.65l-.9-1.3c.34-.23.68-.46,1.03-.68,9.17-5.87,28.74-8.79,58.15-8.7,23.43.08,53.18,2.06,88.41,5.88,59.96,6.51,115.8,16.25,116.35,16.35l-.27,1.55Z"/>
            <path class="cls-2" d="m668.34,140.2c-.5-.11-51.06-11.55-105.11-20.73-71.39-12.12-116.39-14.82-130.13-7.82l-.72-1.4c14.24-7.26,58.36-4.68,131.12,7.67,54.09,9.18,104.69,20.63,105.19,20.74l-.35,1.54Z"/>
            <path class="cls-2" d="m600.95,158.81c-1.5-.55-150.81-54.62-178.34-45.29l-.51-1.49c11.82-4.01,45.61,2.41,100.45,19.07,40.75,12.38,78.55,26.1,78.93,26.23l-.54,1.48Z"/>
            <path class="cls-2" d="m532.64,170.05c-9.95-5.88-97.9-57.4-120.98-55.05l-.16-1.57c23.55-2.4,111.94,49.35,121.94,55.26l-.8,1.36Z"/>
            <path class="cls-2" d="m453.25,177.23c-9.65-13.04-22.9-28.35-34.59-39.95-13.35-13.25-23.69-20.7-28.36-20.45l-.08-1.57c11.41-.61,45.14,35.13,64.3,61.03l-1.27.94Z"/>
            <path class="cls-2" d="m401.32,179.21c-2.69-9.29-7.49-24.66-12.15-37.4-8.28-22.64-11.43-24.4-12.2-24.4v-1.58c1.2,0,4.39,0,13.68,25.44,4.67,12.78,9.48,28.19,12.18,37.51l-1.51.44Z"/>
            <rect class="cls-2" x="364.23" y="116.77" width="1.58" height="62.7"/>
          </g>
        </g>
        <g>
          <path class="cls-2" d="m1.1,89.79c.02,1.98.27,3.96.8,5.88.53,1.91,1.27,3.77,2.21,5.53,1.88,3.53,4.41,6.69,7.25,9.54,2.84,2.85,5.99,5.4,9.27,7.74,3.29,2.35,6.73,4.48,10.25,6.47,7.05,3.97,14.43,7.37,21.93,10.43,7.51,3.06,15.17,5.76,22.89,8.23,15.46,4.93,31.21,8.94,47.08,12.4,15.87,3.45,31.86,6.34,47.91,8.81,32.11,4.95,64.46,8.26,96.87,10.45,32.42,2.2,64.91,3.22,97.4,3.23,32.49.02,64.99-.98,97.41-3.16,32.41-2.19,64.76-5.53,96.87-10.48,16.05-2.49,32.04-5.37,47.91-8.82,15.86-3.46,31.61-7.47,47.08-12.4,7.73-2.48,15.38-5.18,22.89-8.23,7.51-3.06,14.88-6.46,21.93-10.43,3.52-1.99,6.96-4.12,10.25-6.47,3.28-2.35,6.43-4.89,9.27-7.74,2.84-2.85,5.37-6.01,7.25-9.54.95-1.76,1.68-3.62,2.21-5.53.53-1.91.78-3.9.8-5.88-.01-1.98-.26-3.97-.79-5.88-.52-1.92-1.26-3.78-2.2-5.54-1.87-3.54-4.4-6.71-7.23-9.57-2.83-2.86-5.98-5.42-9.26-7.78-3.28-2.36-6.72-4.5-10.24-6.51-7.05-4-14.42-7.42-21.92-10.5-7.51-3.08-15.16-5.81-22.88-8.31-15.46-4.98-31.21-9.04-47.07-12.55-15.87-3.5-31.86-6.44-47.92-8.95-32.12-5.01-64.48-8.4-96.91-10.65C429.99,1.31,397.48.25,364.97.22c-32.51.01-65.02,1.05-97.46,3.26-32.43,2.24-64.79,5.66-96.91,10.68-16.05,2.52-32.05,5.46-47.91,8.96-15.86,3.51-31.61,7.57-47.07,12.55-7.72,2.5-15.38,5.23-22.88,8.31-7.5,3.08-14.87,6.51-21.92,10.51-3.52,2.01-6.96,4.15-10.24,6.51-3.28,2.36-6.42,4.92-9.26,7.78-2.83,2.86-5.36,6.04-7.23,9.57-.94,1.76-1.68,3.63-2.2,5.54-.53,1.92-.77,3.9-.79,5.88Zm-1.1,0c.02-2.08.29-4.16.84-6.16.55-2,1.32-3.94,2.3-5.76,1.95-3.65,4.55-6.89,7.44-9.8,2.9-2.91,6.09-5.49,9.41-7.86,3.32-2.38,6.8-4.52,10.35-6.53,7.11-4,14.52-7.42,22.06-10.49,7.54-3.07,15.22-5.78,22.97-8.26,15.51-4.94,31.29-8.96,47.18-12.42,15.89-3.46,31.9-6.35,47.98-8.82,32.15-4.95,64.52-8.26,96.96-10.46C299.93,1.02,332.45,0,364.97,0c32.51-.02,65.03.98,97.48,3.17,32.44,2.19,64.82,5.53,96.96,10.49,16.07,2.49,32.08,5.37,47.97,8.83,15.89,3.47,31.67,7.49,47.18,12.43,7.75,2.48,15.43,5.19,22.97,8.26,7.54,3.07,14.95,6.49,22.06,10.49,3.55,2.01,7.02,4.16,10.35,6.53,3.32,2.37,6.51,4.96,9.41,7.86,2.89,2.9,5.49,6.15,7.44,9.8.98,1.82,1.75,3.76,2.3,5.76.55,2,.82,4.08.84,6.16-.01,2.08-.28,4.16-.82,6.17-.55,2-1.31,3.95-2.29,5.77-1.94,3.66-4.54,6.92-7.42,9.83-2.89,2.92-6.08,5.51-9.4,7.9-3.32,2.39-6.79,4.55-10.34,6.57-7.1,4.03-14.51,7.47-22.05,10.56-7.54,3.1-15.22,5.83-22.96,8.34-15.5,4.99-31.28,9.06-47.17,12.58-15.89,3.5-31.91,6.45-47.98,8.96-32.16,5.02-64.55,8.41-97,10.66-32.46,2.24-64.99,3.29-97.53,3.33-32.53-.01-65.07-1.05-97.53-3.27-32.46-2.24-64.85-5.66-97-10.69-16.07-2.53-32.09-5.47-47.98-8.97-15.89-3.52-31.67-7.59-47.17-12.58-7.75-2.51-15.42-5.24-22.96-8.34-7.54-3.1-14.95-6.54-22.05-10.57-3.55-2.02-7.02-4.18-10.34-6.57-3.32-2.39-6.51-4.98-9.4-7.9-2.89-2.91-5.48-6.17-7.42-9.83-.97-1.82-1.74-3.77-2.29-5.77-.55-2-.81-4.09-.82-6.17Z"/>
          <path class="cls-2" d="m64.9,89.79c.04,3.31.94,6.58,2.51,9.5,1.57,2.93,3.67,5.55,6.01,7.91,2.35,2.36,4.95,4.47,7.65,6.42,2.71,1.96,5.56,3.7,8.47,5.35,5.81,3.3,11.91,6.09,18.09,8.63,6.19,2.53,12.51,4.76,18.88,6.8,12.75,4.08,25.73,7.4,38.81,10.26,13.08,2.87,26.26,5.25,39.49,7.3,26.47,4.1,53.13,6.86,79.85,8.68,26.72,1.82,53.51,2.64,80.29,2.65,26.78,0,53.57-.82,80.29-2.64,26.72-1.82,53.39-4.58,79.86-8.67,13.23-2.05,26.41-4.44,39.49-7.31,13.08-2.87,26.06-6.19,38.81-10.27,6.37-2.05,12.69-4.27,18.88-6.81,6.18-2.54,12.28-5.33,18.09-8.63,2.9-1.65,5.76-3.4,8.46-5.35,2.71-1.95,5.31-4.06,7.65-6.42,2.34-2.36,4.44-4.98,6.01-7.91,1.57-2.92,2.46-6.2,2.51-9.5-.04-3.31-.93-6.59-2.5-9.51-1.57-2.93-3.67-5.55-6.01-7.92-2.35-2.37-4.94-4.48-7.65-6.43-2.7-1.96-5.56-3.71-8.46-5.36-5.81-3.31-11.91-6.1-18.09-8.65-6.19-2.54-12.51-4.77-18.88-6.83-12.75-4.1-25.73-7.43-38.81-10.31-13.08-2.88-26.26-5.28-39.49-7.34-26.47-4.12-53.14-6.9-79.86-8.75-26.73-1.84-53.52-2.68-80.31-2.71-26.79.03-53.58.86-80.31,2.7-26.72,1.84-53.39,4.62-79.87,8.73-13.23,2.07-26.42,4.47-39.49,7.35-13.08,2.88-26.06,6.22-38.81,10.31-6.37,2.06-12.69,4.29-18.88,6.83-6.18,2.55-12.28,5.35-18.09,8.65-2.9,1.66-5.76,3.4-8.46,5.36-2.71,1.95-5.3,4.07-7.65,6.43-2.34,2.36-4.44,4.99-6.01,7.92-1.56,2.92-2.46,6.2-2.5,9.51Zm-.49,0c.04-3.4.97-6.76,2.57-9.73,1.6-2.98,3.73-5.64,6.1-8.02,2.37-2.39,4.99-4.51,7.72-6.47,2.72-1.97,5.59-3.72,8.51-5.38,5.84-3.31,11.95-6.11,18.15-8.65,6.21-2.54,12.53-4.76,18.91-6.82,12.77-4.09,25.77-7.41,38.86-10.27,13.09-2.87,26.28-5.25,39.52-7.3,26.48-4.1,53.16-6.87,79.89-8.69,26.73-1.82,53.53-2.64,80.33-2.66,26.79,0,53.59.82,80.33,2.64,26.73,1.82,53.41,4.58,79.9,8.67,13.24,2.06,26.43,4.44,39.52,7.31,13.09,2.87,26.09,6.19,38.86,10.28,6.38,2.05,12.71,4.28,18.91,6.82,6.2,2.55,12.31,5.34,18.15,8.66,2.91,1.66,5.78,3.41,8.51,5.38,2.73,1.96,5.34,4.09,7.72,6.47,2.37,2.39,4.5,5.04,6.1,8.02,1.6,2.98,2.52,6.34,2.56,9.73-.04,3.4-.96,6.76-2.56,9.74-1.6,2.99-3.73,5.64-6.09,8.03-2.37,2.39-4.99,4.52-7.71,6.48-2.72,1.97-5.59,3.73-8.51,5.39-5.84,3.32-11.95,6.12-18.15,8.68-6.21,2.55-12.53,4.78-18.91,6.84-12.77,4.1-25.77,7.44-38.85,10.32-13.09,2.88-26.28,5.28-39.52,7.35-26.49,4.12-53.17,6.91-79.9,8.75-26.74,1.84-53.54,2.68-80.34,2.72-26.8-.03-53.6-.86-80.34-2.7-26.74-1.84-53.42-4.62-79.91-8.74-13.24-2.07-26.43-4.47-39.52-7.36-13.09-2.89-26.09-6.22-38.85-10.33-6.38-2.06-12.71-4.3-18.91-6.84-6.2-2.56-12.31-5.36-18.15-8.68-2.91-1.66-5.78-3.42-8.51-5.39-2.73-1.96-5.34-4.1-7.71-6.49-2.37-2.39-4.5-5.05-6.09-8.04-1.59-2.98-2.52-6.34-2.55-9.74Z"/>
          <path class="cls-2" d="m129.14,89.79c.04,2.57.73,5.11,1.96,7.39,1.22,2.28,2.87,4.33,4.7,6.17,3.7,3.69,8.08,6.64,12.64,9.22,4.56,2.59,9.35,4.77,14.21,6.77,4.87,1.99,9.83,3.73,14.84,5.34,10.02,3.2,20.23,5.8,30.51,8.05,10.28,2.25,20.65,4.11,31.05,5.72,20.81,3.22,41.78,5.38,62.78,6.81,21.01,1.43,42.07,2.07,63.13,2.07,21.06,0,42.12-.63,63.14-2.05,21.01-1.42,41.98-3.58,62.79-6.79,10.4-1.61,20.77-3.48,31.05-5.73,10.28-2.25,20.49-4.85,30.51-8.06,5.01-1.61,9.97-3.35,14.84-5.34,4.86-2,9.65-4.18,14.21-6.77,4.56-2.58,8.95-5.54,12.64-9.22,1.83-1.85,3.48-3.9,4.7-6.18,1.22-2.28,1.92-4.82,1.95-7.39-.03-2.57-.72-5.12-1.94-7.4-1.22-2.28-2.86-4.34-4.69-6.19-3.69-3.7-8.08-6.67-12.63-9.25-4.56-2.6-9.35-4.8-14.21-6.8-4.86-2-9.83-3.75-14.83-5.37-10.02-3.22-20.23-5.85-30.51-8.12-10.28-2.27-20.65-4.16-31.05-5.79-20.81-3.25-41.79-5.45-62.8-6.9-21.02-1.46-42.09-2.13-63.16-2.16-21.07.03-42.14.69-63.16,2.14-21.02,1.45-41.99,3.64-62.81,6.88-10.4,1.63-20.77,3.53-31.05,5.8-10.28,2.27-20.49,4.9-30.51,8.13-5.01,1.62-9.97,3.38-14.83,5.38-4.86,2.01-9.64,4.21-14.21,6.81-4.56,2.59-8.94,5.56-12.63,9.26-1.83,1.85-3.47,3.91-4.69,6.19-1.22,2.28-1.91,4.83-1.94,7.4Zm-.73,0c.03-2.7.77-5.37,2.04-7.73,1.27-2.36,2.96-4.46,4.83-6.35,3.77-3.76,8.21-6.74,12.8-9.34,4.6-2.61,9.42-4.8,14.3-6.81,4.89-2,9.87-3.74,14.89-5.36,10.05-3.21,20.28-5.81,30.58-8.06,10.3-2.25,20.68-4.12,31.1-5.73,20.83-3.22,41.82-5.39,62.85-6.82,21.03-1.43,42.11-2.07,63.18-2.07,21.08,0,42.15.63,63.19,2.05,21.03,1.42,42.02,3.58,62.85,6.8,10.42,1.61,20.8,3.49,31.1,5.74,10.3,2.25,20.53,4.86,30.58,8.08,5.02,1.61,10,3.36,14.89,5.36,4.88,2,9.69,4.2,14.3,6.81,4.59,2.6,9.03,5.58,12.8,9.35,1.87,1.88,3.56,3.99,4.83,6.35,1.27,2.36,2.01,5.03,2.04,7.73-.03,2.7-.76,5.38-2.03,7.74-1.27,2.37-2.95,4.47-4.82,6.36-3.77,3.77-8.2,6.77-12.79,9.37-4.6,2.62-9.41,4.83-14.29,6.84-4.89,2.01-9.87,3.77-14.89,5.39-10.05,3.23-20.28,5.86-30.58,8.13-10.3,2.27-20.68,4.16-31.1,5.8-20.84,3.25-41.83,5.45-62.86,6.91-21.04,1.46-42.12,2.13-63.21,2.16-21.09-.03-42.17-.69-63.21-2.14-21.04-1.45-42.03-3.65-62.87-6.89-10.42-1.64-20.8-3.53-31.1-5.81-10.3-2.28-20.53-4.91-30.57-8.15-5.02-1.63-10-3.39-14.89-5.4-4.88-2.02-9.69-4.23-14.29-6.85-4.59-2.61-9.03-5.61-12.79-9.38-1.87-1.89-3.55-4-4.82-6.37-1.26-2.36-2-5.04-2.02-7.74Z"/>
          <path class="cls-2" d="m193.49,89.19c.03,1.82.52,3.61,1.36,5.25.86,1.63,2.02,3.11,3.33,4.45,2.63,2.68,5.8,4.85,9.09,6.74,3.3,1.9,6.77,3.51,10.3,4.97,3.53,1.47,7.14,2.74,10.78,3.93,7.29,2.35,14.72,4.27,22.21,5.92,7.49,1.65,15.04,3.02,22.62,4.2,15.16,2.36,30.45,3.93,45.76,4.97,15.32,1.06,30.67,1.54,46.03,1.54,15.35.01,30.71-.45,46.03-1.49,15.32-1.04,30.6-2.64,45.76-5,7.58-1.19,15.13-2.56,22.62-4.21,7.49-1.65,14.92-3.57,22.21-5.92,3.64-1.18,7.25-2.46,10.78-3.93,3.53-1.46,7-3.08,10.3-4.97,3.29-1.89,6.46-4.06,9.09-6.74,1.31-1.34,2.47-2.82,3.33-4.45.85-1.63,1.34-3.43,1.36-5.25-.02-1.82-.49-3.62-1.34-5.26-.85-1.64-2.01-3.13-3.31-4.48-2.62-2.7-5.78-4.89-9.07-6.8-3.3-1.92-6.76-3.55-10.29-5.04-3.53-1.49-7.13-2.79-10.77-3.99-7.28-2.4-14.71-4.35-22.2-6.05-7.49-1.69-15.04-3.11-22.63-4.32-15.17-2.41-30.47-4.05-45.8-5.14-15.33-1.09-30.7-1.59-46.07-1.63-30.73.04-61.52,1.92-91.87,6.75-7.58,1.22-15.14,2.64-22.63,4.33-7.49,1.7-14.92,3.65-22.2,6.05-3.64,1.21-7.25,2.51-10.77,4-3.53,1.49-6.99,3.12-10.29,5.04-3.29,1.92-6.45,4.1-9.07,6.81-1.3,1.35-2.46,2.84-3.31,4.48-.84,1.64-1.32,3.45-1.34,5.26Zm-1.22,0c.02-2.03.58-4.04,1.5-5.81.93-1.77,2.17-3.34,3.54-4.74,2.76-2.81,6-5.01,9.35-6.95,3.36-1.93,6.87-3.56,10.44-5.04,3.57-1.48,7.2-2.77,10.87-3.96,7.34-2.37,14.8-4.29,22.32-5.95,7.52-1.66,15.09-3.03,22.7-4.21,15.21-2.36,30.52-3.94,45.87-4.98,15.35-1.06,30.73-1.54,46.11-1.55,15.38-.01,30.77.45,46.11,1.49,15.35,1.05,30.66,2.64,45.87,5.01,7.6,1.2,15.18,2.56,22.7,4.22,7.52,1.66,14.98,3.58,22.32,5.95,3.67,1.19,7.3,2.48,10.87,3.96,3.57,1.48,7.08,3.11,10.44,5.04,3.35,1.93,6.6,4.14,9.35,6.95,1.37,1.4,2.61,2.97,3.54,4.74.92,1.77,1.47,3.77,1.5,5.81-.01,2.03-.56,4.04-1.47,5.82-.92,1.78-2.16,3.36-3.52,4.77-2.75,2.83-5.99,5.06-9.34,7.01-3.36,1.95-6.87,3.61-10.43,5.11-3.56,1.5-7.2,2.81-10.86,4.03-7.33,2.41-14.8,4.38-22.32,6.08-7.52,1.7-15.09,3.12-22.7,4.33-15.22,2.42-30.54,4.06-45.9,5.15-15.36,1.09-30.76,1.6-46.16,1.63-30.79-.04-61.62-1.92-92.06-6.76-7.6-1.23-15.18-2.64-22.7-4.35-7.52-1.7-14.98-3.67-22.32-6.08-3.66-1.21-7.3-2.53-10.86-4.03-3.56-1.5-7.07-3.16-10.43-5.11-3.35-1.95-6.59-4.18-9.34-7.01-1.36-1.42-2.6-2.99-3.52-4.77-.91-1.78-1.46-3.79-1.47-5.82Z"/>
          <g>
            <path class="cls-2" d="m255.14,89.19c.02,1.12.32,2.22.85,3.23.54,1.01,1.27,1.94,2.1,2.78,1.66,1.68,3.68,3.06,5.78,4.25,2.11,1.2,4.32,2.22,6.58,3.15,2.26.93,4.57,1.74,6.9,2.49,4.67,1.49,9.43,2.7,14.23,3.75,4.8,1.04,9.65,1.9,14.51,2.65,9.73,1.49,19.53,2.47,29.35,3.12,9.82.68,19.67.98,29.52.98,9.85.02,19.7-.26,29.52-.91,9.82-.65,19.63-1.66,29.35-3.16,9.71-1.52,19.39-3.44,28.74-6.41,2.33-.75,4.64-1.56,6.9-2.49,2.26-.93,4.48-1.95,6.58-3.15,2.1-1.2,4.12-2.57,5.78-4.26.83-.84,1.56-1.77,2.09-2.78.53-1.01.83-2.12.85-3.23,0-1.12-.3-2.23-.82-3.25-.53-1.02-1.25-1.96-2.07-2.82-1.65-1.71-3.66-3.11-5.76-4.34-2.1-1.23-4.31-2.28-6.57-3.24-2.26-.96-4.56-1.8-6.9-2.58-4.66-1.55-9.43-2.82-14.23-3.92-4.8-1.1-9.65-2.03-14.51-2.81-9.74-1.56-19.55-2.63-29.39-3.35-9.84-.71-19.71-1.05-29.58-1.09-9.87.01-19.74.33-29.59,1.02-9.84.71-19.66,1.81-29.39,3.39-4.87.8-9.71,1.72-14.51,2.83-4.8,1.1-9.56,2.37-14.23,3.93-2.33.78-4.64,1.62-6.89,2.58-2.25.96-4.47,2.01-6.57,3.24-2.1,1.23-4.1,2.63-5.76,4.35-.82.86-1.54,1.8-2.07,2.82-.52,1.02-.81,2.14-.82,3.25Zm-1.36,0c.02-1.36.39-2.69,1.01-3.85.62-1.17,1.43-2.19,2.33-3.1,1.8-1.82,3.91-3.24,6.08-4.48,2.17-1.24,4.44-2.29,6.74-3.23,2.3-.95,4.64-1.77,7-2.53,4.72-1.51,9.53-2.73,14.36-3.78,4.83-1.05,9.71-1.92,14.59-2.66,9.77-1.5,19.61-2.48,29.47-3.13,9.86-.68,19.73-.98,29.61-.98,9.88-.02,19.76.26,29.62.91,9.86.66,19.7,1.66,29.47,3.17,9.76,1.53,19.49,3.46,28.95,6.46,2.36.76,4.7,1.58,7,2.53,2.3.95,4.57,1.99,6.74,3.23,2.17,1.24,4.27,2.66,6.08,4.49.9.91,1.71,1.94,2.33,3.1.61,1.17.99,2.5,1,3.85,0,1.36-.37,2.7-.97,3.87-.61,1.18-1.41,2.22-2.3,3.14-1.79,1.85-3.89,3.3-6.05,4.57-2.17,1.27-4.43,2.34-6.73,3.32-2.3.98-4.64,1.83-6.99,2.62-4.72,1.57-9.52,2.85-14.36,3.96-4.84,1.11-9.71,2.04-14.6,2.83-9.78,1.57-19.64,2.64-29.51,3.36-9.88.72-19.77,1.06-29.67,1.1-9.9-.01-19.8-.33-29.68-1.03-9.88-.72-19.73-1.82-29.51-3.4-4.89-.8-9.76-1.73-14.6-2.84-4.83-1.11-9.64-2.39-14.36-3.96-2.36-.79-4.7-1.64-6.99-2.62-2.3-.98-4.56-2.05-6.73-3.32-2.16-1.27-4.26-2.72-6.05-4.58-.89-.93-1.7-1.97-2.3-3.14-.6-1.18-.96-2.52-.97-3.87Z"/>
            <path class="cls-2" d="m459.03,104.23l-1.23-.62c.45-.88.67-1.78.67-2.66,0-5.85-9.87-11.66-27.07-15.95-17.74-4.43-41.33-6.87-66.44-6.87s-48.7,2.44-66.44,6.87c-17.2,4.29-27.07,10.11-27.07,15.95,0,.88.23,1.78.67,2.66l-1.23.62c-.54-1.08-.82-2.18-.82-3.28,0-6.63,9.98-12.77,28.11-17.29,17.84-4.45,41.56-6.91,66.77-6.91s48.93,2.45,66.77,6.91c18.13,4.52,28.11,10.67,28.11,17.29,0,1.1-.28,2.21-.82,3.28Z"/>
            <path class="cls-2" d="m289.14,109.62l-1.42-1.07c7.07-9.37,39.56-16.17,77.25-16.17,18.27,0,36.05,1.61,50.07,4.53,9.9,2.06,22.64,5.74,27.12,11.56l-1.41,1.08c-3.24-4.21-12.5-8.08-26.08-10.91-13.9-2.9-31.55-4.49-49.7-4.49s-35.89,1.6-49.81,4.51c-13.59,2.84-22.83,6.73-26.02,10.95Z"/>
            <path class="cls-2" d="m419.51,114.12c-13.47-4.07-33.35-6.41-54.54-6.41s-41,2.33-54.47,6.39l-.57-1.89c13.65-4.11,33.71-6.47,55.03-6.47s41.46,2.37,55.11,6.5l-.57,1.89Z"/>
          </g>
        </g>
      </g>
    </g>
  </g>
</svg>